<svg t="1735549953098" class="icon" viewBox="0 0 1024 1024" version="1.1" xmlns="http://www.w3.org/2000/svg" p-id="5442" width="32" height="32"><path d="M923.663 92.57c-15.534-7.768-31.069-7.768-38.836 0L108.104 480.93c-15.534 0-23.302 15.535-23.302 31.069s7.768 31.069 15.535 31.069L286.75 659.577c15.535 7.768 31.07 7.768 46.604-7.767l411.663-372.827 15.534 7.767-372.827 396.13c-7.767 7.766-7.767 15.534-7.767 23.3v170.88c0 15.534 7.767 31.069 23.302 38.836 15.534 7.767 31.069 0 38.836-7.767l93.207-93.207 186.413 124.276c7.767 7.767 15.535 7.767 23.302 7.767h15.534c15.535-7.767 23.302-15.535 23.302-31.07l155.345-776.722c0-23.302 0-38.836-15.535-46.603z" p-id="5443" fill="#ffffff"></path></svg>