<svg xmlns="http://www.w3.org/2000/svg" xmlns:xlink="http://www.w3.org/1999/xlink" fill="none" version="1.1" width="389.41796875" height="257.35272216796875" viewBox="0 0 389.41796875 257.35272216796875"><g><g><path d="M39.32400131225586,235.9747314453125L87.06000131225585,235.9747314453125L87.06000131225585,239.8387314453125L39.32400131225586,239.8387314453125L39.32400131225586,235.9747314453125Z" fill="#E7EBF2" fill-opacity="1"/></g><g><path d="M42.27300131225586,227.32373022460936C42.67500131225586,226.08973022460938,43.82600131225586,225.25473022460938,45.12500131225586,225.25473022460938L81.38500131225587,225.25473022460938C82.68300131225587,225.25473022460938,83.83400131225585,226.08973022460938,84.23700131225586,227.32373022460936L87.06000131225585,235.97473022460937L39.44900131225586,235.97473022460937L42.27300131225586,227.32373022460936Z" fill="#E7EBF2" fill-opacity="1"/></g><g><path d="M161.28899911499025,87.27072180175782L161.99899911499023,85.56602180175781L148.75299911499025,72.22806580175781L148.05299911499023,71.9327728017578L24.588090514990235,70.68677280175781L23.577999114990234,71.68672180175781L23.577999114990234,86.27072180175782L24.577999114990234,87.27072180175782L161.28899911499025,87.27072180175782ZM158.88699911499023,85.27072180175782L147.62299911499025,73.92853180175781L25.577999114990234,72.69686180175782L25.577999114990234,85.27072180175782L158.88699911499023,85.27072180175782Z" fill-rule="evenodd" fill="#E7EBF2" fill-opacity="1"/></g><g><path d="M149.04299975585937,73.43172344970704L149.04299975585937,72.93372344970703L147.04299975585937,72.93372344970703L147.04299975585937,84.06732344970703L133.4553997558594,72.18106744970703L131.79699975585936,72.93372344970703L131.79699975585936,84.07902344970704L118.08239975585937,72.17843144970703L116.42699975585937,72.93372344970703L116.42699975585937,84.06732344970703L102.83941375585937,72.18106744970703L101.18099975585938,72.93372344970703L101.18099975585938,86.27072344970703L103.18099975585938,86.27072344970703L103.18099975585938,75.13713344970704L116.76859975585937,87.02342344970702L118.42699975585937,86.27072344970703L118.42699975585937,75.12544344970703L132.14159975585937,87.02602344970703L133.79699975585936,86.27072344970703L133.79699975585936,75.13713344970704L147.38459975585937,87.02342344970702L149.04299975585937,86.27072344970703L149.04299975585937,73.43172344970704Z" fill-rule="evenodd" fill="#E7EBF2" fill-opacity="1"/></g><g><path d="M39.94900131225586,86.27072235107423L39.94900131225586,71.93572235107422L41.94900131225586,71.93572235107422L41.94900131225586,86.27072235107423L39.94900131225586,86.27072235107423Z" fill-rule="evenodd" fill="#E7EBF2" fill-opacity="1"/></g><g><path d="M87.81100244140625,86.27072344970703L87.81100244140625,72.93372344970703L85.81100244140625,72.93372344970703L85.81100244140625,84.06732344970703L72.22341644140624,72.18106744970703L70.90658844140626,73.68637944970703L86.15260244140624,87.02342344970702L87.81100244140625,86.27072344970703Z" fill-rule="evenodd" fill="#E7EBF2" fill-opacity="1"/></g><g><path d="M70.56500244140625,86.27072344970703L70.56500244140625,72.93372344970703L72.56500244140625,72.93372344970703L72.56500244140625,86.27072344970703L70.56500244140625,86.27072344970703Z" fill-rule="evenodd" fill="#E7EBF2" fill-opacity="1"/></g><g><path d="M71.43999969482422,220.02132263183594L72.43999969482422,219.02132263183594L72.43999969482422,58.09972263183594L72.11779969482421,57.36447263183594L63.86978969482422,49.76106863183594L62.50857969482422,49.766293631835936L54.38658369482422,57.36969263183594L54.06999969482422,58.09972263183594L54.06999969482422,219.02132263183594L55.06999969482422,220.02132263183594L71.43999969482422,220.02132263183594ZM70.43999969482422,218.02132263183594L70.43999969482422,58.537952631835935L63.19723969482422,51.861222631835936L56.06999969482422,58.533382631835934L56.06999969482422,218.02132263183594L70.43999969482422,218.02132263183594Z" fill-rule="evenodd" fill="#E7EBF2" fill-opacity="1"/></g><g><path d="M71.43999969482422,59.97272491455078L55.06999969482422,59.97272491455078L55.06999969482422,57.97272491455078L71.43999969482422,57.97272491455078L71.43999969482422,59.97272491455078Z" fill-rule="evenodd" fill="#E7EBF2" fill-opacity="1"/></g><g><path d="M71.43999969482422,101.10672760009766L55.06999969482422,101.10672760009766L55.06999969482422,99.10672760009766L71.43999969482422,99.10672760009766L71.43999969482422,101.10672760009766Z" fill-rule="evenodd" fill="#E7EBF2" fill-opacity="1"/></g><g><path d="M71.43999969482422,114.3197250366211L55.06999969482422,114.3197250366211L55.06999969482422,112.3197250366211L71.43999969482422,112.3197250366211L71.43999969482422,114.3197250366211Z" fill-rule="evenodd" fill="#E7EBF2" fill-opacity="1"/></g><g><path d="M71.43999969482422,127.40772247314453L55.06999969482422,127.40772247314453L55.06999969482422,125.40772247314453L71.43999969482422,125.40772247314453L71.43999969482422,127.40772247314453Z" fill-rule="evenodd" fill="#E7EBF2" fill-opacity="1"/></g><g><path d="M71.43999969482422,140.6207275390625L55.06999969482422,140.6207275390625L55.06999969482422,138.6207275390625L71.43999969482422,138.6207275390625L71.43999969482422,140.6207275390625Z" fill-rule="evenodd" fill="#E7EBF2" fill-opacity="1"/></g><g><path d="M71.43999969482422,153.8327178955078L55.06999969482422,153.8327178955078L55.06999969482422,151.8327178955078L71.43999969482422,151.8327178955078L71.43999969482422,153.8327178955078Z" fill-rule="evenodd" fill="#E7EBF2" fill-opacity="1"/></g><g><path d="M71.43999969482422,167.0457305908203L55.06999969482422,167.0457305908203L55.06999969482422,165.0457305908203L71.43999969482422,165.0457305908203L71.43999969482422,167.0457305908203Z" fill-rule="evenodd" fill="#E7EBF2" fill-opacity="1"/></g><g><path d="M71.43999969482422,180.13372802734375L55.06999969482422,180.13372802734375L55.06999969482422,178.13372802734375L71.43999969482422,178.13372802734375L71.43999969482422,180.13372802734375Z" fill-rule="evenodd" fill="#E7EBF2" fill-opacity="1"/></g><g><path d="M71.43999969482422,193.3467254638672L55.06999969482422,193.3467254638672L55.06999969482422,191.3467254638672L71.43999969482422,191.3467254638672L71.43999969482422,193.3467254638672Z" fill-rule="evenodd" fill="#E7EBF2" fill-opacity="1"/></g><g><path d="M71.43999969482422,206.55972290039062L55.06999969482422,206.55972290039062L55.06999969482422,204.55972290039062L71.43999969482422,204.55972290039062L71.43999969482422,206.55972290039062Z" fill-rule="evenodd" fill="#E7EBF2" fill-opacity="1"/></g><g><path d="M63.33119966430664,51.58501263183594L135.62899966430666,73.76472263183594L136.21499966430665,71.85272263183595L63.48529966430664,49.540299631835936L62.66769966430664,49.64481663183594L28.05265466430664,70.96022263183593L29.10134466430664,72.66322263183594L63.33119966430664,51.58501263183594Z" fill-rule="evenodd" fill="#E7EBF2" fill-opacity="1"/></g><g><path d="M70.91559969482422,87.03122290039063L54.420606694824215,72.94517590039062L55.71939269482422,71.42426990039063L72.21439969482422,85.51022290039063L70.91559969482422,87.03122290039063Z" fill-rule="evenodd" fill="#E7EBF2" fill-opacity="1"/></g><g><path d="M70.42700024414063,100.37872198486328L54.930998244140625,87.53975698486329L56.207002244140625,85.99968698486327L71.70300024414063,98.83872198486328L70.42700024414063,100.37872198486328Z" fill-rule="evenodd" fill="#E7EBF2" fill-opacity="1"/></g><g><path d="M70.56630024414062,72.46832546386719L54.94527624414062,60.00336946386719L56.19272424414063,58.44008146386719L71.81370024414062,70.9051254638672L70.56630024414062,72.46832546386719Z" fill-rule="evenodd" fill="#E7EBF2" fill-opacity="1"/></g><g><path d="M53.71610186157227,86.70542290039063L40.71914186157227,72.86938590039063L42.17686186157226,71.50005990039062L55.17390186157226,85.33602290039063L53.71610186157227,86.70542290039063Z" fill-rule="evenodd" fill="#E7EBF2" fill-opacity="1"/></g><g><path d="M39.91689911499024,86.77452290039062L24.045871114990234,72.93850190039062L25.360127114990235,71.43094390039063L41.23109911499023,85.26692290039063L39.91689911499024,86.77452290039062Z" fill-rule="evenodd" fill="#E7EBF2" fill-opacity="1"/></g><g><path d="M101.01479755859376,86.39342344970703L86.64375755859375,73.55446144970703L87.97623755859375,72.06298544970703L102.34719755859375,84.90202344970703L101.01479755859376,86.39342344970703Z" fill-rule="evenodd" fill="#E7EBF2" fill-opacity="1"/></g><g><path d="M70.43900024414063,113.60052052001953L55.06796924414063,101.26051952001953L56.32003124414062,99.70092152001953L71.69100024414062,112.04092052001953L70.43900024414063,113.60052052001953Z" fill-rule="evenodd" fill="#E7EBF2" fill-opacity="1"/></g><g><path d="M70.44670024414063,126.6957255859375L55.075743244140625,114.6047015859375L56.312257244140625,113.0327495859375L71.68330024414063,125.1237255859375L70.44670024414063,126.6957255859375Z" fill-rule="evenodd" fill="#E7EBF2" fill-opacity="1"/></g><g><path d="M70.44590024414063,139.90702357177736L54.94990824414062,127.69104157177735L56.18809224414063,126.12040557177734L71.68410024414062,138.33642357177735L70.44590024414063,139.90702357177736Z" fill-rule="evenodd" fill="#E7EBF2" fill-opacity="1"/></g><g><path d="M70.44980024414062,153.12312863769532L54.95383824414063,141.0321296376953L56.18416224414062,139.45532763769532L71.68020024414062,151.54632863769532L70.44980024414062,153.12312863769532Z" fill-rule="evenodd" fill="#E7EBF2" fill-opacity="1"/></g><g><path d="M70.44980024414062,166.21112607421875L54.95383824414063,154.12012707421874L56.18416224414062,152.54332507421876L71.68020024414062,164.63432607421876L70.44980024414062,166.21112607421875Z" fill-rule="evenodd" fill="#E7EBF2" fill-opacity="1"/></g><g><path d="M70.44590024414063,179.42103059082032L54.94993924414062,167.20607359082032L56.18806124414063,165.6353875908203L71.68410024414062,177.8504305908203L70.44590024414063,179.42103059082032Z" fill-rule="evenodd" fill="#E7EBF2" fill-opacity="1"/></g><g><path d="M70.44590024414063,192.63402802734376L54.94993924414062,180.41907102734376L56.18806124414063,178.84838502734374L71.68410024414062,191.06342802734375L70.44590024414063,192.63402802734376Z" fill-rule="evenodd" fill="#E7EBF2" fill-opacity="1"/></g><g><path d="M70.44590024414063,205.84701838378908L54.94990824414062,193.63103638378905L56.18809224414063,192.06040038378907L71.68410024414062,204.27641838378906L70.44590024414063,205.84701838378908Z" fill-rule="evenodd" fill="#E7EBF2" fill-opacity="1"/></g><g><path d="M70.44980024414062,219.06212399902344L54.95383824414063,206.97112499902343L56.18416224414062,205.39432299902344L71.68020024414062,217.48532399902345L70.44980024414062,219.06212399902344Z" fill-rule="evenodd" fill="#E7EBF2" fill-opacity="1"/></g><g><path d="M47.571998596191406,218.89772033691406L78.81199859619142,218.89772033691406C79.9169985961914,218.89772033691406,80.81199859619142,219.79272033691407,80.81199859619142,220.89772033691406L80.81199859619142,225.25472033691406L45.571998596191406,225.25472033691406L45.571998596191406,220.89772033691406C45.571998596191406,219.79272033691407,46.46799859619141,218.89772033691406,47.571998596191406,218.89772033691406Z" fill="#E7EBF2" fill-opacity="1"/></g><g><path d="M89.30999969482423,98.36172198486328L79.93699969482422,107.71072198486328C79.31299969482421,108.33372198486327,78.43799969482421,108.70772198486328,77.68799969482421,108.70772198486328L54.19499969482422,108.70772198486328L54.19499969482422,86.76972198486328L90.43399969482422,86.76972198486328L90.43399969482422,95.99372198486329C90.18499969482423,96.99072198486328,89.93499969482423,97.73872198486328,89.30999969482423,98.36172198486328Z" fill="#E7EBF2" fill-opacity="1"/></g><g><path d="M67.95699853515625,96.7277275390625L58.96099853515625,96.7277275390625C58.40799853515625,96.7277275390625,57.96099853515625,96.2797275390625,57.96099853515625,95.7277275390625L57.96099853515625,91.3707275390625C57.96099853515625,90.8187275390625,58.40799853515625,90.3707275390625,58.96099853515625,90.3707275390625L67.95699853515625,90.3707275390625C68.50999853515626,90.3707275390625,68.95699853515625,90.8187275390625,68.95699853515625,91.3707275390625L68.95699853515625,95.7277275390625C68.95699853515625,96.2797275390625,68.50999853515626,96.7277275390625,67.95699853515625,96.7277275390625Z" fill="#FFFFFF" fill-opacity="1"/></g><g><path d="M82.173001953125,96.7277275390625L73.177001953125,96.7277275390625C72.624001953125,96.7277275390625,72.177001953125,96.2797275390625,72.177001953125,95.7277275390625L72.177001953125,91.3707275390625C72.177001953125,90.8177275390625,72.624001953125,90.3707275390625,73.177001953125,90.3707275390625L82.173001953125,90.3707275390625C82.726001953125,90.3707275390625,83.173001953125,90.8177275390625,83.173001953125,91.3707275390625L83.173001953125,95.7277275390625C83.173001953125,96.2797275390625,82.726001953125,96.7277275390625,82.173001953125,96.7277275390625Z" fill="#FFFFFF" fill-opacity="1"/></g><g><path d="M27.028000259399413,200.8677215576172L22.128000259399414,200.8677215576172L22.128000259399414,240.7547215576172L27.028000259399413,240.7547215576172L27.028000259399413,200.8677215576172Z" fill="#F1F3F9" fill-opacity="1"/><path d="M21.128000259399414,240.7547215576172L21.128000259399414,200.8677215576172L22.128000259399414,199.8677215576172L27.028000259399413,199.8677215576172L28.028000259399413,200.8677215576172L28.028000259399413,240.7547215576172L27.028000259399413,241.7547215576172L22.128000259399414,241.7547215576172L21.128000259399414,240.7547215576172ZM26.028000259399413,201.8677215576172L23.128000259399414,201.8677215576172L23.128000259399414,239.7547215576172L26.028000259399413,239.7547215576172L26.028000259399413,201.8677215576172Z" fill-rule="evenodd" fill="#D6DCE8" fill-opacity="1"/></g><g><path d="M61.8010009765625,200.8677215576172L56.9010009765625,200.8677215576172L56.9010009765625,240.7547215576172L61.8010009765625,240.7547215576172L61.8010009765625,200.8677215576172Z" fill="#F1F3F9" fill-opacity="1"/><path d="M55.9010009765625,240.7547215576172L55.9010009765625,200.8677215576172L56.9010009765625,199.8677215576172L61.8010009765625,199.8677215576172L62.8010009765625,200.8677215576172L62.8010009765625,240.7547215576172L61.8010009765625,241.7547215576172L56.9010009765625,241.7547215576172L55.9010009765625,240.7547215576172ZM60.8010009765625,201.8677215576172L57.9010009765625,201.8677215576172L57.9010009765625,239.7547215576172L60.8010009765625,239.7547215576172L60.8010009765625,201.8677215576172Z" fill-rule="evenodd" fill="#D6DCE8" fill-opacity="1"/></g><g><path d="M209.74199560546873,240.58272888183595C196.46599560546875,240.89872888183595,180.65999560546874,240.58272888183595,169.43799560546876,240.42572888183594C158.21599560546875,240.74072888183593,142.40999560546874,240.89872888183595,129.13299560546875,240.58272888183595C142.25199560546875,233.17272888183595,146.67799560546877,219.45672888183594,147.46799560546876,210.31272888183594L191.24999560546874,210.31272888183594C192.19799560546875,219.45672888183594,196.62399560546874,233.17272888183595,209.74199560546873,240.58272888183595Z" fill="#F1F3F9" fill-opacity="1"/><path d="M174.07649560546875,241.49402888183593Q198.21769560546875,241.85732888183594,209.76579560546875,241.58242888183594L213.39219560546877,241.49612888183594L210.23379560546874,239.71202888183595Q201.61709560546876,234.84472888183595,196.81909560546876,225.63592888183592Q193.10499560546876,218.50747888183594,192.24469560546873,210.20960688183592L192.15169560546875,209.31272888183594L146.55069560546875,209.31272888183594L146.47169560546874,210.22665428183595Q145.76239560546875,218.43653888183593,142.03569560546876,225.63842888183595Q137.27734560546875,234.83402888183593,128.64119460546874,239.71202888183595L125.48252560546875,241.49612888183594L129.10920930546874,241.58242888183594Q147.91029560546875,242.02992888183593,169.44499560546876,241.42592888183594Q170.92889560546877,241.44672888183595,174.07649560546875,241.49402888183593ZM206.37419560546874,239.64552888183593Q199.28869560546875,234.70402888183594,195.04539560546874,226.56002888183593Q191.35679560546873,219.48050888183593,190.35669560546876,211.31272888183594L148.37609560546875,211.31272888183594Q147.51259560546876,219.40607888183592,143.81199560546875,226.55752888183594Q139.59709560546875,234.70302888183593,132.48980560546875,239.65362888183594Q149.81259560546874,239.97622888183594,169.40989560546876,239.42612888183595L169.43099560546875,239.42552888183593L169.45199560546877,239.42582888183594Q170.93069560546874,239.44652888183595,174.10659560546875,239.49432888183594Q194.94869560546874,239.80792888183595,206.37419560546874,239.64552888183593Z" fill-rule="evenodd" fill="#D6DCE8" fill-opacity="1"/></g><g><path d="M251.78599633789062,94.28972521972656L251.78599633789062,207.64672521972656C251.78599633789062,210.48472521972656,249.57299633789063,212.53372521972656,246.88599633789062,212.53372521972656L91.98999633789063,212.53372521972656C89.30299633789062,212.53372521972656,87.08999633789062,210.32672521972657,87.08999633789062,207.64672521972656L87.08999633789062,94.28972521972656C87.08999633789062,91.60972521972656,89.30299633789062,89.40272521972656,91.98999633789063,89.40272521972656L246.88599633789062,89.40272521972656C249.57299633789063,89.40272521972656,251.78599633789062,91.45272521972656,251.78599633789062,94.28972521972656Z" fill="#FFFFFF" fill-opacity="1"/><path d="M251.04199633789062,211.87072521972658Q252.78599633789062,210.16972521972656,252.78599633789062,207.64672521972656L252.78599633789062,94.28972521972656Q252.78599633789062,91.76745521972656,251.04199633789062,90.06644121972656Q249.33599633789063,88.40272521972656,246.88599633789062,88.40272521972656L91.98999633789063,88.40272521972656Q89.56129633789062,88.40272521972656,87.82621133789063,90.13317321972656Q86.08999633789062,91.86475521972656,86.08999633789062,94.28972521972656L86.08999633789062,207.64672521972656Q86.08999633789062,210.07172521972655,87.82621133789063,211.80372521972657Q89.56130633789063,213.53372521972656,91.98999633789063,213.53372521972656L246.88599633789062,213.53372521972656Q249.33599633789063,213.53372521972656,251.04199633789062,211.87072521972658ZM250.78599633789062,94.28972521972656L250.78599633789062,207.64672521972656Q250.78599633789062,209.32672521972657,249.64499633789063,210.43872521972656Q248.5219963378906,211.53372521972656,246.88599633789062,211.53372521972656L91.98999633789063,211.53372521972656Q90.38815633789062,211.53372521972656,89.23853633789062,210.38672521972654Q88.08999633789062,209.24172521972656,88.08999633789062,207.64672521972656L88.08999633789062,94.28972521972656Q88.08999633789062,92.69474521972656,89.23853633789062,91.54927521972657Q90.38815633789062,90.40272521972656,91.98999633789063,90.40272521972656L246.88599633789062,90.40272521972656Q248.5219963378906,90.40272521972656,249.64499633789063,91.49825521972656Q250.78599633789062,92.61059521972656,250.78599633789062,94.28972521972656Z" fill-rule="evenodd" fill="#D6DCE8" fill-opacity="1"/></g><g><path d="M251.78600109863282,94.28972521972656L251.78600109863282,192.03872521972656L87.24800109863281,192.03872521972656L87.24800109863281,94.28972521972656C87.24800109863281,91.60972521972656,89.4610010986328,89.40272521972656,92.14800109863282,89.40272521972656L247.0440010986328,89.40272521972656C249.5730010986328,89.40272521972656,251.78600109863282,91.45272521972656,251.78600109863282,94.28972521972656Z" fill="#F1F3F9" fill-opacity="1"/><path d="M86.24800109863281,193.03872521972656L252.78600109863282,193.03872521972656L252.78600109863282,94.28972521972656Q252.78600109863282,91.78633521972657,251.07000109863282,90.07432821972657Q249.3940010986328,88.40272521972656,247.0440010986328,88.40272521972656L92.14800109863282,88.40272521972656Q89.71930109863281,88.40272521972656,87.98421609863281,90.13317321972656Q86.24800109863281,91.86475521972656,86.24800109863281,94.28972521972656L86.24800109863281,193.03872521972656ZM250.78600109863282,191.03872521972656L250.78600109863282,94.28972521972656Q250.78600109863282,92.61627521972656,249.6570010986328,91.49037521972656Q248.5670010986328,90.40272521972656,247.0440010986328,90.40272521972656L92.14800109863282,90.40272521972656Q90.54616109863281,90.40272521972656,89.39654109863281,91.54927521972657Q88.24800109863281,92.69474521972656,88.24800109863281,94.28972521972656L88.24800109863281,191.03872521972656L250.78600109863282,191.03872521972656Z" fill-rule="evenodd" fill="#D6DCE8" fill-opacity="1"/></g><g><path d="M245.93800067138673,95.39372253417969L93.09600067138672,95.39372253417969L93.09600067138672,186.36272253417968L245.78000067138672,186.36272253417968L245.78000067138672,95.39372253417969L245.93800067138673,95.39372253417969Z" fill="#FFFFFF" fill-opacity="1"/></g><g><path d="M173.5470029296875,202.12872412109374Q173.5470029296875,202.33009412109374,173.5272129296875,202.53049412109374Q173.5074229296875,202.73089412109374,173.4680429296875,202.92839412109376Q173.4286529296875,203.12590412109375,173.3700429296875,203.31860412109376Q173.3114429296875,203.51130412109376,173.2341829296875,203.69734412109375Q173.1569229296875,203.88338412109374,173.0617529296875,204.06097412109375Q172.9665929296875,204.23857412109376,172.8544229296875,204.40600412109376Q172.7422629296875,204.57344412109376,172.6141929296875,204.72910412109374Q172.4861129296875,204.88476412109375,172.3433529296875,205.02715412109376Q172.2006029296875,205.16954412109374,172.0445429296875,205.29729412109376Q171.8884829296875,205.42504412109375,171.7206129296875,205.53691412109376Q171.5527529296875,205.64879412109374,171.3747029296875,205.74371412109375Q171.1966629296875,205.83864412109375,171.0101429296875,205.91570412109374Q170.8236229296875,205.99276412109376,170.6304229296875,206.05122412109375Q170.4372329296875,206.10967412109375,170.23922292968751,206.14896412109374Q170.0412229296875,206.18824412109376,169.8403029296875,206.20798412109374Q169.6393929296875,206.22772412109376,169.4375029296875,206.22772412109376Q169.2356129296875,206.22772412109376,169.0347029296875,206.20798412109374Q168.8337829296875,206.18824412109376,168.6357829296875,206.14896412109374Q168.4377729296875,206.10967412109375,168.2445729296875,206.05122412109375Q168.0513829296875,205.99276412109376,167.8648629296875,205.91570412109374Q167.6783429296875,205.83864412109375,167.5002929296875,205.74371412109375Q167.3222529296875,205.64879412109374,167.1543829296875,205.53691412109376Q166.9865229296875,205.42504412109375,166.8304629296875,205.29729412109376Q166.6744029296875,205.16954412109374,166.5316429296875,205.02715412109376Q166.3888929296875,204.88476412109375,166.2608169296875,204.72910412109374Q166.1327409296875,204.57344412109376,166.0205789296875,204.40600412109376Q165.9084159296875,204.23857412109376,165.8132479296875,204.06097412109375Q165.7180789296875,203.88338412109374,165.6408199296875,203.69734412109375Q165.5635609296875,203.51130412109376,165.5049569296875,203.31860412109376Q165.4463519296875,203.12590412109375,165.4069658296875,202.92839412109376Q165.3675796296875,202.73089412109374,165.3477913296875,202.53049412109374Q165.3280029296875,202.33009412109374,165.3280029296875,202.12872412109374Q165.3280029296875,201.92735412109374,165.3477913296875,201.72695412109374Q165.3675796296875,201.52655412109374,165.4069658296875,201.32904412109374Q165.4463519296875,201.13154412109375,165.5049569296875,200.93884412109375Q165.5635609296875,200.74614412109375,165.6408199296875,200.56010412109376Q165.7180789296875,200.37406412109374,165.8132479296875,200.19646412109375Q165.9084159296875,200.01887412109375,166.0205789296875,199.85144412109375Q166.1327409296875,199.68400412109375,166.2608169296875,199.52834412109374Q166.3888929296875,199.37268412109376,166.5316429296875,199.23029412109375Q166.6744029296875,199.08790412109374,166.8304629296875,198.96015412109375Q166.9865229296875,198.83240612109375,167.1543829296875,198.72053012109376Q167.3222529296875,198.60865412109376,167.5002929296875,198.51372912109375Q167.6783429296875,198.41880312109376,167.8648629296875,198.34174212109374Q168.0513829296875,198.26468012109376,168.2445729296875,198.20622612109375Q168.4377729296875,198.14777112109374,168.6357829296875,198.10848522109376Q168.8337829296875,198.06919972109375,169.0347029296875,198.04946192109375Q169.2356129296875,198.02972412109375,169.4375029296875,198.02972412109375Q169.6393929296875,198.02972412109375,169.8403029296875,198.04946192109375Q170.0412229296875,198.06919972109375,170.23922292968751,198.10848522109376Q170.4372329296875,198.14777112109374,170.6304229296875,198.20622612109375Q170.8236229296875,198.26468012109376,171.0101429296875,198.34174212109374Q171.1966629296875,198.41880312109376,171.3747029296875,198.51372912109375Q171.5527529296875,198.60865412109376,171.7206129296875,198.72053012109376Q171.8884829296875,198.83240612109375,172.0445429296875,198.96015412109375Q172.2006029296875,199.08790412109374,172.3433529296875,199.23029412109375Q172.4861129296875,199.37268412109376,172.6141929296875,199.52834412109374Q172.7422629296875,199.68400412109375,172.8544229296875,199.85144412109375Q172.9665929296875,200.01887412109375,173.0617529296875,200.19646412109375Q173.1569229296875,200.37406412109374,173.2341829296875,200.56010412109376Q173.3114429296875,200.74614412109375,173.3700429296875,200.93884412109375Q173.4286529296875,201.13154412109375,173.4680429296875,201.32904412109374Q173.5074229296875,201.52655412109374,173.5272129296875,201.72695412109374Q173.5470029296875,201.92735412109374,173.5470029296875,202.12872412109374Z" fill="#D6DCE8" fill-opacity="1"/></g><g><path d="M342.14799072265623,205.28172302246094L337.87799072265625,205.28172302246094L337.87799072265625,240.28272302246094L342.14799072265623,240.28272302246094L342.14799072265623,205.28172302246094Z" fill="#F1F3F9" fill-opacity="1"/><path d="M336.87799072265625,240.28272302246094L336.87799072265625,205.28172302246094L337.87799072265625,204.28172302246094L342.14799072265623,204.28172302246094L343.14799072265623,205.28172302246094L343.14799072265623,240.28272302246094L342.14799072265623,241.28272302246094L337.87799072265625,241.28272302246094L336.87799072265625,240.28272302246094ZM341.14799072265623,206.28172302246094L338.87799072265625,206.28172302246094L338.87799072265625,239.28272302246094L341.14799072265623,239.28272302246094L341.14799072265623,206.28172302246094Z" fill-rule="evenodd" fill="#D6DCE8" fill-opacity="1"/></g><g><path d="M372.64800048828124,205.28172302246094L368.38800048828125,205.28172302246094L368.38800048828125,240.28272302246094L372.64800048828124,240.28272302246094L372.64800048828124,205.28172302246094Z" fill="#F1F3F9" fill-opacity="1"/><path d="M367.38800048828125,240.28272302246094L367.38800048828125,205.28172302246094L368.38800048828125,204.28172302246094L372.64800048828124,204.28172302246094L373.64800048828124,205.28172302246094L373.64800048828124,240.28272302246094L372.64800048828124,241.28272302246094L368.38800048828125,241.28272302246094L367.38800048828125,240.28272302246094ZM371.64800048828124,206.28172302246094L369.38800048828125,206.28172302246094L369.38800048828125,239.28272302246094L371.64800048828124,239.28272302246094L371.64800048828124,206.28172302246094Z" fill-rule="evenodd" fill="#D6DCE8" fill-opacity="1"/></g><g><path d="M378.02799340820314,206.8587188720703L333.1369934082031,206.8587188720703L333.1369934082031,221.20571887207032L378.02799340820314,221.20571887207032L378.02799340820314,206.8587188720703Z" fill="#FFFFFF" fill-opacity="1"/><path d="M332.1369934082031,222.20571887207032L332.1369934082031,205.8587188720703L379.02799340820314,205.8587188720703L379.02799340820314,222.20571887207032L332.1369934082031,222.20571887207032ZM377.02799340820314,207.8587188720703L334.1369934082031,207.8587188720703L334.1369934082031,220.20571887207032L377.02799340820314,220.20571887207032L377.02799340820314,207.8587188720703Z" fill-rule="evenodd" fill="#D6DCE8" fill-opacity="1"/></g><g><path d="M344.038001953125,206.8587188720703L339.298001953125,221.20571887207032L333.927001953125,221.20571887207032L338.508001953125,206.8587188720703L344.038001953125,206.8587188720703Z" fill="#D6DCE8" fill-opacity="1"/></g><g><path d="M354.9480126953125,206.8587188720703L350.2080126953125,221.20571887207032L344.8380126953125,221.20571887207032L349.4180126953125,206.8587188720703L354.9480126953125,206.8587188720703Z" fill="#D6DCE8" fill-opacity="1"/></g><g><path d="M365.8580065917969,206.8587188720703L361.1080065917969,221.20571887207032L355.7380065917969,221.20571887207032L360.31800659179686,206.8587188720703L365.8580065917969,206.8587188720703Z" fill="#D6DCE8" fill-opacity="1"/></g><g><path d="M376.75801025390626,206.8587188720703L372.01801025390625,221.20571887207032L366.64801025390625,221.20571887207032L371.22801025390623,206.8587188720703L376.75801025390626,206.8587188720703Z" fill="#D6DCE8" fill-opacity="1"/></g><g><path d="M67.964999710083,202.7597198486328L16.753999710083008,202.7597198486328L16.753999710083008,219.15571984863283L67.964999710083,219.15571984863283L67.964999710083,202.7597198486328Z" fill="#FFFFFF" fill-opacity="1"/><path d="M15.753999710083008,220.15571984863283L15.753999710083008,201.7597198486328L68.964999710083,201.7597198486328L68.964999710083,220.15571984863283L15.753999710083008,220.15571984863283ZM66.964999710083,203.7597198486328L17.753999710083008,203.7597198486328L17.753999710083008,218.15571984863283L66.964999710083,218.15571984863283L66.964999710083,203.7597198486328Z" fill-rule="evenodd" fill="#D6DCE8" fill-opacity="1"/></g><g><path d="M29.083000076293946,202.7597198486328L23.709000076293947,218.99871984863282L17.545000076293945,218.99871984863282L22.919000076293944,202.7597198486328L29.083000076293946,202.7597198486328Z" fill="#D6DCE8" fill-opacity="1"/></g><g><path d="M41.5690001373291,202.7597198486328L36.1950001373291,218.99871984863282L30.0310001373291,218.99871984863282L35.2470001373291,202.7597198486328L41.5690001373291,202.7597198486328Z" fill="#D6DCE8" fill-opacity="1"/></g><g><path d="M54.05600155639648,202.7597198486328L48.682001556396486,218.99871984863282L42.518001556396484,218.99871984863282L47.734001556396485,202.7597198486328L54.05600155639648,202.7597198486328Z" fill="#D6DCE8" fill-opacity="1"/></g><g><path d="M66.54200161743164,202.7597198486328L61.16900161743164,218.99871984863282L55.00400161743164,218.99871984863282L60.22000161743164,202.7597198486328L66.54200161743164,202.7597198486328Z" fill="#D6DCE8" fill-opacity="1"/></g><g><path d="M188.51100158691406,64.65072379760743L188.51100158691406,45.41642379760742L190.51100158691406,45.41642379760742L190.51100158691406,64.65072379760743L188.51100158691406,64.65072379760743Z" fill-rule="evenodd" fill="#D6DCE8" fill-opacity="1"/></g><g><path d="M195.20100390625,67.40972506713867Q195.20100390625,67.54712506713867,195.19420390625,67.68435506713867Q195.18750390625002,67.82158506713867,195.17400390625,67.95832506713867Q195.16050390625,68.09506506713868,195.14030390625,68.23097506713867Q195.12010390625,68.36688506713867,195.09320390625,68.50164506713867Q195.06630390625,68.63640506713867,195.03280390625,68.76968506713867Q194.99940390625,68.90296506713867,194.95940390625,69.03444506713868Q194.91940390625,69.16593506713868,194.87300390625,69.29529506713867Q194.82660390625,69.42466506713868,194.77390390625,69.55160506713867Q194.72120390625,69.67854506713867,194.66230390625,69.80275506713868Q194.60340390625,69.92695506713866,194.53850390625,70.04813506713867Q194.47350390625,70.16930506713867,194.40270390625,70.28715506713867Q194.33190390625,70.40500506713867,194.25540390625,70.51925506713867Q194.17880390625,70.63349506713867,194.09680390625,70.74385506713867Q194.01470390625,70.85421506713867,193.92736390625,70.96042506713867Q193.83998390625,71.06663506713868,193.74748390625,71.16843506713867Q193.65497390625,71.27024506713867,193.55758390625,71.36740506713868Q193.46018390625,71.46455506713868,193.35812390625,71.55682506713867Q193.25606390625,71.64909506713867,193.14958390625,71.73626506713867Q193.04310390625,71.82342506713867,192.93247390625,71.90532506713868Q192.82183390625,71.98712506713868,192.70730390625,72.06342506713867Q192.59278390625,72.13982506713867,192.47463390625,72.21042506713867Q192.35648390625,72.28102506713867,192.23501390625,72.34582506713868Q192.11353390625,72.41062506713867,191.98901390625,72.46932506713867Q191.86449390625,72.52812506713867,191.73724390625,72.58072506713867Q191.60998390625,72.63322506713867,191.48029390625,72.67952506713867Q191.35060390625,72.72582506713867,191.21879390625,72.76572506713867Q191.08698390625,72.80562506713868,190.95336390625,72.83902506713868Q190.81975390625,72.87232506713868,190.68465390625,72.89922506713867Q190.54956390625,72.92602506713867,190.41330390625,72.94612506713867Q190.27705390625,72.96632506713867,190.13997390625,72.97972506713867Q190.00290390625,72.99322506713867,189.86532390625,73.00002506713867Q189.72774390625,73.00672506713867,189.59000390625,73.00672506713867Q189.45226390625,73.00672506713867,189.31468390625,73.00002506713867Q189.17711390624999,72.99322506713867,189.04003390625,72.97982506713868Q188.90295390625,72.96632506713867,188.76670390625,72.94612506713867Q188.63044390625,72.92602506713867,188.49535390625,72.89922506713867Q188.36025390625,72.87232506713868,188.22664390625,72.83902506713868Q188.09302390625,72.80562506713868,187.96121390625,72.76572506713867Q187.82940390625,72.72582506713867,187.69971390625,72.67952506713867Q187.57002390625,72.63322506713867,187.44276390625,72.58072506713867Q187.31551390625,72.52812506713867,187.19099390625001,72.46932506713867Q187.06647390625,72.41062506713867,186.94499390625,72.34582506713868Q186.82351390625,72.28102506713867,186.70537390625,72.21042506713867Q186.58722390625,72.13982506713867,186.47270390625,72.06342506713867Q186.35817390625,71.98712506713868,186.24753390625,71.90532506713868Q186.13690390625,71.82342506713867,186.03042390625,71.73626506713867Q185.92394390625,71.64909506713867,185.82188390625,71.55682506713867Q185.71982390625,71.46455506713868,185.62242390625,71.36740506713868Q185.52503390625,71.27024506713867,185.43252390625,71.16843506713867Q185.34002390625,71.06663506713868,185.25264390625,70.96042506713867Q185.16526390625,70.85421506713867,185.08320390625,70.74385506713867Q185.00115390625,70.63349506713867,184.92462790625,70.51925506713867Q184.84810190625,70.40500506713867,184.77728890625,70.28715506713867Q184.70647490625,70.16930506713867,184.64154390625,70.04813506713867Q184.57661190625,69.92695506713866,184.51771990625,69.80275506713868Q184.45882790625,69.67854506713867,184.40611590625,69.55160506713867Q184.35340390625,69.42466506713868,184.30699990625,69.29529506713867Q184.26059590625,69.16593506713868,184.22061190625,69.03444506713868Q184.18062690625,68.90296506713867,184.14715890625,68.76968506713867Q184.11368990625,68.63640506713867,184.08681790625,68.50164506713867Q184.05994550625,68.36688506713867,184.03973450625,68.23097506713867Q184.01952350625,68.09506506713868,184.00602240625,67.95832506713867Q183.99252130625,67.82158506713867,183.98576259625,67.68435506713867Q183.97900390625,67.54712506713867,183.97900390625,67.40972506713867Q183.97900390625,67.27232506713867,183.98576259625,67.13509506713868Q183.99252130625,66.99786506713868,184.00602240625,66.86112506713867Q184.01952350625,66.72438506713867,184.03973450625,66.58847506713867Q184.05994550625,66.45256506713868,184.08681790625,66.31780506713868Q184.11368990625,66.18304506713868,184.14715890625,66.04976506713868Q184.18062690625,65.91648506713867,184.22061190625,65.78500506713867Q184.26059590625,65.65351506713867,184.30699990625,65.52415506713868Q184.35340390625,65.39478506713867,184.40611590625,65.26784506713867Q184.45882790625,65.14090506713868,184.51771990625,65.01669506713867Q184.57661190625,64.89249506713867,184.64154390625,64.77131506713867Q184.70647490625,64.65014506713867,184.77728890625,64.53229506713868Q184.84810190625,64.41444506713867,184.92462790625,64.30019506713867Q185.00115390625,64.18595506713868,185.08320390625,64.07559506713868Q185.16526390625,63.96523506713867,185.25264390625,63.859025067138674Q185.34002390625,63.75281506713867,185.43252390625,63.65100506713867Q185.52503390625,63.54920506713867,185.62242390625,63.45204506713867Q185.71982390625,63.35489506713867,185.82188390625,63.26262506713867Q185.92394390625,63.17035506713867,186.03042390625,63.08318506713867Q186.13690390625,62.996025067138675,186.24753390625,62.91417506713867Q186.35817390625,62.83232506713867,186.47270390625,62.75598906713867Q186.58722390625,62.67965506713867,186.70537390625,62.60901806713867Q186.82351390625,62.53838106713867,186.94499390625,62.473612067138674Q187.06647390625,62.40884206713867,187.19099390625001,62.35009706713867Q187.31551390625,62.29135106713867,187.44276390625,62.23877106713867Q187.57002390625,62.18619106713867,187.69971390625,62.139903067138675Q187.82940390625,62.09361506713867,187.96121390625,62.05373006713867Q188.09302390625,62.013845067138675,188.22664390625,61.98046006713867Q188.36025390625,61.94707506713867,188.49535390625,61.920270067138674Q188.63044390625,61.89346466713867,188.76670390625,61.87330416713867Q188.90295390625,61.85314356713867,189.04003390625,61.83967616713867Q189.17711390624999,61.826208767138674,189.31468390625,61.819466897138675Q189.45226390625,61.81272506713867,189.59000390625,61.81272506713867Q189.72774390625,61.81272506713867,189.86532390625,61.819466897138675Q190.00290390625,61.826208767138674,190.13997390625,61.83967616713867Q190.27705390625,61.85314356713867,190.41330390625,61.87330416713867Q190.54956390625,61.89346466713867,190.68465390625,61.920270067138674Q190.81975390625,61.94707506713867,190.95336390625,61.98046006713867Q191.08698390625,62.013845067138675,191.21879390625,62.05373006713867Q191.35060390625,62.09361506713867,191.48029390625,62.139903067138675Q191.60998390625,62.18619106713867,191.73724390625,62.23877106713867Q191.86449390625,62.29135106713867,191.98901390625,62.35009706713867Q192.11353390625,62.40884206713867,192.23501390625,62.473612067138674Q192.35648390625,62.53838106713867,192.47463390625,62.60901806713867Q192.59278390625,62.67965506713867,192.70730390625,62.75598906713867Q192.82183390625,62.83232506713867,192.93247390625,62.91417506713867Q193.04310390625,62.996025067138675,193.14958390625,63.08318506713867Q193.25606390625,63.17035506713867,193.35812390625,63.26262506713867Q193.46018390625,63.35489506713867,193.55758390625,63.45204506713867Q193.65497390625,63.54920506713867,193.74748390625,63.65100506713867Q193.83998390625,63.75281506713867,193.92736390625,63.859025067138674Q194.01470390625,63.96523506713867,194.09680390625,64.07559506713868Q194.17880390625,64.18595506713868,194.25540390625,64.30019506713867Q194.33190390625,64.41444506713867,194.40270390625,64.53229506713868Q194.47350390625,64.65014506713867,194.53850390625,64.77131506713867Q194.60340390625,64.89249506713867,194.66230390625,65.01669506713867Q194.72120390625,65.14090506713868,194.77390390625,65.26784506713867Q194.82660390625,65.39478506713867,194.87300390625,65.52415506713868Q194.91940390625,65.65351506713867,194.95940390625,65.78500506713867Q194.99940390625,65.91648506713867,195.03280390625,66.04976506713868Q195.06630390625,66.18304506713868,195.09320390625,66.31780506713868Q195.12010390625,66.45256506713868,195.14030390625,66.58847506713867Q195.16050390625,66.72438506713867,195.17400390625,66.86112506713867Q195.18750390625002,66.99786506713868,195.19420390625,67.13509506713868Q195.20100390625,67.27232506713867,195.20100390625,67.40972506713867Z" fill="#D6DCE8" fill-opacity="1"/></g><g><path d="M190.82699340820312,74.74072161865234L190.82699340820312,69.85372161865234L188.82699340820312,69.85372161865234L188.82699340820312,74.74072161865234Q188.82699340820312,75.88113161865235,189.45785340820314,76.73454161865234Q190.06439340820313,77.55503161865235,191.09266340820312,77.89670161865234L191.12625340820313,77.90721161865234Q192.78444340820312,78.39411161865235,193.68625340820313,79.93632161865234Q194.60979340820313,81.51562161865235,194.22459340820313,83.35362161865234Q193.9326234082031,84.60532161865234,193.03313340820313,85.50262161865234Q192.12983340820313,86.40372161865234,190.86768340820313,86.69422161865234L190.8500634082031,86.69842161865235Q188.55375340820314,87.27102161865234,186.82135340820312,85.86702161865234Q185.13699340820312,84.50202161865235,185.13699340820312,82.30872161865234L183.13699340820312,82.30872161865234Q183.13699340820312,85.45552161865234,185.56213340820312,87.42092161865234Q188.06628340820313,89.45022161865234,191.32527340820312,88.64112161865235Q193.13995340820313,88.22102161865234,194.44559340820314,86.91862161865234Q195.75509340820312,85.61232161865235,196.17529340820312,83.79502161865234L196.1793934082031,83.77652161865234Q196.72879340820313,81.17712161865234,195.41269340820313,78.92667161865235Q194.11516340820313,76.70776161865234,191.70897340820312,75.99391161865235Q190.82699340820312,75.69319161865235,190.82699340820312,74.74072161865234Z" fill-rule="evenodd" fill="#D6DCE8" fill-opacity="1"/></g><g><path d="M326.07300732421874,235.55172729492188L265.69500732421875,235.55172729492188L265.69500732421875,240.43972729492188L326.07300732421874,240.43972729492188L326.07300732421874,235.55172729492188Z" fill="#F1F3F9" fill-opacity="1"/><path d="M264.69500732421875,240.43972729492188L264.69500732421875,235.55172729492188L265.69500732421875,234.55172729492188L326.07300732421874,234.55172729492188L327.07300732421874,235.55172729492188L327.07300732421874,240.43972729492188L326.07300732421874,241.43972729492188L265.69500732421875,241.43972729492188L264.69500732421875,240.43972729492188ZM325.07300732421874,236.55172729492188L266.69500732421875,236.55172729492188L266.69500732421875,239.43972729492188L325.07300732421874,239.43972729492188L325.07300732421874,236.55172729492188Z" fill-rule="evenodd" fill="#D6DCE8" fill-opacity="1"/></g><g><path d="M321.48900732421873,221.9937286376953L270.12000732421876,221.9937286376953L265.69500732421875,235.5527286376953L325.9150073242188,235.5527286376953L321.48900732421873,221.9937286376953Z" fill="#F1F3F9" fill-opacity="1"/><path d="M325.9150073242188,236.5527286376953L326.86560732421873,235.2424286376953L322.43960732421874,221.6834166376953L321.48900732421873,220.9937286376953L270.12000732421876,220.9937286376953L269.16934732421873,221.6834806376953L264.74435132421877,235.2425286376953L265.69500732421875,236.5527286376953L325.9150073242188,236.5527286376953ZM324.53670732421875,234.5527286376953L320.7635073242187,222.9937286376953L270.84555732421876,222.9937286376953L267.07326732421876,234.5527286376953L324.53670732421875,234.5527286376953Z" fill-rule="evenodd" fill="#D6DCE8" fill-opacity="1"/></g><g><path d="M171.8090057373047,47.20402421569824L344.72800573730467,47.20402421569824L345.72800573730467,46.20402421569824L345.72800573730467,27.758024215698242L344.7180057373047,26.75807521569824L188.55290573730468,28.33467521569824L187.8535057373047,28.629948215698242L171.0994757373047,45.49932421569824L171.8090057373047,47.20402421569824ZM343.72800573730467,45.20402421569824L174.21154573730468,45.20402421569824L188.98340573730468,30.330434215698244L343.72800573730467,28.76817421569824L343.72800573730467,45.20402421569824Z" fill-rule="evenodd" fill="#D6DCE8" fill-opacity="1"/></g><g><path d="M245.57000354003907,31.53791497253418L245.57000354003907,46.20382497253418L247.57000354003907,46.20382497253418L247.57000354003907,29.33442497253418L245.91160354003907,28.58178597253418L228.28700354003905,44.00032497253418L228.28700354003905,29.33442497253418L226.63160354003907,28.57913097253418L208.84600354003908,44.01212497253418L208.84600354003908,29.33442497253418L207.18760354003905,28.58178597253418L189.56300354003906,44.00032497253418L189.56300354003906,29.33442497253418L187.56300354003906,29.33442497253418L187.56300354003906,46.20382497253418L189.22143654003906,46.95642497253418L206.84600354003908,31.53791497253418L206.84600354003908,46.20382497253418L208.50140354003906,46.959124972534184L226.28700354003905,31.52613497253418L226.28700354003905,46.20382497253418L227.94540354003905,46.95642497253418L245.57000354003907,31.53791497253418Z" fill-rule="evenodd" fill="#D6DCE8" fill-opacity="1"/></g><g><path d="M323.01800537109375,46.20412338562012L323.01800537109375,28.073423385620117L325.01800537109375,28.073423385620117L325.01800537109375,46.20412338562012L323.01800537109375,46.20412338562012Z" fill-rule="evenodd" fill="#D6DCE8" fill-opacity="1"/></g><g><path d="M266.669419328125,46.95642497253418L285.952386328125,30.087063972534178L284.635586328125,28.58178597253418L267.010986328125,44.00032497253418L267.010986328125,29.33442497253418L265.010986328125,29.33442497253418L265.010986328125,46.20382497253418L266.669419328125,46.95642497253418Z" fill-rule="evenodd" fill="#D6DCE8" fill-opacity="1"/></g><g><path d="M284.29400634765625,46.20382497253418L284.29400634765625,29.33442497253418L286.29400634765625,29.33442497253418L286.29400634765625,46.20382497253418L284.29400634765625,46.20382497253418Z" fill-rule="evenodd" fill="#D6DCE8" fill-opacity="1"/></g><g><path d="M285.4519958496094,215.11102416992188L306.15699584960936,215.11102416992188L307.15699584960936,214.11102416992188L307.15699584960936,10.573124169921876L306.84039584960937,9.843094169921875L296.5673958496094,0.225996169921875L295.20618584960937,0.220784169921875L284.7741888496094,9.837884169921875L284.4519958496094,10.573124169921876L284.4519958496094,214.11102416992188L285.4519958496094,215.11102416992188ZM305.15699584960936,213.11102416992188L286.4519958496094,213.11102416992188L286.4519958496094,11.011324169921876L295.8787958496094,2.3209441699218747L305.15699584960936,11.006824169921876L305.15699584960936,213.11102416992188Z" fill-rule="evenodd" fill="#D6DCE8" fill-opacity="1"/></g><g><path d="M306.15699584960936,12.676724433898926L285.4519958496094,12.676724433898926L285.4519958496094,10.676724433898926L306.15699584960936,10.676724433898926L306.15699584960936,12.676724433898926Z" fill-rule="evenodd" fill="#D6DCE8" fill-opacity="1"/></g><g><path d="M306.15699584960936,64.7037239074707L285.4519958496094,64.7037239074707L285.4519958496094,62.7037239074707L306.15699584960936,62.7037239074707L306.15699584960936,64.7037239074707Z" fill-rule="evenodd" fill="#D6DCE8" fill-opacity="1"/></g><g><path d="M306.15699584960936,81.41572570800781L285.4519958496094,81.41572570800781L285.4519958496094,79.41572570800781L306.15699584960936,79.41572570800781L306.15699584960936,81.41572570800781Z" fill-rule="evenodd" fill="#D6DCE8" fill-opacity="1"/></g><g><path d="M306.15699584960936,97.9697265625L285.4519958496094,97.9697265625L285.4519958496094,95.9697265625L306.15699584960936,95.9697265625L306.15699584960936,97.9697265625Z" fill-rule="evenodd" fill="#D6DCE8" fill-opacity="1"/></g><g><path d="M306.15699584960936,114.68172454833984L285.4519958496094,114.68172454833984L285.4519958496094,112.68172454833984L306.15699584960936,112.68172454833984L306.15699584960936,114.68172454833984Z" fill-rule="evenodd" fill="#D6DCE8" fill-opacity="1"/></g><g><path d="M306.15699584960936,131.3937225341797L285.4519958496094,131.3937225341797L285.4519958496094,129.3937225341797L306.15699584960936,129.3937225341797L306.15699584960936,131.3937225341797Z" fill-rule="evenodd" fill="#D6DCE8" fill-opacity="1"/></g><g><path d="M306.15699584960936,148.10472106933594L285.4519958496094,148.10472106933594L285.4519958496094,146.10472106933594L306.15699584960936,146.10472106933594L306.15699584960936,148.10472106933594Z" fill-rule="evenodd" fill="#D6DCE8" fill-opacity="1"/></g><g><path d="M306.15699584960936,164.65972900390625L285.4519958496094,164.65972900390625L285.4519958496094,162.65972900390625L306.15699584960936,162.65972900390625L306.15699584960936,164.65972900390625Z" fill-rule="evenodd" fill="#D6DCE8" fill-opacity="1"/></g><g><path d="M306.15699584960936,181.37171936035156L285.4519958496094,181.37171936035156L285.4519958496094,179.37171936035156L306.15699584960936,179.37171936035156L306.15699584960936,181.37171936035156Z" fill-rule="evenodd" fill="#D6DCE8" fill-opacity="1"/></g><g><path d="M306.15699584960936,198.0827178955078L285.4519958496094,198.0827178955078L285.4519958496094,196.0827178955078L306.15699584960936,196.0827178955078L306.15699584960936,198.0827178955078Z" fill-rule="evenodd" fill="#D6DCE8" fill-opacity="1"/></g><g><path d="M295.74489719238284,2.0447141699218747L339.1439971923828,28.767124169921875L340.1919971923828,27.064124169921875L296.4082971923828,0.10450116992187497L295.59069719238283,1.6992187501507772e-7L203.6007071923828,28.220824169921876L204.18728719238283,30.132824169921875L295.74489719238284,2.0447141699218747Z" fill-rule="evenodd" fill="#D6DCE8" fill-opacity="1"/></g><g><path d="M306.80640634765626,29.148589465942383L285.94338534765626,46.96402446594239L284.64462734765624,45.443024465942386L305.50760634765624,27.627659465942383L306.80640634765626,29.148589465942383Z" fill-rule="evenodd" fill="#D6DCE8" fill-opacity="1"/></g><g><path d="M306.1629948730469,47.60464824414063L286.56401087304687,63.84372524414063L285.2879788730469,62.30372524414062L304.8869948730469,46.06460224414062L306.1629948730469,47.60464824414063Z" fill-rule="evenodd" fill="#D6DCE8" fill-opacity="1"/></g><g><path d="M306.14870537109374,12.773560285888673L286.39173937109376,28.53932428588867L285.14427137109374,26.976124285888673L304.90130537109377,11.210288285888671L306.14870537109374,12.773560285888673Z" fill-rule="evenodd" fill="#D6DCE8" fill-opacity="1"/></g><g><path d="M324.114898046875,29.072767465942384L307.676877046875,46.57282446594238L306.219119046875,45.20362446594238L322.657098046875,27.70348146594238L324.114898046875,29.072767465942384Z" fill-rule="evenodd" fill="#D6DCE8" fill-opacity="1"/></g><g><path d="M345.22510439453123,29.14193546594238L325.14909539453123,46.642024465942384L323.83491339453127,45.13442446594239L343.91090439453126,27.634313465942384L345.22510439453123,29.14193546594238Z" fill-rule="evenodd" fill="#D6DCE8" fill-opacity="1"/></g><g><path d="M266.0451958496094,29.92247048022461L247.86822484960936,46.161223480224606L246.5357668496094,44.66982348022461L264.7127958496094,28.430976480224608L266.0451958496094,29.92247048022461Z" fill-rule="evenodd" fill="#D6DCE8" fill-opacity="1"/></g><g><path d="M305.9929948730469,64.9565114802246L286.55203887304685,80.56452348022461L285.2999508730469,79.0049234802246L304.7409948730469,63.396935480224606L305.9929948730469,64.9565114802246Z" fill-rule="evenodd" fill="#D6DCE8" fill-opacity="1"/></g><g><path d="M305.9852948730469,81.83268841210938L286.54426487304687,97.12572241210938L285.3077248730469,95.55372241210938L304.7486948730469,80.26075641210937L305.9852948730469,81.83268841210938Z" fill-rule="evenodd" fill="#D6DCE8" fill-opacity="1"/></g><g><path d="M306.14409487304687,98.38605226660157L286.5450738730469,113.83602326660156L285.3069158730469,112.26542326660156L304.90589487304686,96.81539426660156L306.14409487304687,98.38605226660157Z" fill-rule="evenodd" fill="#D6DCE8" fill-opacity="1"/></g><g><path d="M306.1401948730469,115.2591160131836L286.5411708730469,130.5521260131836L285.31081887304686,128.9753260131836L304.90979487304685,113.68233601318359L306.1401948730469,115.2591160131836Z" fill-rule="evenodd" fill="#D6DCE8" fill-opacity="1"/></g><g><path d="M306.1401948730469,131.81211741699218L286.5411708730469,147.1051274169922L285.31081887304686,145.5283274169922L304.90979487304685,130.2353374169922L306.1401948730469,131.81211741699218Z" fill-rule="evenodd" fill="#D6DCE8" fill-opacity="1"/></g><g><path d="M306.14409487304687,148.36404909277343L286.5450738730469,163.81402009277343L285.3069158730469,162.24342009277345L304.90589487304686,146.79339109277345L306.14409487304687,148.36404909277343Z" fill-rule="evenodd" fill="#D6DCE8" fill-opacity="1"/></g><g><path d="M306.14409487304687,165.07603470800782L286.54509887304687,180.5270257080078L285.3068908730469,178.9564257080078L304.90589487304686,163.5054167080078L306.14409487304687,165.07603470800782Z" fill-rule="evenodd" fill="#D6DCE8" fill-opacity="1"/></g><g><path d="M306.14409487304687,181.78703324316407L286.54509887304687,197.23802424316406L285.3068908730469,195.66742424316405L304.90589487304686,180.21641524316405L306.14409487304687,181.78703324316407Z" fill-rule="evenodd" fill="#D6DCE8" fill-opacity="1"/></g><g><path d="M306.1401948730469,198.66010936035156L286.5411708730469,213.95311936035156L285.31081887304686,212.37631936035157L304.90979487304685,197.08332936035157L306.1401948730469,198.66010936035156Z" fill-rule="evenodd" fill="#D6DCE8" fill-opacity="1"/></g><g><path d="M318.1699919433594,213.95272827148438L273.5979919433594,213.95272827148438L273.5979919433594,221.99372827148437L318.1699919433594,221.99372827148437L318.1699919433594,213.95272827148438Z" fill="#F1F3F9" fill-opacity="1"/><path d="M272.5979919433594,221.99372827148437L272.5979919433594,213.95272827148438L273.5979919433594,212.95272827148438L318.1699919433594,212.95272827148438L319.1699919433594,213.95272827148438L319.1699919433594,221.99372827148437L318.1699919433594,222.99372827148437L273.5979919433594,222.99372827148437L272.5979919433594,221.99372827148437ZM317.1699919433594,214.95272827148438L274.5979919433594,214.95272827148438L274.5979919433594,220.99372827148437L317.1699919433594,220.99372827148437L317.1699919433594,214.95272827148438Z" fill-rule="evenodd" fill="#D6DCE8" fill-opacity="1"/></g><g><path d="M120.59799932861328,180.84472344970703L100.99899932861328,180.84472344970703C99.41799932861328,180.84472344970703,98.15399932861328,179.58372344970704,98.15399932861328,178.006723449707L98.15399932861328,102.64672344970703C98.15399932861328,101.06972344970703,99.41799932861328,99.80872344970703,100.99899932861328,99.80872344970703L120.59799932861328,99.80872344970703C122.17899932861329,99.80872344970703,123.44299932861328,101.06972344970703,123.44299932861328,102.64672344970703L123.44299932861328,178.006723449707C123.44299932861328,179.58372344970704,122.17899932861329,180.84472344970703,120.59799932861328,180.84472344970703Z" fill="#F1F3F9" fill-opacity="1"/></g><g><path d="M115.53999920654297,110.21372650146485Q115.53999920654297,110.32984650146484,115.53428920654297,110.44581650146485Q115.52857920654297,110.56179650146484,115.51716920654297,110.67734650146484Q115.50575920654296,110.79290650146484,115.48867920654297,110.90775650146485Q115.47159920654298,111.02261650146484,115.44888920654297,111.13650650146485Q115.42618920654297,111.25038650146485,115.39789920654297,111.36302650146484Q115.36961920654296,111.47565650146484,115.33582920654297,111.58677650146484Q115.30203920654297,111.69788650146484,115.26282920654297,111.80721650146484Q115.22361920654296,111.91654650146485,115.17906920654298,112.02381650146485Q115.13452920654296,112.13109650146484,115.08475920654297,112.23605650146484Q115.03499920654296,112.34102650146484,114.98012920654297,112.44343650146484Q114.92525920654296,112.54583650146485,114.86541920654297,112.64542650146484Q114.80557920654297,112.74502650146485,114.74090920654297,112.84157650146484Q114.67623920654297,112.93811650146485,114.60690920654297,113.03138650146484Q114.53756920654297,113.12464650146484,114.46372920654296,113.21440650146485Q114.38988920654297,113.30416650146485,114.31171920654297,113.39019650146484Q114.23354920654297,113.47623650146484,114.15124920654297,113.55833650146485Q114.06893920654296,113.64044650146485,113.98269920654297,113.71842650146485Q113.89644920654297,113.79640650146484,113.80647920654297,113.87006650146485Q113.71649920654296,113.94372650146485,113.62300920654297,114.01289650146484Q113.52951920654297,114.08206650146485,113.43273920654298,114.14657650146485Q113.33594920654296,114.21108650146485,113.23611920654297,114.27078650146484Q113.13627920654297,114.33047650146484,113.03362920654297,114.38521650146484Q112.93096920654297,114.43994650146485,112.82574920654297,114.48959650146485Q112.72052920654296,114.53924650146485,112.61298920654296,114.58367650146485Q112.50545920654297,114.62811650146485,112.39585920654297,114.66722650146484Q112.28626920654297,114.70634650146485,112.17487920654297,114.74005650146485Q112.06349920654297,114.77375650146485,111.95058920654297,114.80197650146485Q111.83767920654297,114.83018650146485,111.72351920654297,114.85283650146485Q111.60935920654296,114.87549650146484,111.49421920654297,114.89252650146484Q111.37907920654297,114.90956650146484,111.26324920654297,114.92094650146484Q111.14740920654297,114.93233650146485,111.03114920654296,114.93802650146485Q110.91489920654297,114.94372650146485,110.79849920654297,114.94372650146485Q110.68209920654297,114.94372650146485,110.56584920654296,114.93802650146485Q110.44958920654297,114.93233650146485,110.33374920654296,114.92094650146484Q110.21790920654297,114.90956650146484,110.10277920654296,114.89252650146484Q109.98763920654297,114.87549650146484,109.87347920654297,114.85283650146485Q109.75931920654297,114.83018650146485,109.64640920654297,114.80197650146485Q109.53349920654297,114.77375650146485,109.42210920654297,114.74005650146485Q109.31072920654297,114.70634650146485,109.20113920654296,114.66722650146484Q109.09153920654296,114.62811650146485,108.98400920654296,114.58367650146485Q108.87646920654296,114.53924650146485,108.77124920654296,114.48959650146485Q108.66602920654297,114.43994650146485,108.56336920654297,114.38521650146484Q108.46071920654296,114.33047650146484,108.36087920654298,114.27078650146484Q108.26103920654297,114.21108650146485,108.16425920654297,114.14657650146485Q108.06747920654297,114.08206650146485,107.97398920654297,114.01289650146484Q107.88049920654296,113.94372650146485,107.79051920654297,113.87006650146485Q107.70054920654297,113.79640650146484,107.61429920654297,113.71842650146485Q107.52805920654296,113.64044650146485,107.44574920654297,113.55833650146485Q107.36344920654297,113.47623650146484,107.28527920654297,113.39019650146484Q107.20710920654297,113.30416650146485,107.13326920654296,113.21440650146485Q107.05942920654297,113.12464650146484,106.99009020654297,113.03138650146484Q106.92075220654297,112.93811650146485,106.85608620654297,112.84157650146484Q106.79141920654297,112.74502650146485,106.73157920654297,112.64542650146484Q106.67173920654297,112.54583650146485,106.61686920654297,112.44343650146484Q106.56200020654296,112.34102650146484,106.51223420654297,112.23606650146485Q106.46246720654297,112.13109650146484,106.41792420654296,112.02381650146485Q106.37338120654297,111.91654650146485,106.33416820654297,111.80721650146484Q106.29495520654297,111.69788650146484,106.26116620654297,111.58677650146484Q106.22737820654297,111.47565650146484,106.19909620654298,111.36302650146484Q106.17081420654297,111.25038650146485,106.14810580654297,111.13650650146485Q106.12539780654296,111.02261650146484,106.10831880654297,110.90775650146485Q106.09123970654296,110.79290650146484,106.07983080654297,110.67734650146484Q106.06842190654297,110.56178650146484,106.06271054654297,110.44581650146485Q106.05699920654297,110.32984650146484,106.05699920654297,110.21372650146485Q106.05699920654297,110.09760650146484,106.06271054654297,109.98163650146485Q106.06842190654297,109.86565650146484,106.07983080654297,109.75010650146484Q106.09123970654296,109.63454650146484,106.10831880654297,109.51968650146485Q106.12539780654296,109.40483650146484,106.14810580654297,109.29094650146484Q106.17081420654297,109.17706650146485,106.19909620654298,109.06442650146485Q106.22737820654297,108.95179650146484,106.26116620654297,108.84067650146484Q106.29495520654297,108.72956650146484,106.33416820654297,108.62023650146484Q106.37338120654297,108.51090650146485,106.41792420654296,108.40363650146485Q106.46246720654297,108.29635650146484,106.51223420654297,108.19138650146485Q106.56200020654296,108.08642650146484,106.61686920654297,107.98401650146485Q106.67173920654297,107.88161650146485,106.73157920654297,107.78201650146484Q106.79141920654297,107.68242650146485,106.85608620654297,107.58587650146484Q106.92075220654297,107.48933650146485,106.99009020654297,107.39606650146484Q107.05942920654297,107.30280650146484,107.13326920654296,107.21304650146485Q107.20710920654297,107.12328650146485,107.28527920654297,107.03725650146484Q107.36344920654297,106.95121650146484,107.44574920654297,106.86910650146484Q107.52805920654296,106.78700650146484,107.61429920654297,106.70902650146485Q107.70054920654297,106.63104650146484,107.79051920654297,106.55738650146485Q107.88049920654296,106.48372450146485,107.97398920654297,106.41455450146485Q108.06747920654297,106.34538550146485,108.16425920654297,106.28087550146485Q108.26103920654297,106.21636550146485,108.36087920654298,106.15667050146484Q108.46071920654296,106.09697550146484,108.56336920654297,106.04223850146484Q108.66602920654297,105.98750250146485,108.77124920654296,105.93785750146485Q108.87646920654296,105.88821150146484,108.98400920654296,105.84377650146484Q109.09153920654296,105.79934050146484,109.20113920654296,105.76022350146485Q109.31072920654297,105.72110550146485,109.42210920654297,105.68739850146484Q109.53349920654297,105.65369250146485,109.64640920654297,105.62547850146484Q109.75931920654297,105.59726550146485,109.87347920654297,105.57461210146484Q109.98763920654297,105.55195920146484,110.10277920654296,105.53492160146484Q110.21790920654297,105.51788400146485,110.33374920654296,105.50650270146484Q110.44958920654297,105.49512150146484,110.56584920654296,105.48942399146485Q110.68209920654297,105.48372650146484,110.79849920654297,105.48372650146484Q110.91489920654297,105.48372650146484,111.03114920654296,105.48942399146485Q111.14740920654297,105.49512150146484,111.26324920654297,105.50650270146484Q111.37907920654297,105.51788400146485,111.49421920654297,105.53492160146484Q111.60935920654296,105.55195920146484,111.72351920654297,105.57461210146484Q111.83767920654297,105.59726550146485,111.95058920654297,105.62547850146484Q112.06349920654297,105.65369250146485,112.17487920654297,105.68739850146484Q112.28626920654297,105.72110550146485,112.39585920654297,105.76022350146485Q112.50545920654297,105.79934050146484,112.61298920654296,105.84377650146484Q112.72052920654296,105.88821150146484,112.82574920654297,105.93785750146485Q112.93096920654297,105.98750250146485,113.03362920654297,106.04223850146484Q113.13627920654297,106.09697550146484,113.23611920654297,106.15667050146484Q113.33594920654296,106.21636550146485,113.43273920654298,106.28087550146485Q113.52951920654297,106.34538550146485,113.62300920654297,106.41455450146485Q113.71649920654296,106.48372450146485,113.80647920654297,106.55738650146485Q113.89644920654297,106.63104650146484,113.98269920654297,106.70902650146485Q114.06893920654296,106.78700650146484,114.15124920654297,106.86910650146484Q114.23354920654297,106.95121650146484,114.31171920654297,107.03725650146484Q114.38988920654297,107.12328650146485,114.46372920654296,107.21304650146485Q114.53756920654297,107.30280650146484,114.60690920654297,107.39606650146484Q114.67623920654297,107.48933650146485,114.74090920654297,107.58587650146484Q114.80557920654297,107.68242650146485,114.86541920654297,107.78201650146484Q114.92525920654296,107.88161650146485,114.98012920654297,107.98401650146485Q115.03499920654296,108.08642650146484,115.08475920654297,108.19138650146485Q115.13452920654296,108.29635650146484,115.17906920654298,108.40363650146485Q115.22361920654296,108.51090650146485,115.26282920654297,108.62023650146484Q115.30203920654297,108.72956650146484,115.33582920654297,108.84067650146484Q115.36961920654296,108.95179650146484,115.39789920654297,109.06442650146485Q115.42617920654297,109.17706650146485,115.44888920654297,109.29094650146484Q115.47159920654298,109.40483650146484,115.48867920654297,109.51968650146485Q115.50575920654296,109.63454650146484,115.51716920654297,109.75010650146484Q115.52857920654297,109.86565650146484,115.53428920654297,109.98163650146485Q115.53999920654297,110.09760650146484,115.53999920654297,110.21372650146485Z" fill="#D6DCE8" fill-opacity="1"/></g><g><path d="M119.1759985961914,121.88072131347656L102.42099859619141,121.88072131347656C102.10499859619141,121.88072131347656,101.9469985961914,121.72272131347657,101.9469985961914,121.40772131347656L101.9469985961914,120.14672131347656C101.9469985961914,119.83072131347656,102.10499859619141,119.67372131347656,102.42099859619141,119.67372131347656L119.0169985961914,119.67372131347656C119.3339985961914,119.67372131347656,119.49199859619141,119.83072131347656,119.49199859619141,120.14672131347656L119.49199859619141,121.40772131347656C119.64999859619141,121.72272131347657,119.3339985961914,121.88072131347656,119.1759985961914,121.88072131347656Z" fill="#D6DCE8" fill-opacity="1"/></g><g><path d="M119.1759985961914,128.50172351074218L102.42099859619141,128.50172351074218C102.10499859619141,128.50172351074218,101.9469985961914,128.3437235107422,101.9469985961914,128.0287235107422L101.9469985961914,126.76772351074219C101.9469985961914,126.45272351074219,102.10499859619141,126.29472351074219,102.42099859619141,126.29472351074219L119.0169985961914,126.29472351074219C119.3339985961914,126.29472351074219,119.49199859619141,126.45272351074219,119.49199859619141,126.76772351074219L119.49199859619141,128.0287235107422C119.64999859619141,128.3437235107422,119.3339985961914,128.50172351074218,119.1759985961914,128.50172351074218Z" fill="#D6DCE8" fill-opacity="1"/></g><g><path d="M119.1759985961914,135.12371752929687L102.42099859619141,135.12371752929687C102.10499859619141,135.12371752929687,101.9469985961914,134.9667175292969,101.9469985961914,134.65071752929688L101.9469985961914,133.3897175292969C101.9469985961914,133.07471752929686,102.10499859619141,132.91671752929688,102.42099859619141,132.91671752929688L119.0169985961914,132.91671752929688C119.3339985961914,132.91671752929688,119.49199859619141,133.07471752929686,119.49199859619141,133.3897175292969L119.49199859619141,134.65071752929688C119.64999859619141,134.9667175292969,119.3339985961914,135.12371752929687,119.1759985961914,135.12371752929687Z" fill="#D6DCE8" fill-opacity="1"/></g><g><path d="M119.1759985961914,141.90272448730468L102.42099859619141,141.90272448730468C102.10499859619141,141.90272448730468,101.9469985961914,141.7457244873047,101.9469985961914,141.4297244873047L101.9469985961914,140.1687244873047C101.9469985961914,139.85372448730467,102.10499859619141,139.6957244873047,102.42099859619141,139.6957244873047L119.0169985961914,139.6957244873047C119.3339985961914,139.6957244873047,119.49199859619141,139.85372448730467,119.49199859619141,140.1687244873047L119.49199859619141,141.4297244873047C119.64999859619141,141.58772448730468,119.3339985961914,141.90272448730468,119.1759985961914,141.90272448730468Z" fill="#D6DCE8" fill-opacity="1"/></g><g><path d="M119.1759985961914,148.52471850585937L102.42099859619141,148.52471850585937C102.10499859619141,148.52471850585937,101.9469985961914,148.36671850585938,101.9469985961914,148.05171850585938L101.9469985961914,146.7907185058594C101.9469985961914,146.47471850585939,102.10499859619141,146.31771850585938,102.42099859619141,146.31771850585938L119.0169985961914,146.31771850585938C119.3339985961914,146.31771850585938,119.49199859619141,146.47471850585939,119.49199859619141,146.7907185058594L119.49199859619141,148.05171850585938C119.64999859619141,148.20971850585937,119.3339985961914,148.52471850585937,119.1759985961914,148.52471850585937Z" fill="#D6DCE8" fill-opacity="1"/></g><g><path d="M119.1759985961914,155.145720703125L102.42099859619141,155.145720703125C102.10499859619141,155.145720703125,101.9469985961914,154.988720703125,101.9469985961914,154.672720703125L101.9469985961914,153.411720703125C101.9469985961914,153.096720703125,102.10499859619141,152.938720703125,102.42099859619141,152.938720703125L119.0169985961914,152.938720703125C119.3339985961914,152.938720703125,119.49199859619141,153.096720703125,119.49199859619141,153.411720703125L119.49199859619141,154.672720703125C119.64999859619141,154.988720703125,119.3339985961914,155.145720703125,119.1759985961914,155.145720703125Z" fill="#D6DCE8" fill-opacity="1"/></g><g><path d="M116.17300170898437,161.76772998046874L105.58300170898437,161.76772998046874C105.26700170898438,161.76772998046874,105.10800170898438,161.61072998046876,105.10800170898438,161.29472998046876L105.10800170898438,160.03372998046876C105.10800170898438,159.71872998046874,105.26700170898438,159.56072998046875,105.58300170898437,159.56072998046875L116.17300170898437,159.56072998046875C116.48900170898438,159.56072998046875,116.64700170898438,159.71872998046874,116.64700170898438,160.03372998046876L116.64700170898438,161.29472998046876C116.64700170898438,161.61072998046876,116.33100170898437,161.76772998046874,116.17300170898437,161.76772998046874Z" fill="#D6DCE8" fill-opacity="1"/></g><g><path d="M179.5540050048828,169.4927215576172L137.3520050048828,169.4927215576172L137.3520050048828,171.8577215576172L179.5540050048828,171.8577215576172L179.5540050048828,169.4927215576172Z" fill="#D6DCE8" fill-opacity="1"/></g><g><path d="M160.27100500488282,175.7997283935547L137.3520050048828,175.7997283935547L137.3520050048828,178.1637283935547L160.27100500488282,178.1637283935547L160.27100500488282,175.7997283935547Z" fill="#D6DCE8" fill-opacity="1"/></g><g><path d="M230.29000451660156,169.4927215576172L188.08900451660156,169.4927215576172L188.08900451660156,171.8577215576172L230.29000451660156,171.8577215576172L230.29000451660156,169.4927215576172Z" fill="#D6DCE8" fill-opacity="1"/></g><g><path d="M211.00700451660157,175.7997283935547L188.08900451660156,175.7997283935547L188.08900451660156,178.1637283935547L211.00700451660157,178.1637283935547L211.00700451660157,175.7997283935547Z" fill="#D6DCE8" fill-opacity="1"/></g><g><path d="M192.38340231933594,88.08298053222656L218.13440231933595,102.93502053222656L219.13360231933592,101.20252053222656L193.40070231933595,86.36091353222656Q189.90500231933595,84.14955053222656,185.84940231933592,85.01323753222657L152.39834131933594,91.65186053222656L152.78766331933593,93.61360053222656L186.24570231933595,86.97360053222656L186.25990231933594,86.97066053222656Q189.53060231933594,86.27199653222657,192.34680231933595,88.06084053222656L192.38340231933594,88.08298053222656Z" fill-rule="evenodd" fill="#AAB2C5" fill-opacity="1"/></g><g style="opacity:0.10000000149011612;"><path d="M221.26202397460938,183.69877065429688L136.51200397460937,170.94367065429688C133.88400397460939,170.5936706542969,132.13200197460938,168.14767065429686,132.48300207460937,165.52667065429688L141.06600397460937,104.54372065429688C141.41700397460937,101.92272065429688,143.86902397460938,100.17572165429688,146.49702397460936,100.52572135429688L231.24702397460936,113.28077065429687C233.8753239746094,113.63077065429687,235.62632397460936,116.07677065429688,235.27632397460937,118.69777065429687L226.69202397460936,179.67967065429687C226.3420239746094,182.12677065429688,223.8900239746094,184.04877065429687,221.26202397460938,183.69877065429688Z" fill="#3B589D" fill-opacity="1"/></g><g><path d="M218.26603540039062,172.4867097290039L133.51599540039064,159.7307097290039C130.88799540039062,159.3817097290039,129.13699940039064,156.93570972900392,129.48699900039063,154.3147097290039L138.07099540039061,93.33172972900391C138.42099540039064,90.7107297290039,140.87303540039062,88.96372572900391,143.50103540039063,89.3127252290039L228.2510354003906,102.0687097290039C230.87853540039063,102.41870972900391,232.6305354003906,104.8647097290039,232.2795354003906,107.4857097290039L223.69703540039063,168.4677097290039C223.34603540039063,170.91370972900393,220.89403540039064,172.8367097290039,218.26603540039062,172.4867097290039Z" fill="#FFFFFF" fill-opacity="1"/><path d="M224.68723540039062,168.60710972900392L233.27053540039063,107.62510972900391L233.27153540039063,107.6184097290039Q233.58953540039062,105.23940972900391,232.1885354003906,103.33320972900391Q230.7655354003906,101.3980097290039,228.39173540039064,101.0786097290039L143.64983540039063,88.3238637290039L143.63263540039063,88.32142872900391Q141.25013540039063,88.00502972900391,139.34132540039062,89.4013807290039Q137.39854540039062,90.82259972900391,137.08029540039064,93.19566972900391L137.07977540039062,93.1993597290039L128.49676140039062,154.1753097290039L128.49579640039062,154.1824097290039Q128.17809540039062,156.5615097290039,129.57905440039062,158.4670097290039Q131.00181540039063,160.4023097290039,133.3753354003906,160.72080972900392L218.11713540039062,173.4756097290039L218.13403540039064,173.4780097290039Q220.49043540039062,173.7918097290039,222.43733540039062,172.32430972900391Q224.36203540039062,170.8735097290039,224.68683540039063,168.6098097290039L224.68723540039062,168.60710972900392ZM231.2895354003906,107.3463097290039Q231.4985354003906,105.77120972900391,230.57653540039064,104.5179097290039Q229.65553540039062,103.26460972900391,228.11893540039063,103.06000972900391L228.10213540039064,103.0576097290039L143.36113540039062,90.30294972900391Q141.77963540039062,90.0957087290039,140.52213540039062,91.0155697290039Q139.26650540039063,91.9341397290039,139.0622054003906,93.4640897290039L139.06123540039061,93.4711097290039L130.4782254003906,154.4471097290039L130.4772354003906,154.4541097290039Q130.26931840039063,156.0295097290039,131.19044540039062,157.28240972900392Q132.11166540039062,158.5354097290039,133.64764540039062,158.7394097290039L133.66483540039061,158.7419097290039L218.40583540039063,171.4965097290039Q219.94473540039064,171.69860972900392,221.23343540039062,170.7272097290039Q222.49833540039063,169.7737097290039,222.70673540039064,168.3284097290039L222.70713540039063,168.3257097290039L231.28853540039063,107.3530097290039L231.2895354003906,107.3463097290039L231.2895354003906,107.3463097290039Z" fill-rule="evenodd" fill="#D6DCE8" fill-opacity="1"/></g><g><path d="M215.49100583496096,165.5466760131836L139.73100583496094,153.7446760131836C137.59000583496095,153.45967601318358,136.16200083496093,151.4656760131836,136.44800123496094,149.3296760131836L143.44400583496093,99.6257260131836C143.72900583496093,97.4897260131836,145.72800583496092,96.06572201318359,147.87000583496095,96.3507220131836L223.62900583496094,108.1526760131836C225.77100583496093,108.43767601318359,227.19900583496093,110.43167601318359,226.91300583496093,112.56767601318359L219.91700583496095,162.2716760131836C219.63200583496092,164.2656760131836,217.63300583496095,165.8316760131836,215.49100583496096,165.5466760131836Z" fill="#F1F3F9" fill-opacity="1"/></g><g><path d="M262.850001953125,61.49772496948242L274.704001953125,73.32172496948242C275.494001953125,74.10972496948241,276.601001953125,74.58272496948243,277.549001953125,74.58272496948243L307.264001953125,74.58272496948243L307.264001953125,46.83512496948242L261.427001953125,46.83512496948242L261.427001953125,58.501724969482424C261.743001953125,59.76272496948242,262.060001953125,60.70872496948242,262.850001953125,61.49772496948242Z" fill="#F1F3F9" fill-opacity="1"/><path d="M307.264001953125,75.58272496948243L308.264001953125,74.58272496948243L308.264001953125,46.83512496948242L307.264001953125,45.83512496948242L261.427001953125,45.83512496948242L260.427001953125,46.83512496948242L260.427001953125,58.501724969482424L260.456994953125,58.74482496948242Q261.050711953125,61.11402496948242,262.143342953125,62.20532496948242L262.143791953125,62.20572496948242L273.997801953125,74.02972496948243Q275.554701953125,75.58272496948243,277.549001953125,75.58272496948243L307.264001953125,75.58272496948243ZM306.264001953125,73.58272496948243L306.264001953125,47.83512496948242L262.427001953125,47.83512496948242L262.427001953125,58.37612496948242Q262.878591953125,60.11252496948242,263.556211953125,60.78972496948242L263.556661953125,60.79012496948242L275.410201953125,72.61372496948242Q276.381701953125,73.58272496948243,277.549001953125,73.58272496948243L306.264001953125,73.58272496948243Z" fill-rule="evenodd" fill="#D6DCE8" fill-opacity="1"/></g><g><path d="M288.5920104980469,59.43072391357422L302.50101049804687,59.43072391357422L302.50101049804687,51.38982391357422L288.5920104980469,51.38982391357422L288.5920104980469,59.43072391357422Z" fill="#FFFFFF" fill-opacity="1"/><path d="M287.5920104980469,59.43072391357422L287.5920104980469,51.38982391357422L288.5920104980469,50.38982391357422L302.50101049804687,50.38982391357422L303.50101049804687,51.38982391357422L303.50101049804687,59.43072391357422L302.50101049804687,60.43072391357422L288.5920104980469,60.43072391357422L287.5920104980469,59.43072391357422ZM301.50101049804687,52.38982391357422L289.5920104980469,52.38982391357422L289.5920104980469,58.43072391357422L301.50101049804687,58.43072391357422L301.50101049804687,52.38982391357422Z" fill-rule="evenodd" fill="#D6DCE8" fill-opacity="1"/></g><g><path d="M270.6109924316406,59.43072391357422L284.5199924316406,59.43072391357422L284.5199924316406,51.38982391357422L270.6109924316406,51.38982391357422L270.6109924316406,59.43072391357422Z" fill="#FFFFFF" fill-opacity="1"/><path d="M269.6109924316406,59.43072391357422L269.6109924316406,51.38982391357422L270.6109924316406,50.38982391357422L284.5199924316406,50.38982391357422L285.5199924316406,51.38982391357422L285.5199924316406,59.43072391357422L284.5199924316406,60.43072391357422L270.6109924316406,60.43072391357422L269.6109924316406,59.43072391357422ZM283.5199924316406,52.38982391357422L271.6109924316406,52.38982391357422L271.6109924316406,58.43072391357422L283.5199924316406,58.43072391357422L283.5199924316406,52.38982391357422Z" fill-rule="evenodd" fill="#D6DCE8" fill-opacity="1"/></g><g><path d="M389.418,242.25473022460938L0,242.25473022460938L0,239.25473022460938L389.418,239.25473022460938L389.418,242.25473022460938Z" fill-rule="evenodd" fill="#CDD6E1" fill-opacity="1"/></g><g><path d="M134.65700024414062,239.49372729492188L113.31900024414062,239.49372729492188L114.26800024414062,237.12972729492188L116.48100024414063,231.13872729492186L118.37700024414062,225.9357272949219L120.59000024414063,219.94472729492188L122.17100024414063,215.8457272949219C122.48700024414063,215.05672729492187,123.27700024414062,214.42672729492188,124.06700024414063,214.42672729492188C124.85800024414063,214.42672729492188,125.64800024414063,214.8997272949219,125.96400024414062,215.8457272949219L127.54500024414062,219.94472729492188L129.7570002441406,225.9357272949219L131.65400024414063,231.13872729492186L133.86700024414063,237.12972729492188L134.65700024414062,239.49372729492188Z" fill="#FFFFFF" fill-opacity="1"/><path d="M111.83999024414062,240.49372729492188L136.0455002441406,240.49372729492188L134.81050024414063,236.79792729492186L132.5935002441406,230.79622729492186L130.69510024414063,225.58932729492187L128.47800024414062,219.58486729492188L126.90480024414063,215.50595729492187Q126.19850024414063,213.42672729492188,124.06700024414063,213.42672729492188Q122.06261024414063,213.42672729492188,121.23799024414062,215.4858672949219L119.65195024414062,219.59822729492188L117.43744024414062,225.59332729492186L115.54295024414063,230.79222729492187L113.33478574414063,236.77012729492188L111.83999024414062,240.49372729492188ZM133.26850024414063,238.49372729492188L114.79801024414063,238.49372729492188L115.20121024414063,237.48932729492188L117.41905024414062,231.48522729492188L119.31656024414062,226.2781272949219L121.52805024414063,220.29122729492187L123.10401024414062,216.20558729492188Q123.41600024414062,215.42672729492188,124.06700024414063,215.42672729492188Q124.76970024414062,215.42672729492188,125.01550024414063,216.16255729492187L125.02280024414063,216.18424729492187L126.61200024414063,220.30458729492187L128.81890024414062,226.28212729492188L130.71450024414062,231.48122729492187L132.92350024414063,237.46152729492186L133.26850024414063,238.49372729492188Z" fill-rule="evenodd" fill="#D6DCE8" fill-opacity="1"/></g><g><path d="M129.76299938964843,225.93572216796875L118.38999938964844,225.93572216796875L120.52699938964844,220.10272216796875L127.59499938964844,220.10272216796875L129.76299938964843,225.93572216796875Z" fill="#D6DCE8" fill-opacity="1"/></g><g><path d="M133.86000158691405,237.12971765136717L114.26100158691406,237.12971765136717L116.47400158691406,231.1387176513672L131.64700158691406,231.1387176513672L133.86000158691405,237.12971765136717Z" fill="#D6DCE8" fill-opacity="1"/></g><g><path d="M134.65700317382812,239.49472546386718L113.16100317382812,239.49472546386718C112.52900317382813,239.49472546386718,111.89700317382812,239.0217254638672,111.89700317382812,238.23272546386718C111.89700317382812,237.6027254638672,112.37100317382813,236.9717254638672,113.16100317382812,236.9717254638672L134.65700317382812,236.9717254638672C135.28900317382812,236.9717254638672,135.92200317382813,237.4447254638672,135.92200317382813,238.23272546386718C135.92200317382813,239.0217254638672,135.44700317382814,239.49472546386718,134.65700317382812,239.49472546386718Z" fill="#FFFFFF" fill-opacity="1"/><path d="M136.29180317382813,239.86772546386717Q136.92200317382813,239.2393754638672,136.92200317382813,238.23272546386718Q136.92200317382813,237.2271494638672,136.20100317382813,236.5684424638672Q135.54780317382813,235.9717254638672,134.65700317382812,235.9717254638672L113.16100317382812,235.9717254638672Q112.15563917382812,235.9717254638672,111.49631017382812,236.68947546386718Q110.89700317382812,237.34188646386718,110.89700317382812,238.23272546386718Q110.89700317382812,239.2385554638672,111.61691317382812,239.8973354638672Q112.26973717382812,240.49472546386718,113.16100317382812,240.49472546386718L134.65700317382812,240.49472546386718Q135.66300317382812,240.49472546386718,136.29180317382813,239.86772546386717ZM134.65700317382812,237.9717254638672Q134.92200317382813,237.9717254638672,134.92200317382813,238.23272546386718Q134.92200317382813,238.4092554638672,134.87970317382812,238.45147546386718Q134.83630317382813,238.49472546386718,134.65700317382812,238.49472546386718L113.16100317382812,238.49472546386718Q113.04671317382812,238.49472546386718,112.96709317382812,238.4218654638672Q112.89700317382812,238.35772546386718,112.89700317382812,238.23272546386718Q112.89700317382812,238.12106546386718,112.96919317382813,238.0424754638672Q113.03418317382813,237.9717254638672,113.16100317382812,237.9717254638672L134.65700317382812,237.9717254638672Z" fill-rule="evenodd" fill="#D6DCE8" fill-opacity="1"/></g><g><path d="M251.588,239.49372729492188L230.25,239.49372729492188L231.198,237.12972729492188L233.411,231.13872729492186L235.308,225.9357272949219L237.521,219.94472729492188L239.101,215.8457272949219C239.417,215.05672729492187,240.208,214.42672729492188,240.998,214.42672729492188C241.788,214.42672729492188,242.579,214.8997272949219,242.895,215.8457272949219L244.475,219.94472729492188L246.688,225.9357272949219L248.585,231.13872729492186L250.798,237.12972729492188L251.588,239.49372729492188Z" fill="#FFFFFF" fill-opacity="1"/><path d="M228.77157,240.49372729492188L252.9765,240.49372729492188L251.7415,236.79792729492186L249.5245,230.79622729492186L247.626,225.58922729492187L245.4081,219.58505729492188L243.8358,215.50606729492188Q243.1296,213.42672729492188,240.998,213.42672729492188Q238.9926,213.42672729492188,238.16792,215.48605729492186L236.58295,219.59822729492188L234.3685,225.59322729492186L232.47295,230.79222729492187L230.2647247,236.77032729492188L228.77157,240.49372729492188ZM250.1995,238.49372729492188L231.72843,238.49372729492188L232.13128,237.48912729492187L234.34905,231.48522729492188L236.2475,226.27822729492186L238.45905,220.29122729492187L240.03408,216.20539729492188Q240.346,215.42672729492188,240.998,215.42672729492188Q241.7007,215.42672729492188,241.94650000000001,216.16255729492187L241.9537,216.18414729492187L243.5419,220.30439729492187L245.75,226.28222729492188L247.6455,231.48122729492187L249.8545,237.46152729492186L250.1995,238.49372729492188Z" fill-rule="evenodd" fill="#D6DCE8" fill-opacity="1"/></g><g><path d="M246.6939991455078,225.93572216796875L235.3209991455078,225.93572216796875L237.4579991455078,220.10272216796875L244.52599914550783,220.10272216796875L246.6939991455078,225.93572216796875Z" fill="#D6DCE8" fill-opacity="1"/></g><g><path d="M250.79100134277343,237.12971765136717L231.19200134277344,237.12971765136717L233.40400134277343,231.1387176513672L248.57800134277343,231.1387176513672L250.79100134277343,237.12971765136717Z" fill="#D6DCE8" fill-opacity="1"/></g><g><path d="M251.58799584960937,239.49472546386718L230.09199584960936,239.49472546386718C229.45999584960938,239.49472546386718,228.82699584960938,239.0217254638672,228.82699584960938,238.23272546386718C228.82699584960938,237.6027254638672,229.30199584960937,236.9717254638672,230.09199584960936,236.9717254638672L251.58799584960937,236.9717254638672C252.21999584960938,236.9717254638672,252.85199584960938,237.4447254638672,252.85199584960938,238.23272546386718C252.85199584960938,239.0217254638672,252.37799584960936,239.49472546386718,251.58799584960937,239.49472546386718Z" fill="#FFFFFF" fill-opacity="1"/><path d="M253.22269584960938,239.8673154638672Q253.85199584960938,239.23914546386717,253.85199584960938,238.23272546386718Q253.85199584960938,237.22739046386718,253.13189584960938,236.5687964638672Q252.47899584960936,235.9717254638672,251.58799584960937,235.9717254638672L230.09199584960936,235.9717254638672Q229.08688984960938,235.9717254638672,228.4271908496094,236.6890534638672Q227.82699584960938,237.3416794638672,227.82699584960938,238.23272546386718Q227.82699584960938,239.23879546386718,228.54779284960938,239.8976954638672Q229.20091884960937,240.49472546386718,230.09199584960936,240.49472546386718L251.58799584960937,240.49472546386718Q252.59429584960938,240.49472546386718,253.22269584960938,239.8673154638672ZM251.58799584960937,237.9717254638672Q251.85199584960938,237.9717254638672,251.85199584960938,238.23272546386718Q251.85199584960938,238.4097154638672,251.80979584960937,238.4518854638672Q251.76679584960937,238.49472546386718,251.58799584960937,238.49472546386718L230.09199584960936,238.49472546386718Q229.97729584960936,238.49472546386718,229.89719584960937,238.4215154638672Q229.82699584960938,238.3573354638672,229.82699584960938,238.23272546386718Q229.82699584960938,238.12151546386718,229.89930584960936,238.04289546386718Q229.9647558496094,237.9717254638672,230.09199584960936,237.9717254638672L251.58799584960937,237.9717254638672Z" fill-rule="evenodd" fill="#D6DCE8" fill-opacity="1"/></g><g><path d="M164.78300576660158,132.7807253149414C167.02100576660158,133.1197253149414,169.20200576660156,131.5177253149414,169.54200576660156,129.2857253149414C169.88200576660157,127.0537253149414,168.27600576660157,124.87772731494141,166.03800576660157,124.5387269149414C163.80100576660158,124.19972731494141,161.61900576660156,125.8007253149414,161.27900596660157,128.0337253149414C160.93900576660155,130.2657253149414,162.54500576660155,132.4417253149414,164.78300576660158,132.7807253149414Z" fill="#AAB2C5" fill-opacity="1"/></g><g><path d="M196.45700606933593,137.5817278173828C198.69500606933593,137.9207278173828,200.87600606933594,136.3187278173828,201.21600606933595,134.0867278173828C201.55600606933595,131.8547278173828,199.95100606933593,129.67872981738282,197.71300606933593,129.3397294173828C195.47500606933593,129.00072981738282,193.29400406933593,130.60172781738282,192.95300416933594,132.8347278173828C192.58700406933593,135.23872781738282,194.21900606933593,137.24272781738281,196.45700606933593,137.5817278173828Z" fill="#AAB2C5" fill-opacity="1"/></g><g><path d="M167.32600439453125,115.00072479248047L157.49200439453125,118.51772479248046L158.37400439453126,120.97072479248047L168.20800439453126,117.45272479248047L167.32600439453125,115.00072479248047Z" fill="#AAB2C5" fill-opacity="1"/></g><g><path d="M198.60999438476563,119.67672729492188L197.03799438476562,121.75672729492187L205.38199438476562,128.02872729492188L206.95399438476562,125.94772729492188L198.60999438476563,119.67672729492188Z" fill="#AAB2C5" fill-opacity="1"/></g><g><path d="M179.15500225097657,144.79671951660157C181.81700225097657,145.19971951660156,184.22100225097657,143.91271951660156,184.52400225097657,141.92171951660157C184.82800225097657,139.92971951660155,182.91600225097656,137.98871951660155,180.25400225097655,137.58471961660157C177.59200225097655,137.18171951660156,175.18800425097658,138.46871951660157,174.88400425097657,140.45971951660155C174.58100425097658,142.45171951660157,176.49300225097656,144.39271951660157,179.15500225097657,144.79671951660157Z" fill="#AAB2C5" fill-opacity="1"/></g><g><path d="M331.46200006103516,257.35272216796875L121.48600006103516,257.35272216796875L121.48600006103516,254.35272216796875L331.46200006103516,254.35272216796875L331.46200006103516,257.35272216796875Z" fill-rule="evenodd" fill="#CDD6E1" fill-opacity="1"/></g><g><path d="M79.72499917602539,257.35272216796875L53.18899917602539,257.35272216796875L53.18899917602539,254.35272216796875L79.72499917602539,254.35272216796875L79.72499917602539,257.35272216796875Z" fill-rule="evenodd" fill="#CDD6E1" fill-opacity="1"/></g></g></svg>
