<svg t="1687310873132" class="icon" viewBox="0 0 1024 1024" version="1.1" xmlns="http://www.w3.org/2000/svg" p-id="1974"
     id="mx_n_1687310873133" width="16" height="16">
    <path d="M512.88 64c4.96 0 10.432 1.392 16.8 3.888l6.672 2.864 7.344 3.52 16.96 8.896 20.528 10.88 11.776 6.016 12.896 6.352 14.08 6.608c7.36 3.36 15.2 6.784 23.536 10.24l17.392 6.976c9.056 3.52 18.656 7.04 28.848 10.528l13.408 4.448 7.104 2.048 8.496 2.224 15.392 3.632 18.528 4.032 21.712 4.416 43.184 8.224 51.968 9.296A32 32 0 0 1 896 210.608v368.768a256 256 0 0 1-74.24 180.256c-7.152 7.216-14.224 14.24-21.216 21.072l-20.704 19.904C667.392 906.88 578.4 960 512.88 960c-67.488 0-160.24-56.368-278.24-169.12l-21.088-20.48-10.736-10.672A256 256 0 0 1 128 578.864V210.672a32 32 0 0 1 26.56-31.52l63.872-11.36 35.008-6.704 28.96-5.968 12.192-2.72 15.488-3.76 12.064-3.36a761.44 761.44 0 0 0 68.88-25.792l15.6-6.944 7.312-3.408 13.728-6.656 12.56-6.336 35.872-18.88 8.224-4.16 7.456-3.44c8.288-3.6 15.152-5.664 21.104-5.664z m36.816 85.792L512.832 130.4l-5.168 2.592-16.064 8.448c-41.328 21.984-67.152 34.432-105.808 49.28-13.072 5.024-26.544 9.808-40.48 14.368l-8.464 2.576-10.032 2.736-11.632 2.88-20.528 4.656-15.744 3.312-17.44 3.488-19.12 3.68-20.848 3.872-29.504 5.28v341.296a192 192 0 0 0 49.92 129.168l6.192 6.48 19.504 19.264c12.832 12.48 25.28 24.208 37.392 35.216l17.856 15.984C407.856 859.52 472.928 896 512.88 896c33.024 0 83.088-24.96 147.248-75.808l16.32-13.264a1299.84 1299.84 0 0 0 71.008-63.888l19.12-18.72c3.232-3.2 6.48-6.448 9.76-9.76a192 192 0 0 0 55.456-126.272L832 579.36V237.44l-50.432-9.264-28-5.488-24.096-5.04-13.952-3.136-12.272-2.944-10.624-2.784-9.008-2.608-3.52-1.12c-9.696-3.2-19.152-6.48-28.384-9.872-38.496-14.128-66.992-27.12-102.016-45.392z"
          p-id="1975"></path>
    <path d="M694.208 393.568a32 32 0 0 1 2.496 42.464l-2.496 2.784L498.88 634.16a32 32 0 0 1-42.464 2.48l-2.8-2.48-124.24-124.24a32 32 0 0 1 42.464-47.744l2.784 2.48 101.6 101.6L648.96 393.552a32 32 0 0 1 42.464-2.496l2.784 2.496z"
          p-id="1976"></path>
</svg>
