<svg t="1687310812484" class="icon" viewBox="0 0 1024 1024" version="1.1" xmlns="http://www.w3.org/2000/svg" p-id="1229"
     width="16" height="16">
    <path d="M640.352 82.656a447.52 447.52 0 0 1 179.296 103.68l-12.336 111.408a64 64 0 0 0 37.904 65.648l102.752 45.072C955.84 441.696 960 476.368 960 512c0 35.632-4.16 70.304-12.032 103.536l-102.752 45.072a64 64 0 0 0-37.92 65.648l12.352 111.408a447.52 447.52 0 0 1-179.296 103.68l-90.448-66.464a64 64 0 0 0-75.808 0l-90.4 66.48a447.52 447.52 0 0 1-179.36-103.696l12.352-111.408a64 64 0 0 0-37.904-65.648l-102.752-45.072A449.248 449.248 0 0 1 64 512c0-35.632 4.16-70.304 12.032-103.536l102.752-45.072a64 64 0 0 0 37.92-65.648l-12.352-111.408a447.52 447.52 0 0 1 179.296-103.68l90.448 66.464a64 64 0 0 0 75.808 0l90.448-66.464z m10.88 71.392l-63.424 46.64a128 128 0 0 1-145.632 4.144l-5.984-4.144-63.456-46.64-7.04 2.784a383.52 383.52 0 0 0-88.176 51.04l-5.904 4.672 8.688 78.16a128 128 0 0 1-69.76 128.448l-6.048 2.848-72.08 31.6-1.824 13.472c-1.152 9.888-1.92 19.84-2.304 29.856L128 512c0 15.12 0.864 30.112 2.592 44.928l1.824 13.44 72.08 31.632a128 128 0 0 1 76.368 124.64l-0.56 6.672-8.688 78.08 5.904 4.736a383.52 383.52 0 0 0 88.208 51.04l7.04 2.752 63.424-46.608a128 128 0 0 1 145.632-4.144l5.984 4.144 63.424 46.608 7.056-2.752a383.52 383.52 0 0 0 88.192-51.04l5.872-4.704-8.64-78.128a128 128 0 0 1 69.744-128.448l6.048-2.848 72.048-31.632 1.856-13.44c1.152-9.888 1.92-19.84 2.304-29.856L896 512c0-15.12-0.864-30.112-2.592-44.928l-1.856-13.472-72.048-31.6a128 128 0 0 1-76.368-124.64l0.56-6.672 8.656-78.144-5.872-4.672a383.52 383.52 0 0 0-88.192-51.04l-7.056-2.784z"
          p-id="1230"></path>
    <path d="M512 352c88.368 0 160 71.632 160 160s-71.632 160-160 160-160-71.632-160-160 71.632-160 160-160z m0 64a96 96 0 1 0 0 192 96 96 0 0 0 0-192z"
          p-id="1231"></path>
</svg>
