<svg t="1687311126689" class="icon" viewBox="0 0 1024 1024" version="1.1" xmlns="http://www.w3.org/2000/svg" p-id="6680"
     width="16" height="16">
    <path d="M512 512c-128.24380952 0-232.58412698-101.8615873-232.58412698-227.04761905S383.75619048 57.9047619 512 57.9047619s232.58412698 101.8615873 232.58412698 227.04761905S640.24380952 512 512 512z m0-389.2215873c-91.61142857 0-166.13587302 72.74666667-166.13587302 162.17396825S420.38857143 447.12634921 512 447.12634921s166.13587302-72.74666667 166.13587302-162.17396826S603.61142857 122.7784127 512 122.7784127zM512 966.0952381c-158.33396825 0-307.67746032-45.7752381-431.86793651-132.35809524-22.02412698-15.32952381-28.65777778-43.75365079-15.45142857-66.10285715C140.73904762 638.62857143 316.32253968 555.24571429 512 555.24571429s371.26095238 83.38285714 447.33968254 212.40888888c13.19619048 22.31873016 6.55238095 50.74285714-15.48190476 66.08253969C819.66730159 920.32 670.33396825 966.0952381 512 966.0952381zM129.56444444 788.33777778C240.26412698 862.24253968 372.19555556 901.2215873 512 901.2215873s271.74603175-38.98920635 382.42539683-112.89396825C826.21968254 685.71428571 678.08507937 620.11936508 512 620.11936508c-166.10539683 0-314.24 65.60507937-382.43555556 168.2184127z"
          p-id="6681"></path>
</svg>
