<svg xmlns="http://www.w3.org/2000/svg" xmlns:xlink="http://www.w3.org/1999/xlink" fill="none" version="1.1" width="100" height="100" viewBox="0 0 100 100"><defs><clipPath id="master_svg0_80_4"><rect x="0" y="0" width="100" height="100" rx="0"/></clipPath><clipPath id="master_svg1_80_9"><rect x="5" y="6" width="90" height="96" rx="0"/></clipPath></defs><g clip-path="url(#master_svg0_80_4)"><g clip-path="url(#master_svg1_80_9)"><g><path d="M69.75691430664062,44.878225C69.73441430664062,45.079724999999996,69.70991430664063,45.211625,69.69471430664063,45.413125C72.92821430664063,51.021225,72.91311430664062,57.513025,68.16721430664063,62.516925C68.01931430664062,62.666525,67.77911430664062,62.670225,67.62641430664063,62.525125L44.60191430664062,39.409125C44.457314306640626,39.256325000000004,44.460714306640625,39.015924999999996,44.60891430664063,38.867025C49.585914306640625,34.095525,56.05971430664062,34.080125,61.646714306640625,37.333725C61.83941430664063,37.310225,61.97811430664063,37.294925,62.17161430664063,37.272324999999995L76.70821430664063,22.708305C78.80501430664063,20.614897,82.19351430664062,20.618533,84.28541430664062,22.716435C86.37871430664063,24.820925,86.37561430664063,28.230875,84.27841430664063,30.331384999999997L69.75691430664062,44.878225ZM30.997414306640625,33.134125C30.961614306640627,30.567715,33.02401430664062,28.467965,35.580614306640626,28.467965C38.137314306640626,28.467965,40.19971430664063,30.567715,40.16391430664062,33.134125C40.12881430664062,35.650225,38.08711430664063,37.671324999999996,35.580614306640626,37.671324999999996C33.07421430664063,37.671324999999996,31.032514306640625,35.650225,30.997414306640625,33.134125ZM58.760614306640626,83.983025C58.760614306640626,80.799525,61.33151430664063,78.21882500000001,64.50261430664062,78.21882500000001C67.67391430664063,78.21882500000001,70.24461430664063,80.799825,70.24461430664063,83.983925C70.24461430664063,87.167125,67.67391430664063,89.747925,64.50261430664062,89.747925C61.33151430664063,89.747925,58.760614306640626,87.166925,58.760614306640626,83.983025ZM71.54671430664062,77.893325C71.51721430664062,76.139925,72.92511430664062,74.702425,74.67201430664062,74.702425C76.41941430664062,74.702725,77.82731430664063,76.140425,77.79721430664063,77.894125C77.76861430664063,79.605725,76.37781430664063,80.978325,74.67201430664062,80.978325C72.96621430664062,80.978025,71.57571430664063,79.60522499999999,71.54671430664062,77.893325ZM40.51221430664063,43.119924999999995L63.468414306640625,66.157325C63.639414306640624,66.323825,63.67461430664063,66.58642499999999,63.55311430664062,66.792325C62.311114306640626,68.783725,56.05241430664063,79.33522500000001,54.37921430664063,93.277525C54.36431430664062,93.391925,54.24061430664062,93.456025,54.13911430664062,93.402325L46.34591430664062,88.683925C46.27671430664063,88.637125,46.24611430664063,88.552125,46.28491430664062,88.475325C47.017214306640625,86.933925,54.031114306640625,72.184725,53.314714306640624,72.905825C52.558714306640624,73.664725,47.704914306640624,78.839125,44.070914306640624,84.130225L41.98011430664063,87.018925Q33.777514306640626,81.480325,31.246714306640627,78.03332499999999C31.208914306640626,77.97912500000001,31.200814306640623,77.933925,31.246714306640627,77.886825Q32.91351430664062,75.85752500000001,41.58691430664062,64.539925L26.841214306640623,73.417125C26.771014306640623,73.455825,26.694514306640627,73.447925,26.640514306640625,73.386325C25.923214306640624,72.588425,21.000194306640626,67.12662499999999,19.579994306640625,64.562525C19.549394306640625,64.508325,19.549394306640625,64.46232499999999,19.603394306640624,64.415125Q21.008294306640625,63.276725,28.948114306640626,56.522025L17.767394306640625,60.495825C17.690644306640625,60.519525,17.607644306640626,60.487325,17.566694306640624,60.417925L13.430292906640625,52.624925000000005C13.376292706640625,52.532025000000004,13.414093036640624,52.416325,13.522992306640624,52.392825C15.491294306640626,51.997025,31.911814306640625,48.573625,39.88221430664062,43.050325C40.079914306640624,42.912025,40.34911430664063,42.941725000000005,40.51221430664063,43.119924999999995Z" fill="#75A8FF" fill-opacity="1" style="mix-blend-mode:passthrough"/></g><g><g><g><path d="M68.8132122543335,25.7084175L70.18991225433349,25.7084175L70.18991225433349,24.7809185C70.18991225433349,24.4334255,69.84511225433349,24.0859375,69.5017122543335,24.0859375C69.1580122543335,24.0859375,68.8132122543335,24.4347195,68.8132122543335,24.7809185L68.8132122543335,25.7084175ZM67.3217122543335,26.5209475C67.3217122543335,26.8684375,67.5509122543335,27.0996575,68.0102122543335,27.0996575L68.9276122543335,27.0996575L68.9276122543335,25.8246775L68.0102122543335,25.8246775C67.6665122543335,25.8246775,67.3217122543335,26.1734575,67.3217122543335,26.5209475ZM70.18991225433349,25.7084175L70.18991225433349,26.9847175L71.22181225433349,26.9847175L71.22181225433349,27.0996575C71.56691225433349,27.0996575,71.91031225433349,26.752177500000002,71.91031225433349,26.4046875C71.91031225433349,26.0559075,71.56691225433349,25.7084175,71.22181225433349,25.7084175L70.18991225433349,25.7084175ZM15.129182254333497,29.4184275L15.129182254333497,30.6934175L16.505982254333496,30.6934175L16.505982254333496,30.5784475L18.226362254333495,30.5784475L18.226362254333495,30.6934175C18.571202254333496,30.6934175,18.914772254333496,30.345927500000002,18.914772254333496,29.9984375C18.914772254333496,29.6496475,18.571202254333496,29.3034475,18.226362254333495,29.3034475L16.505982254333496,29.3034475L16.505982254333496,27.6796675C16.505982254333496,27.3309075,16.162432254333496,26.9847175,15.817592254333496,26.9847175C15.474032254333496,26.9847175,15.129182254333497,27.3321775,15.129182254333497,27.6796675L15.129182254333497,29.4184275ZM68.9276122543335,27.0996575L68.92911225433349,28.0271575C68.92911225433349,28.3759475,69.27251225433349,28.7234475,69.6161122543335,28.7234475C69.95961225433349,28.7234475,70.3044122543335,28.374657499999998,70.3044122543335,28.0271575L70.3044122543335,27.0996575L68.9276122543335,27.0996575ZM12.720412254333496,30.1146875C12.720412254333496,30.4621775,13.065258254333497,30.8096675,13.408816254333496,30.8096675L15.129182254333497,30.8096675L15.129182254333497,29.4184275L13.408816254333496,29.4184275C13.065258254333497,29.4184275,12.720412254333496,29.7671875,12.720412254333496,30.1146875ZM15.129182254333497,32.4334475C15.129182254333497,32.7809375,15.474032254333496,33.1284275,15.817592254333496,33.1284275C16.162432254333496,33.1284275,16.505982254333496,32.7796375,16.505982254333496,32.4334475L16.505982254333496,30.8096675L15.129182254333497,30.8096675L15.129182254333497,32.4334475Z" fill="#75A8FF" fill-opacity="1" style="mix-blend-mode:passthrough"/></g></g><g><g><path d="M69.33688354492188,26.6677508404541L70.62362354492187,26.6677508404541L70.62362354492187,25.3759708404541L69.33688354492188,25.3759708404541L69.33688354492188,26.6677508404541Z" fill="#75A8FF" fill-opacity="1" style="mix-blend-mode:passthrough"/></g></g><g><g><path d="M53.12399698608399,9.27984C53.12399698608399,9.57696,53.51001698608398,9.875350000000001,53.896036986083985,9.875350000000001C54.282046986083984,9.875350000000001,54.668086986083985,9.57823,54.668086986083985,9.27984L54.668086986083985,8.4841L53.12399698608399,8.4841L53.12399698608399,9.27984ZM55.69746698608398,8.4841C56.08350698608398,8.4841,56.469526986083984,8.18699,56.469526986083984,7.88859C56.469526986083984,7.59148,56.08348698608398,7.29178,55.69746698608398,7.29178L54.539416986083985,7.29178L54.539416986083985,8.38463L55.69746698608398,8.38463L55.69746698608398,8.4841ZM52.09460898608398,8.4841L53.12399698608399,8.4841L53.12399698608399,7.29178L52.09460898608398,7.29178C51.708584986083984,7.29178,51.322566986083984,7.59019,51.322566986083984,7.88859C51.322566986083984,8.1857,51.70859098608398,8.4841,52.09460898608398,8.4841ZM53.896036986083985,6.554174C53.896036986083985,6.276442,53.57434698608398,6,53.25266698608399,6C52.93098698608399,6,52.60929698608398,6.276442,52.60929698608398,6.554174L52.60929698608398,7.29178L53.896036986083985,7.29178L53.896036986083985,6.554174Z" fill="#4DBBFD" fill-opacity="1" style="mix-blend-mode:passthrough"/></g></g><g><g><path d="M24.956025356445313,12.3370390625C25.993135356445315,12.3370390625,26.915745356445314,13.1779990625,26.915745356445314,14.2592190625C26.915745356445314,15.3417290625,25.993135356445315,16.1826890625,24.956025356445313,16.1826890625C23.918925356445314,16.1826890625,22.995055356445313,15.3417290625,22.995055356445313,14.2592190625C22.995055356445313,13.1779990625,23.918925356445314,12.3370390625,24.956025356445313,12.3370390625ZM24.956025356445313,17.6243390625C26.801225356445315,17.6243390625,28.184465356445312,16.1826890625,28.184465356445312,14.2592190625C28.184465356445312,12.4571790625,26.68540535644531,10.8954090625,24.954765356445314,10.8954090625C23.112145356445314,10.8941090625,21.727615356445312,12.3370390625,21.727615356445312,14.2592190625C21.727615356445312,16.0625490625,23.110855356445313,17.6243390625,24.956025356445313,17.6243390625ZM52.51271535644531,8.6115290625L53.896115356445314,8.6115290625L53.896115356445314,7.2900390625L52.51271535644531,7.2900390625L52.51271535644531,8.6115290625Z" fill="#4DBBFD" fill-opacity="1" style="mix-blend-mode:passthrough"/></g></g><g><g><path d="M73.84043935546875,43.53596875C74.18142935546875,43.53596875,74.40789935546874,43.76331875,74.40789935546874,44.10564875C74.40789935546874,44.44796875,74.18142935546875,44.79028875,73.84172935546874,44.79028875C73.49945935546874,44.79028875,73.27298935546875,44.56164875,73.27298935546875,44.21931875C73.27298935546875,43.87828875,73.49945935546874,43.53467875,73.84043935546875,43.53596875ZM73.84044935546875,46.04331875C74.86211935546875,46.04331875,75.77054935546875,45.24628875,75.77054935546875,44.10564875C75.77054935546875,42.96629275,74.86211935546875,42.16796875,73.84044935546875,42.16796875C72.81877635546876,42.16796875,71.91033935546875,42.96628975,71.91033935546875,44.10564875C71.91033935546875,45.24628875,72.81877635546876,46.04331875,73.84044935546875,46.04331875Z" fill="#75A8FF" fill-opacity="1" style="mix-blend-mode:passthrough"/></g></g><g><g><path d="M44.24934647338867,16.163672899780273C44.65466647338867,16.163672899780273,45.05998647338867,16.468532899780275,45.05998647338867,16.978792899780274C45.067276473388674,17.431662899780275,44.70046647338867,17.801082899780273,44.24934647338867,17.795192899780275C43.79821647338867,17.801082899780273,43.43140647338867,17.431662899780275,43.438696473388674,16.978792899780274C43.438696473388674,16.570582899780273,43.74236647338867,16.163672899780273,44.24934647338867,16.163672899780273ZM44.24934647338867,18.916462899780274C45.36492647338867,18.916462899780274,46.17557647338867,18.101342899780274,46.17557647338867,16.978792899780274C46.17557647338867,15.958279899780273,45.263286473388675,15.041112899780273,44.249336473388674,15.041112899780273C43.13373947338867,15.041112899780273,42.32309240338867,15.857519899780273,42.32309240338867,16.978792899780274C42.22015457338867,17.999292899780272,43.13373647338867,18.916462899780274,44.24934647338867,18.916462899780274Z" fill="#F6DE07" fill-opacity="1" style="mix-blend-mode:passthrough"/></g></g><g><g><path d="M86.53929540100097,33.743244375L87.00509540100097,34.642324375L87.47219540100097,33.743244375L88.63799540100098,33.518474375L87.82219540100098,32.845454375L87.93799540100098,31.833984375L87.00509540100097,32.283524375L86.07349540100098,31.833984375L86.18929540100098,32.845454375L85.49059540100097,33.518474375L86.53929540100097,33.743244375ZM18.683186401000977,40.372674375L17.867395401000977,41.159374375L18.916085401000977,41.270464375L19.383175401000976,42.169584375L19.966065401000975,41.270464375L21.014755401000976,41.159374375L20.198965401000976,40.372674375L20.431865401000977,39.362504375L19.383175401000976,39.923134375000004L18.450287401000978,39.362504375L18.683186401000977,40.372674375Z" fill="#75A8FF" fill-opacity="1" style="mix-blend-mode:passthrough"/></g></g><g><g><path d="M9.211490000000001,48.140303125L8.9773,48.669943125L8.62602,48.140303125L7.9247499999999995,48.034363125L8.393139999999999,47.610663125L8.27603,46.975113125L8.86021,47.294183125L9.445689999999999,46.975113125L9.328579999999999,47.610663125L9.79568,48.034363125L9.211490000000001,48.140303125ZM11.31659,44.751953125L8.9773,45.917143125L6.52092,44.751953125L6.9893,47.081043125L5,48.775853125L7.68928,49.093633125L8.86021,51.210863125L10.03114,49.092343125L12.72042,48.777143125L10.73241,47.082333125L11.31659,44.751953125Z" fill="#4DBBFD" fill-opacity="1" style="mix-blend-mode:passthrough"/></g></g><g><g><path d="M33.77530818969726,23.61159015136719L34.59496818969727,25.376160151367188L35.29752818969727,23.61159015136719L37.16843818969727,23.359690151367186L35.88169818969727,22.09891015136719L36.115888189697266,20.20903149772719L34.59496818969727,21.09132015136719L32.95694918969726,20.209030151367188L33.30822818969727,22.09891015136719L32.021488189697266,23.359690151367186L33.77530818969726,23.61159015136719Z" fill="#A0FFFC" fill-opacity="1" style="mix-blend-mode:passthrough"/></g></g></g></g></g></svg>