<svg xmlns="http://www.w3.org/2000/svg" xmlns:xlink="http://www.w3.org/1999/xlink" fill="none" version="1.1" width="177.6728515625" height="154.4959716796875" viewBox="0 0 177.6728515625 154.4959716796875"><defs><linearGradient x1="0.5" y1="8.881784197001252e-16" x2="0.5" y2="1" id="master_svg0_11_133"><stop offset="0%" stop-color="#DCDCE4" stop-opacity="1"/><stop offset="100%" stop-color="#DEDEE6" stop-opacity="0"/></linearGradient><linearGradient x1="0.5" y1="1" x2="0.5" y2="6.661338147750939e-16" id="master_svg1_11_134"><stop offset="0%" stop-color="#FCFCFC" stop-opacity="0.3310000002384186"/><stop offset="100%" stop-color="#EEEEF6" stop-opacity="1"/></linearGradient><linearGradient x1="0.5000094771385193" y1="0.95027756690979" x2="0.5000094771385193" y2="-0.0587683841586113" id="master_svg2_11_135"><stop offset="0%" stop-color="#EEEEF7" stop-opacity="0"/><stop offset="100%" stop-color="#F0F0F5" stop-opacity="1"/></linearGradient><linearGradient x1="0.499975323677063" y1="0.9502654075622559" x2="0.499975323677063" y2="-0.0587683841586113" id="master_svg3_11_136"><stop offset="0%" stop-color="#EEEEF7" stop-opacity="0"/><stop offset="100%" stop-color="#F0F0F5" stop-opacity="1"/></linearGradient><linearGradient x1="0.5" y1="0.9502586722373962" x2="0.5" y2="-0.05876830965280533" id="master_svg4_11_137"><stop offset="0%" stop-color="#EEEEF7" stop-opacity="0"/><stop offset="100%" stop-color="#F0F0F5" stop-opacity="1"/></linearGradient><linearGradient x1="0.49999016523361206" y1="0.9502660632133484" x2="0.49999016523361206" y2="-0.05876430496573448" id="master_svg5_11_138"><stop offset="0%" stop-color="#EEEEF7" stop-opacity="0"/><stop offset="100%" stop-color="#F0F0F5" stop-opacity="1"/></linearGradient><linearGradient x1="2.7453973293304443" y1="1.0000094175338745" x2="2.7453973293304443" y2="-0.014959334395825863" id="master_svg6_11_139"><stop offset="0%" stop-color="#FBFBFF" stop-opacity="0"/><stop offset="100%" stop-color="#FDFDFF" stop-opacity="1"/></linearGradient><linearGradient x1="2.7452399730682373" y1="1.0000094175338745" x2="2.7452399730682373" y2="-0.014959334395825863" id="master_svg7_11_140"><stop offset="0%" stop-color="#FBFBFF" stop-opacity="0"/><stop offset="100%" stop-color="#FDFDFF" stop-opacity="1"/></linearGradient><linearGradient x1="2.7453973293304443" y1="1.0000094175338745" x2="2.7453973293304443" y2="-0.014959334395825863" id="master_svg8_11_141"><stop offset="0%" stop-color="#FBFBFF" stop-opacity="0"/><stop offset="100%" stop-color="#FDFDFF" stop-opacity="1"/></linearGradient><linearGradient x1="0.5" y1="0.950268566608429" x2="0.5" y2="-0.058768585324287415" id="master_svg9_11_142"><stop offset="0%" stop-color="#EEEEF7" stop-opacity="0"/><stop offset="100%" stop-color="#F0F0F5" stop-opacity="1"/></linearGradient><linearGradient x1="0.4999775290489197" y1="0.9502586722373962" x2="0.4999775290489197" y2="-0.05876830965280533" id="master_svga_11_143"><stop offset="0%" stop-color="#EEEEF7" stop-opacity="0"/><stop offset="100%" stop-color="#F0F0F5" stop-opacity="1"/></linearGradient><linearGradient x1="0.49997377395629883" y1="-3.552713678800501e-15" x2="0.49997377395629883" y2="0.9996212124824524" id="master_svgb_11_144"><stop offset="0%" stop-color="#FCFCFF" stop-opacity="1"/><stop offset="100%" stop-color="#FAFAFC" stop-opacity="1"/></linearGradient><linearGradient x1="0.49997377395629883" y1="0" x2="0.49997377395629883" y2="1" id="master_svgc_11_145"><stop offset="0%" stop-color="#FCFCFF" stop-opacity="1"/><stop offset="100%" stop-color="#FAFAFC" stop-opacity="1"/></linearGradient><linearGradient x1="0.5000262260437012" y1="0" x2="0.5000262260437012" y2="1" id="master_svgd_11_146"><stop offset="0%" stop-color="#FCFCFF" stop-opacity="1"/><stop offset="100%" stop-color="#FAFAFC" stop-opacity="1"/></linearGradient><linearGradient x1="0.49997377395629883" y1="0" x2="0.49997377395629883" y2="1" id="master_svge_11_145"><stop offset="0%" stop-color="#FCFCFF" stop-opacity="1"/><stop offset="100%" stop-color="#FAFAFC" stop-opacity="1"/></linearGradient><linearGradient x1="0.49997377395629883" y1="7.105427357601002e-15" x2="0.49997377395629883" y2="1" id="master_svgf_11_147"><stop offset="0%" stop-color="#FCFCFF" stop-opacity="1"/><stop offset="100%" stop-color="#FAFAFC" stop-opacity="1"/></linearGradient><linearGradient x1="0.5000262260437012" y1="-7.105427357601002e-15" x2="0.5000262260437012" y2="1" id="master_svgg_11_148"><stop offset="0%" stop-color="#FCFCFF" stop-opacity="1"/><stop offset="100%" stop-color="#FAFAFC" stop-opacity="1"/></linearGradient><linearGradient x1="0.49996066093444824" y1="0.9503459334373474" x2="0.49996066093444824" y2="-0.05874372646212578" id="master_svgh_11_149"><stop offset="0%" stop-color="#EEEEF7" stop-opacity="0"/><stop offset="100%" stop-color="#F0F0F5" stop-opacity="1"/></linearGradient><linearGradient x1="0.5" y1="3.552713678800501e-15" x2="0.5" y2="1" id="master_svgi_11_164"><stop offset="0%" stop-color="#DCDCE4" stop-opacity="1"/><stop offset="100%" stop-color="#DEDEE6" stop-opacity="0"/></linearGradient></defs><g><g style="opacity:0.3019999861717224;"><path d="M134.0514,0C139.063,0,143.3585,2.62131,145.1675,6.34916L146.09629999999999,6.34916C151.01409999999998,6.34916,155,10.3334,155,15.2479L155,16.1012C155,21.0157,151.01409999999998,25,146.09629999999999,25L122.90436,25C117.98651,25,114,21.0157,114,16.1012L114,15.2479C114,10.3334,117.98651,6.34915,122.90436,6.34915L122.93604,6.34915C124.74510000000001,2.62131,129.0405,-0.0000049283,134.0514,0Z" fill="url(#master_svg0_11_133)" fill-opacity="1" style="mix-blend-mode:passthrough"/></g><g><path d="M46.391918579101564,42.87397003173828L17.675918579101562,42.87397003173828C17.123634579101562,42.87397003173828,16.675918579101562,43.32168603173828,16.675918579101562,43.87397003173828L16.675918579101562,133.48797003173829C16.675918579101562,134.0402700317383,17.123634579101562,134.48797003173829,17.675918579101562,134.48797003173829L46.391918579101564,134.48797003173829C46.94421857910156,134.48797003173829,47.391918579101564,134.0402700317383,47.391918579101564,133.48797003173829L47.391918579101564,43.873980031738284C47.391918579101564,43.321693031738285,46.94421857910156,42.87397766112828,46.391918579101564,42.87397003173828Z" fill="url(#master_svg1_11_134)" fill-opacity="1" style="mix-blend-mode:passthrough"/></g><g><path d="M87.10392102050781,69.19996643066406L37.24092102050781,69.19996643066406C36.412491020507815,69.19998168946407,35.74092102050781,69.87155143066406,35.74092102050781,70.69996643066406L35.74092102050781,149.83596643066406C35.74092102050781,150.66436643066407,36.412491020507815,151.33596643066406,37.24092102050781,151.33596643066406L87.10392102050781,151.33596643066406C87.93232102050781,151.33596643066406,88.60392102050781,150.66436643066407,88.60392102050781,149.83596643066406L88.60392102050781,70.69996643066406C88.60392102050781,69.87155143066406,87.93232102050781,69.19998168946407,87.10392102050781,69.19996643066406Z" fill="url(#master_svg2_11_135)" fill-opacity="1" style="mix-blend-mode:passthrough"/></g><g><path d="M84.87892211914063,20.79796600341797L65.61392211914062,20.79796600341797C65.33778411914062,20.79796600341797,65.11392211914062,21.021820003417968,65.11392211914062,21.29796600341797L65.11392211914062,102.43396600341796C65.11392211914062,102.71006600341796,65.33778411914062,102.93396600341796,65.61392211914062,102.93396600341796L84.87892211914063,102.93396600341796C85.15502211914063,102.93396600341796,85.37892211914063,102.71006600341796,85.37892211914063,102.43396600341796L85.37892211914063,21.29796600341797C85.37892211914063,21.021820003417968,85.15502211914063,20.79796600341797,84.87892211914063,20.79796600341797Z" fill="url(#master_svg3_11_136)" fill-opacity="1" style="mix-blend-mode:passthrough"/></g><g><path d="M27.826931518554687,62.88197326660156L6.5829315185546875,62.88197326660156C6.306785518554688,62.88197326660156,6.0829315185546875,63.105827266601565,6.0829315185546875,63.38197326660156L6.0829315185546875,153.99597326660157C6.0829315185546875,154.27207326660158,6.306785518554688,154.49597326660157,6.5829315185546875,154.49597326660157L27.826931518554687,154.49597326660157C28.103031518554687,154.49597326660157,28.326931518554687,154.27207326660158,28.326931518554687,153.99597326660157L28.326931518554687,63.38197326660156C28.326931518554687,63.105827266601565,28.103031518554687,62.88197326660156,27.826931518554687,62.88197326660156Z" fill="url(#master_svg4_11_137)" fill-opacity="1" style="mix-blend-mode:passthrough"/></g><g><path d="M177.67292443847657,18.653968811035156L126.83192443847656,18.653968811035156L126.83192443847656,115.99196881103515L177.67292443847657,115.99196881103515L177.67292443847657,18.653968811035156Z" fill="url(#master_svg5_11_138)" fill-opacity="1" style="mix-blend-mode:passthrough"/></g><g><path d="M141.159931640625,29.184967041015625L135.804931640625,29.184967041015625C135.528793640625,29.184967041015625,135.304931640625,29.408821041015624,135.304931640625,29.684967041015625L135.304931640625,135.03996704101564C135.304931640625,135.31596704101563,135.528793640625,135.53996704101564,135.804931640625,135.53996704101564L141.159931640625,135.53996704101564C141.436061640625,135.53996704101564,141.659931640625,135.31596704101563,141.659931640625,135.03996704101564L141.659931640625,29.684967041015625C141.659931640625,29.408821041015624,141.436061640625,29.184967041015625,141.159931640625,29.184967041015625Z" fill="url(#master_svg6_11_139)" fill-opacity="1" style="mix-blend-mode:passthrough"/></g><g><path d="M154.92992065429686,29.184967041015625L149.57492065429688,29.184967041015625C149.29878265429687,29.184967041015625,149.07492065429688,29.408821041015624,149.07492065429688,29.684967041015625L149.07492065429688,135.03996704101564C149.07492065429688,135.31596704101563,149.29878265429687,135.53996704101564,149.57492065429688,135.53996704101564L154.92992065429686,135.53996704101564C155.2060506542969,135.53996704101564,155.42992065429686,135.31596704101563,155.42992065429686,135.03996704101564L155.42992065429686,29.684967041015625C155.42992065429686,29.408821041015624,155.2060506542969,29.184967041015625,154.92992065429686,29.184967041015625Z" fill="url(#master_svg7_11_140)" fill-opacity="1" style="mix-blend-mode:passthrough"/></g><g><path d="M168.69892784667968,29.184967041015625L163.3439178466797,29.184967041015625C163.0677638466797,29.184967041015625,162.8439178466797,29.408821041015624,162.8439178466797,29.684967041015625L162.8439178466797,135.03996704101564C162.8439178466797,135.31596704101563,163.0677638466797,135.53996704101564,163.3439178466797,135.53996704101564L168.69892784667968,135.53996704101564C168.97507784667968,135.53996704101564,169.19892784667968,135.31596704101563,169.19892784667968,135.03996704101564L169.19892784667968,29.684967041015625C169.19892784667968,29.408821041015624,168.97507784667968,29.184967041015625,168.69892784667968,29.184967041015625Z" fill="url(#master_svg8_11_141)" fill-opacity="1" style="mix-blend-mode:passthrough"/></g><g><path d="M114.12092492675781,8.123970031738281L82.34492492675781,8.123970031738281L82.34492492675781,136.59397003173828L114.12092492675781,136.59397003173828L114.12092492675781,8.123970031738281Z" fill="url(#master_svg9_11_142)" fill-opacity="1" style="mix-blend-mode:passthrough"/></g><g><path d="M133.1869239501953,62.88197326660156L110.94392395019531,62.88197326660156L110.94392395019531,154.49597326660157L133.1869239501953,154.49597326660157L133.1869239501953,62.88197326660156Z" fill="url(#master_svga_11_143)" fill-opacity="1" style="mix-blend-mode:passthrough"/></g><g><path d="M107.765927734375,16.54796600341797L88.700927734375,16.54796600341797L88.700927734375,19.18796600341797L107.765927734375,19.18796600341797L107.765927734375,16.54796600341797Z" fill="url(#master_svgb_11_144)" fill-opacity="1" style="mix-blend-mode:passthrough"/></g><g><path d="M107.765927734375,25.195968627929688L88.700927734375,25.195968627929688L88.700927734375,27.833968627929686L107.765927734375,27.833968627929686L107.765927734375,25.195968627929688Z" fill="url(#master_svgc_11_145)" fill-opacity="1" style="mix-blend-mode:passthrough"/></g><g><path d="M107.96792358398437,33.991966247558594L88.90292358398438,33.991966247558594L88.90292358398438,36.62996624755859L107.96792358398437,36.62996624755859L107.96792358398437,33.991966247558594Z" fill="url(#master_svgd_11_146)" fill-opacity="1" style="mix-blend-mode:passthrough"/></g><g><path d="M107.765927734375,41.02796936035156L88.700927734375,41.02796936035156L88.700927734375,43.666969360351565L107.765927734375,43.666969360351565L107.765927734375,41.02796936035156Z" fill="url(#master_svge_11_145)" fill-opacity="1" style="mix-blend-mode:passthrough"/></g><g><path d="M107.765927734375,49.67597198486328L88.700927734375,49.67597198486328L88.700927734375,52.31397198486328L107.765927734375,52.31397198486328L107.765927734375,49.67597198486328Z" fill="url(#master_svgf_11_147)" fill-opacity="1" style="mix-blend-mode:passthrough"/></g><g><path d="M107.96792358398437,58.470970153808594L88.90292358398438,58.470970153808594L88.90292358398438,61.1099701538086L107.96792358398437,61.1099701538086L107.96792358398437,58.470970153808594Z" fill="url(#master_svgg_11_148)" fill-opacity="1" style="mix-blend-mode:passthrough"/></g><g><path d="M104.5889296875,4.9649658203125L91.8779296875,4.9649658203125L91.8779296875,12.3359658203125L104.5889296875,12.3359658203125L104.5889296875,4.9649658203125Z" fill="url(#master_svgh_11_149)" fill-opacity="1" style="mix-blend-mode:passthrough"/></g><g style="opacity:0.3019999861717224;"><path d="M31.024,15C38.778,15,45.424,19.058,48.223,24.83L49.66,24.83C57.268,24.83,63.436,30.997,63.436,38.606L63.436,39.926C63.436,47.534,57.268,53.702,49.66,53.702L13.776,53.702C6.168,53.702,0,47.534,0,39.926L0,38.606C0,30.997,6.168,24.829,13.776,24.829L13.826,24.829C16.625,19.05901,23.271,15,31.024,15Z" fill="url(#master_svgi_11_164)" fill-opacity="1" style="mix-blend-mode:passthrough"/></g></g></svg>