<svg xmlns="http://www.w3.org/2000/svg" xmlns:xlink="http://www.w3.org/1999/xlink" fill="none" version="1.1" width="100" height="100" viewBox="0 0 100 100"><defs><clipPath id="master_svg0_80_004"><rect x="0" y="0" width="100" height="100" rx="0"/></clipPath><clipPath id="master_svg1_80_36"><rect x="4" y="6" width="92" height="88" rx="0"/></clipPath></defs><g clip-path="url(#master_svg0_80_004)"><g clip-path="url(#master_svg1_80_36)"><g><g><g><path d="M69.17948701019287,26.038371875L70.58568701019287,26.038371875L70.58568701019287,25.095313875C70.58568701019287,24.741990875,70.23348701019287,24.388671875,69.88278701019287,24.388671875C69.53168701019287,24.388671875,69.17948701019287,24.743306875,69.17948701019287,25.095313875L69.17948701019287,26.038371875ZM67.65608701019286,26.864541875C67.65608701019286,27.217861875,67.89018701019288,27.452961875,68.35938701019288,27.452961875L69.29638701019287,27.452961875L69.29638701019287,26.156591875L68.35938701019288,26.156591875C68.00828701019287,26.156591875,67.65608701019286,26.511221875,67.65608701019286,26.864541875ZM70.58568701019287,26.038371875L70.58568701019287,27.336091875L71.63968701019287,27.336091875L71.63968701019287,27.452961875C71.99218701019288,27.452961875,72.34298701019287,27.099651875,72.34298701019287,26.746331875C72.34298701019287,26.391701875,71.99218701019288,26.038381875,71.63968701019287,26.038381875L70.58568701019287,26.038371875ZM14.346127010192872,29.810631875L14.346127010192872,31.107021875L15.752407010192872,31.107021875L15.752407010192872,30.990121875L17.50961701019287,30.990121875L17.50961701019287,31.107021875C17.861837010192872,31.107021875,18.21276701019287,30.753701875,18.21276701019287,30.400381875C18.21276701019287,30.045731875,17.861837010192872,29.693731875,17.50961701019287,29.693731875L15.752407010192872,29.693731875L15.752407010192872,28.042701875C15.752407010192872,27.688091875,15.401507010192871,27.336091875,15.04927701019287,27.336091875C14.698357010192872,27.336091875,14.346127010192872,27.689381875,14.346127010192872,28.042701875L14.346127010192872,29.810631875ZM69.29638701019287,27.452961875L69.29788701019288,28.396021875C69.29788701019288,28.750671875000002,69.64858701019287,29.103991875,69.99968701019287,29.103991875C70.35038701019286,29.103991875,70.70258701019287,28.749351875000002,70.70258701019287,28.396021875L70.70258701019287,27.452961875L69.29638701019287,27.452961875ZM11.885787010192871,30.518571875C11.885787010192871,30.871891875,12.23801601019287,31.225221875,12.588930010192872,31.225221875L14.346127010192872,31.225221875L14.346127010192872,29.810631875L12.588930010192872,29.810631875C12.23801601019287,29.810631875,11.885787010192871,30.165251875,11.885787010192871,30.518571875ZM14.346127010192872,32.876251875C14.346127010192872,33.229571875,14.698357010192872,33.582891875,15.04927701019287,33.582891875C15.401507010192871,33.582891875,15.752407010192872,33.228251875,15.752407010192872,32.876251875L15.752407010192872,31.225221875L14.346127010192872,31.225221875L14.346127010192872,32.876251875Z" fill="#75A8FF" fill-opacity="1" style="mix-blend-mode:passthrough"/></g></g><g><g><path d="M69.71426391601562,27.0146261529541L71.02854391601562,27.0146261529541L71.02854391601562,25.7011661529541L69.71426391601562,25.7011661529541L69.71426391601562,27.0146261529541Z" fill="#75A8FF" fill-opacity="1" style="mix-blend-mode:passthrough"/></g></g><g><g><path d="M53.15423568725586,9.33487C53.15423568725586,9.63698,53.54852568725586,9.940380000000001,53.942805687255856,9.940380000000001C54.33707568725586,9.940380000000001,54.73138568725586,9.63827,54.73138568725586,9.33487L54.73138568725586,8.525780000000001L53.15423568725586,8.525780000000001L53.15423568725586,9.33487ZM55.782795687255856,8.525780000000001C56.17710568725586,8.525780000000001,56.57139568725586,8.22369,56.57139568725586,7.92028C56.57139568725586,7.61818,56.17708568725586,7.31346,55.782795687255856,7.31346L54.59996568725586,7.31346L54.59996568725586,8.42464L55.782795687255856,8.42464L55.782795687255856,8.525780000000001ZM52.10280668725586,8.525780000000001L53.15423568725586,8.525780000000001L53.15423568725586,7.31346L52.10280668725586,7.31346C51.70851868725586,7.31346,51.31423568725586,7.6168700000000005,51.31423568725586,7.92028C51.31423568725586,8.22237,51.70852368725586,8.525780000000001,52.10280668725586,8.525780000000001ZM53.942805687255856,6.563473C53.942805687255856,6.28108,53.61422568725586,6,53.28565568725586,6C52.95708568725586,6,52.628515687255856,6.28108,52.628515687255856,6.563473L52.628515687255856,7.31346L53.94279568725586,7.31346L53.942805687255856,6.563473Z" fill="#4DBBFD" fill-opacity="1" style="mix-blend-mode:passthrough"/></g></g><g><g><path d="M24.38320810058594,12.444189999999999C25.44252810058594,12.444189999999999,26.38488810058594,13.29926,26.38488810058594,14.39861C26.38488810058594,15.49929,25.44252810058594,16.35436,24.38320810058594,16.35436C23.32390810058594,16.35436,22.380248100585938,15.49929,22.380248100585938,14.39861C22.380248100585938,13.29926,23.32390810058594,12.444189999999999,24.38320810058594,12.444189999999999ZM24.38320810058594,17.8202C26.267908100585938,17.8202,27.680768100585937,16.35436,27.680768100585937,14.39861C27.680768100585937,12.56634,26.149618100585936,10.97836,24.38191810058594,10.97836C22.499848100585936,10.97704,21.085678100585938,12.444189999999999,21.085678100585938,14.39861C21.085678100585938,16.2322,22.498538100585936,17.8202,24.38320810058594,17.8202ZM52.52987810058593,8.65617L53.94297810058594,8.65617L53.94297810058594,7.3125L52.52987810058593,7.3125L52.52987810058593,8.65617Z" fill="#4DBBFD" fill-opacity="1" style="mix-blend-mode:passthrough"/></g></g><g><g><path d="M74.3143155078125,44.166340625C74.6626055078125,44.166340625,74.8939255078125,44.397510625,74.8939255078125,44.745580625C74.8939255078125,45.093640625,74.6626055078125,45.441710625,74.3156355078125,45.441710625C73.9660355078125,45.441710625,73.7347255078125,45.209230625000004,73.7347255078125,44.861160625C73.7347255078125,44.514410625,73.9660355078125,44.165030625,74.3143155078125,44.166340625ZM74.3143255078125,46.715770625C75.3578655078125,46.715770625,76.2857555078125,45.905360625,76.2857555078125,44.745580625C76.2857555078125,43.587109625,75.3578655078125,42.775390625,74.3143255078125,42.775390625C73.2707825078125,42.775390625,72.3428955078125,43.587106625,72.3428955078125,44.745580625C72.3428955078125,45.905360625,73.2707825078125,46.715770625,74.3143255078125,46.715770625Z" fill="#75A8FF" fill-opacity="1" style="mix-blend-mode:passthrough"/></g></g><g><g><path d="M44.08970666870117,16.334846649780275C44.50370666870117,16.334846649780275,44.91770666870117,16.644826649780274,44.91770666870117,17.163646649780272C44.925146668701174,17.624116649780273,44.55048666870117,17.999736649780274,44.08970666870117,17.993746649780274C43.62891666870117,17.999736649780274,43.254256668701174,17.624116649780273,43.26170666870117,17.163646649780272C43.26170666870117,16.748596649780275,43.57187666870117,16.334846649780275,44.08970666870117,16.334846649780275ZM44.08970666870117,19.133836649780275C45.22917666870117,19.133836649780275,46.057176668701175,18.305026649780274,46.057176668701175,17.163646649780272C46.057176668701175,16.126013649780273,45.12535666870117,15.193456649780273,44.08969666870117,15.193456649780273C42.95021466870117,15.193456649780273,42.12221228870117,16.023561649780273,42.12221228870117,17.163646649780272C42.01707056870117,18.201276649780272,42.95021166870117,19.133836649780275,44.08970666870117,19.133836649780275Z" fill="#F6DE07" fill-opacity="1" style="mix-blend-mode:passthrough"/></g></g><g><g><path d="M87.28497757873535,34.208868125L87.76077757873536,35.123038125L88.23787757873535,34.208868125L89.42857757873536,33.980328125L88.59537757873535,33.296018125L88.71367757873536,32.267578125L87.76077757873536,32.724661125L86.80927757873535,32.267578125L86.92757757873535,33.296018125L86.21387757873535,33.980328125L87.28497757873535,34.208868125ZM17.97613457873535,40.949538125000004L17.14287757873535,41.749438125L18.21401757873535,41.862398125L18.691107578735352,42.776578125L19.28647757873535,41.862398125L20.35762757873535,41.749438125L19.52436757873535,40.949538125000004L19.76224757873535,39.922418125L18.691107578735352,40.492458125L17.738249578735353,39.922418125L17.97613457873535,40.949538125000004Z" fill="#75A8FF" fill-opacity="1" style="mix-blend-mode:passthrough"/></g></g><g><g><path d="M8.30166,48.84754375L8.06245,49.38607375L7.70365,48.84754375L6.98737,48.73983375L7.46579,48.30902375L7.34617,47.66280375L7.94286,47.98723375L8.54087,47.66280375L8.42125,48.30902375L8.89835,48.73983375L8.30166,48.84754375ZM10.451830000000001,45.40234375L8.06245,46.58708375L5.55349,45.40234375L6.031890000000001,47.77051375L4,49.493753749999996L6.74686,49.81687375L7.94286,51.96963375L9.138860000000001,49.81555375L11.88572,49.49507375L9.855139999999999,47.77182375L10.451830000000001,45.40234375Z" fill="#4DBBFD" fill-opacity="1" style="mix-blend-mode:passthrough"/></g></g><g><g><path d="M33.391471470947266,23.906961401367187L34.228681470947265,25.701141401367188L34.94628147094726,23.906961401367187L36.85725147094727,23.650841401367188L35.54296147094727,22.368901401367186L35.782161470947266,20.447312770317186L34.228681470947265,21.344405401367187L32.555590470947266,20.447311401367188L32.914391470947265,22.368901401367186L31.600101470947266,23.650841401367188L33.391471470947266,23.906961401367187Z" fill="#A0FFFC" fill-opacity="1" style="mix-blend-mode:passthrough"/></g></g><g style="opacity:0.25;"><g><path d="M83.02277908554078,79.66417768249511L12.184119085540772,79.66417768249511C10.835659085540772,79.66417768249511,9.65542908554077,80.16717768249512,8.643429085540772,81.17317768249512C7.6314280855407715,82.17937768249512,7.125427714040772,83.35357768249511,7.125427714040772,84.86137768249512C7.125427714040772,86.37207768249512,7.6314280855407715,87.54487768249511,8.643429085540772,88.55107768249512C9.65542908554077,89.55707768249512,10.83433908554077,90.06007768249512,12.184119085540772,90.06007768249512L83.02427908554077,90.06007768249512C84.37267908554077,90.06007768249512,85.55277908554078,89.55707768249512,86.56487908554077,88.55107768249512C87.57687908554077,87.54487768249511,88.08277908554078,86.37067768249511,88.08277908554078,84.86137768249512C88.08277908554078,83.35357768249511,87.57687908554077,82.17937768249512,86.56487908554077,81.17317768249512C85.55277908554078,80.16717768249512,84.37267908554077,79.66417768249511,83.02277908554078,79.66417768249511ZM52.66427908554077,32.380937682495116C51.65217908554077,32.380937682495116,50.976479085540774,32.21413768249512,50.13427908554077,32.21413768249512C49.290279085540774,32.21413768249512,48.44797908554077,32.04601768249512,47.772279085540774,32.04601768249512C46.92857908554077,32.04601768249512,46.25437908554077,32.04601768249512,45.41177908554077,32.21413768249512C44.568079085540774,32.21413768249512,43.72437908554077,32.380937682495116,42.88177908554077,32.54905768249512L42.54427908554077,32.380937682495116L42.54427908554077,32.21413768249512C42.53787908554077,30.831247682495118,43.08427908554077,29.503117682495116,44.06217908554077,28.524627682495115C45.07427908554077,27.518517682495116,46.25437908554077,27.015447682495118,47.604279085540774,27.015447682495118C48.95267908554077,27.015447682495118,50.13427908554077,27.518517682495116,51.14597908554077,28.525947682495115C52.15807908554077,29.53072768249512,52.66427908554077,30.704957682495117,52.66427908554077,32.21413768249512L52.66427908554077,32.380937682495116ZM38.158479085540776,45.29227768249512C37.99007908554077,45.627177682495116,37.65367908554077,45.96207768249512,37.31587908554077,46.130177682495116L36.30387908554077,46.63327768249512C34.61637908554077,47.136377682495116,33.09837908554077,47.80747768249512,31.749879085540773,48.64547768249511C30.388679085540772,49.499577682495115,29.09197908554077,50.45227768249512,27.870079085540773,51.49567768249511C26.68987908554077,52.669977682495116,25.67787908554077,53.84267768249512,24.834079085540772,55.18397768249512C24.665879085540773,55.52017768249512,24.49767908554077,55.68697768249512,24.32807908554077,56.02317768249512C24.159879085540773,56.191377682495116,23.82207908554077,56.52617768249512,23.48567908554077,56.52617768249512C23.147879085540772,56.694377682495116,22.81007908554077,56.694377682495116,22.473679085540773,56.694377682495116C21.79947908554077,56.694377682495116,21.12387908554077,56.52617768249512,20.61787908554077,56.02317768249512C20.11187908554077,55.52017768249512,19.943679085540772,54.84897768249512,19.943679085540772,54.179177682495116C19.943679085540772,53.67477768249512,20.11187908554077,53.172977682495116,20.449679085540772,52.668477682495116C22.135879085540772,49.98657768249512,24.159879085540773,47.639377682495116,26.52167908554077,45.79527768249512C28.95827908554077,43.84407768249512,31.77167908554077,42.416777682495116,34.78587908554077,41.60267768249511C34.95407908554077,41.60267768249511,34.95407908554077,41.43587768249512,35.12237908554077,41.43587768249512C35.29187908554077,41.43587768249512,35.46007908554077,41.26777768249512,35.62967908554077,41.26777768249512C36.30387908554077,41.26777768249512,36.97807908554077,41.60267768249511,37.48277908554077,42.10707768249512C37.99007908554077,42.60887768249512,38.327979085540775,43.279977682495115,38.327979085540775,43.949877682495114C38.49597908554077,44.452877682495114,38.327979085540775,44.95727768249512,38.158479085540776,45.29227768249512ZM86.56337908554077,65.91627768249512C85.55167908554077,64.90857768249512,84.37267908554077,64.40567768249511,83.02277908554078,64.40567768249511L82.51687908554077,64.40567768249511C81.50487908554076,57.53237768249512,78.80647908554077,51.32887768249512,74.25267908554078,45.96207768249512C69.69857908554077,40.59797768249511,64.13267908554077,36.90847768249512,57.55447908554077,35.06437768249512L57.55447908554077,34.89487768249512C57.72427908554077,34.39187768249512,57.72427908554077,33.88877768249512,57.72427908554077,33.721977682495115C57.72427908554077,30.871787682495118,56.71217908554077,28.355177682495118,54.68807908554077,26.511087682495116C52.66427908554077,24.500187682495117,50.302279085540775,23.494077682495117,47.43447908554077,23.494077682495117C44.568079085540774,23.494077682495117,42.206379085540775,24.500187682495117,40.35067908554077,26.512407682495116C38.497479085540775,28.355177682495118,37.48427908554077,30.871787682495118,37.48427908554077,33.721977682495115C37.48427908554077,34.05687768249511,37.48427908554077,34.559977682495116,37.65367908554077,35.231177682495115C31.074379085540773,37.242077682495115,25.50967908554077,40.76347768249512,20.955679085540773,46.128877682495116C16.40166908554077,51.49437768249511,13.703439085540772,57.529777682495116,12.691439085540772,64.57247768249512L12.184119085540772,64.57247768249512C11.50988908554077,64.57247768249512,10.835659085540772,64.74067768249512,10.330989085540772,64.90747768249511C9.65542908554077,65.24367768249512,9.14810908554077,65.57867768249511,8.643429085540772,66.08167768249513C8.137429085540772,66.58467768249511,7.799654085540771,67.08767768249513,7.6314280855407715,67.75887768249513C7.293655085540771,68.26217768249512,7.125426344240772,68.93187768249513,7.125426344240772,69.77107768249512C7.119536125540772,71.15367768249511,7.665952085540772,72.48117768249512,8.643429085540772,73.45937768249512C9.65542908554077,74.29737768249512,10.835659085540772,74.80037768249511,12.184119085540772,74.80037768249511L83.02427908554077,74.80037768249511C84.37267908554077,74.80037768249511,85.55277908554078,74.29737768249512,86.56487908554077,73.29137768249512C87.57687908554077,72.28507768249511,88.08277908554078,71.11097768249512,88.08277908554078,69.60317768249512C88.08277908554078,68.26217768249512,87.57687908554077,67.08767768249513,86.56337908554077,65.91627768249512Z" fill="#75A8FF" fill-opacity="1" style="mix-blend-mode:passthrough"/></g></g><g><g><path d="M90.98855796813965,83.4914953125L20.839927968139648,83.4914953125C19.503307968139648,83.4914953125,18.33358796813965,83.99959531249999,17.33078796813965,85.0164953125C16.330616968139648,86.0341953125,15.828560707769649,87.2215953125,15.828560707769649,88.7451953125C15.828560707769649,90.2687953125,16.329303968139648,91.4561953125,17.33209796813965,92.4727953125C18.33358796813965,93.4907953125,19.503307968139648,93.9989953125,20.839927968139648,93.9989953125L90.98855796813965,93.9989953125C92.32525796813965,93.9989953125,93.49495796813964,93.4907953125,94.49645796813965,92.4727953125C95.49925796813964,91.4561953125,95.99995796813965,90.2701953125,95.99995796813965,88.7451953125C95.99995796813965,87.22019531250001,95.49925796813964,86.0341953125,94.49645796813965,85.0164953125C93.49495796813964,83.99959531249999,92.32525796813965,83.4914953125,90.98855796813965,83.4914953125ZM60.92445796813965,35.8851153125C59.92275796813965,35.8851153125,59.255057968139646,35.7182853125,58.419457968139646,35.7182853125C57.58465796813965,35.7182853125,56.75005796813965,35.5501653125,56.07985796813965,35.5501653125C55.24535796813965,35.5501653125,54.57775796813965,35.5501653125,53.74325796813965,35.7182853125C52.907257968139646,35.7182853125,52.07385796813965,35.8851153125,51.23675796813965,36.0532353125L50.902957968139646,35.8851153125L50.902957968139646,35.7182853125C50.902957968139646,34.3785753125,51.40515796813965,33.0388453125,52.40655796813965,32.0353753125C53.409157968139645,31.0305553125,54.57775796813965,30.5288053125,55.91445796813965,30.5288053125C57.24965796813965,30.5288053125,58.419457968139646,31.0305553125,59.42205796813965,32.0353753125C60.42375796813965,33.0401653125,60.92445796813965,34.2117553125,60.92445796813965,35.7182853125L60.92445796813965,35.8851153125ZM46.56055796813965,48.776695312499996C46.39365796813965,49.1115953125,46.06105796813965,49.4465953125,45.72605796813965,49.6133953125L44.723157968139645,50.1163953125C43.05395796813965,50.6181953125,41.55045796813965,51.2879953125,40.21385796813965,52.124695312499995C38.865257968139645,52.9781953125,37.58125796813965,53.929495312499995,36.372157968139646,54.9709953125C35.20245796813965,56.1425953125,34.20095796813965,57.3142953125,33.36635796813965,58.6526953125C33.19945796813965,58.9873953125,33.03255796813965,59.1555953125,32.86435796813964,59.4891953125C32.697457968139645,59.6574953125,32.36495796813965,59.9921953125,32.02975796813965,59.9921953125C31.69595796813965,60.1589953125,31.36205796813965,60.1589953125,31.026957968139648,60.1589953125C30.359357968139648,60.1589953125,29.691657968139648,59.9921953125,29.18955796813965,59.4891953125C28.690157968139648,58.9873953125,28.52195796813965,58.3190953125,28.52195796813965,57.6489953125C28.52195796813965,57.1459953125,28.68885796813965,56.6444953125,29.022657968139647,56.1425953125C30.693157968139648,53.4630953125,32.697457968139645,51.1198953125,35.03685796813965,49.278395312499995C37.44555796813965,47.3329953125,40.23175796813965,45.908095312499995,43.21965796813965,45.0937953125C43.38785796813965,45.0937953125,43.38785796813965,44.9256953125,43.55475796813965,44.9256953125C43.72165796813965,44.9256953125,43.88855796813965,44.7587953125,44.05545796813965,44.7587953125C44.723157968139645,44.7587953125,45.392257968139646,45.0937953125,45.89295796813965,45.5954953125C46.39365796813965,46.098595312499995,46.727457968139646,46.768395312500004,46.727457968139646,47.4369953125C46.894357968139644,47.9399953125,46.727457968139646,48.4417953125,46.56055796813965,48.776695312499996ZM94.49645796813965,69.36659531250001C93.49495796813964,68.3628953125,92.32525796813965,67.86139531250001,90.98855796813965,67.86139531250001L90.48925796813965,67.86139531250001C89.48645796813965,60.9969953125,86.81305796813965,54.8028953125,82.30375796813965,49.4465953125C77.79445796813965,44.0889953125,72.28225796813965,40.405995312499996,65.76865796813965,38.5645953125L65.76865796813965,38.3977953125C65.93555796813965,37.8959953125,65.93555796813965,37.3928953125,65.93555796813965,37.2260953125C65.93555796813965,34.3798653125,64.93305796813965,31.8685453125,62.92875796813965,30.0283853125C60.92445796813965,28.0161753125,58.58635796813965,27.0126953125,55.747557968139645,27.0126953125C52.90845796813965,27.0126953125,50.56915796813965,28.0174953125,48.73175796813965,30.0257653125C46.894357968139644,31.8672253125,45.89295796813965,34.3785753125,45.89295796813965,37.2234953125C45.89295796813965,37.5597953125,45.89295796813965,38.0614953125,46.05985796813965,38.7313953125C39.54485796813965,40.740995312500004,34.03405796813965,44.2557953125,29.524757968139646,49.6120953125C25.015417968139648,54.9696953125,22.34214796813965,60.9958953125,21.34066796813965,68.02669531250001L20.839927968139648,68.02669531250001C20.170957968139646,68.02669531250001,19.503307968139648,68.1934953125,19.002567968139648,68.36179531249999C18.33358796813965,68.69649531249999,17.83284796813965,69.0315953125,17.33209796813965,69.5333953125C16.83004796813965,70.0348953125,16.49621696813965,70.5381953125,16.32930196813965,71.2065953125C15.995472968139648,71.7097953125,15.828557968139648,72.3795953125,15.828557968139648,73.21619531249999C15.828557968139648,74.55609531249999,16.32930196813965,75.8944953125,17.33209796813965,76.8978953125C18.33358796813965,77.73589531249999,19.503307968139648,78.2376953125,20.839927968139648,78.2376953125L90.98855796813965,78.2376953125C92.32525796813965,78.2376953125,93.49495796813964,77.73589531249999,94.49645796813965,76.7309953125C95.49925796813964,75.7287953125,95.99995796813965,74.5545953125,95.99995796813965,73.0493953125C95.99995796813965,71.7097953125,95.49925796813964,70.5393953125,94.49645796813965,69.36659531250001Z" fill="#75A8FF" fill-opacity="1" style="mix-blend-mode:passthrough"/></g></g></g></g></g></svg>