<svg xmlns="http://www.w3.org/2000/svg" xmlns:xlink="http://www.w3.org/1999/xlink" fill="none" version="1.1" width="128" height="128" viewBox="0 0 128 128"><defs><clipPath id="master_svg0_74_92"><rect x="0" y="0" width="128" height="128" rx="0"/></clipPath></defs><g clip-path="url(#master_svg0_74_92)"><g><path d="M45.5,100.75C42.0482,100.75,39.25,97.9518,39.25,94.5L39.25,62L28,62L64.125,28.25L100.25,62L88.75,62L88.75,94.5C88.75,97.9518,85.95179999999999,100.75,82.5,100.75L45.5,100.75Z" fill="#4988F5" fill-opacity="1" style="mix-blend-mode:passthrough"/></g><g><path d="M82.4999828338623,104.49997411499024L45.499982833862305,104.49997411499024C39.98598283386231,104.49997411499024,35.499982833862305,100.01397411499023,35.499982833862305,94.49997411499024L35.499982833862305,65.74997411499024L28.000002833862304,65.74997411499024C26.460112833862304,65.74987411499023,25.076818833862305,64.80837411499024,24.511747833862305,63.375974114990235C23.946675833862304,61.94347411499024,24.314683933862305,60.31117411499024,25.439752833862304,59.259774114990236L61.5647828338623,25.509754114990233C63.005982833862305,24.163250114990234,65.2434828338623,24.163250114990234,66.6847828338623,25.509754114990233L102.8097828338623,59.259774114990236C103.9347828338623,60.311074114990234,104.30278283386231,61.94327411499023,103.7378828338623,63.37567411499023C103.1723828338623,64.80847411499023,101.7892828338623,65.74997411499024,100.2499828338623,65.74997411499024L92.4999828338623,65.74997411499024L92.4999828338623,94.49997411499024C92.4999828338623,100.01397411499023,88.01398283386231,104.49997411499024,82.4999828338623,104.49997411499024ZM37.5069828338623,58.24997411499024L39.249982833862305,58.24997411499024C41.3209828338623,58.24997411499024,42.999982833862305,59.92897411499023,42.999982833862305,61.99997411499024L42.999982833862305,94.49997411499024C42.999982833862305,95.87847411499024,44.1214828338623,96.99997411499024,45.499982833862305,96.99997411499024L82.4999828338623,96.99997411499024C83.87848283386231,96.99997411499024,84.9999828338623,95.87847411499024,84.9999828338623,94.49997411499024L84.9999828338623,61.99997411499024C84.9999828338623,59.92897411499023,86.6789828338623,58.24997411499024,88.7499828338623,58.24997411499024L90.7429828338623,58.24997411499024L64.1249828338623,33.38200411499024L37.5069828338623,58.24997411499024Z" fill="#4988F5" fill-opacity="1" style="mix-blend-mode:passthrough"/></g><g><rect x="52" y="80" width="24" height="10" rx="5" fill="#FFFFFF" fill-opacity="1"/></g></g></svg>