<svg xmlns="http://www.w3.org/2000/svg" xmlns:xlink="http://www.w3.org/1999/xlink" fill="none" version="1.1" width="128" height="128" viewBox="0 0 128 128"><defs><clipPath id="master_svg0_75_0"><rect x="0" y="0" width="128" height="128" rx="0"/></clipPath><filter id="master_svg1_75_424" filterUnits="objectBoundingBox" color-interpolation-filters="sRGB" x="0" y="0" width="1" height="1"><feFlood flood-opacity="0" result="BackgroundImageFix"/><feBlend mode="normal" in="SourceGraphic" in2="BackgroundImageFix" result="shape"/><feGaussianBlur in="BackgroundImageFix" stdDeviation="0"/><feComposite in2="SourceAlpha" operator="in" result="effect1_foregroundBlur"/><feBlend mode="normal" in="SourceGraphic" in2="effect1_foregroundBlur" result="shape"/></filter></defs><g clip-path="url(#master_svg0_75_0)"><g><path d="M104.73688095703125,48L80.26318095703125,48Q76.99998095703126,48,76.99998095703126,51.2L76.99998095703126,52.8Q76.99998095703126,56,80.26318095703125,56L87.99998095703126,56L87.99998095703126,59.4801C76.02894095703125,61.8107,66.99298095703125,72.35040000000001,66.99298095703125,85C66.99298095703125,99.3594,78.63668095703125,111,92.99998095703126,111C107.36328095703125,111,119.00698095703126,99.3594,119.00698095703126,85C119.00698095703126,71.6549,108.95018095703125,60.6581,95.99998095703126,59.171099999999996L95.99998095703126,56L104.73688095703125,56Q107.99998095703126,56,107.99998095703126,52.8L107.99998095703126,51.2Q107.99998095703126,48,104.73688095703125,48Z" fill-rule="evenodd" fill="#49F5E4" fill-opacity="1" style="mix-blend-mode:passthrough"/></g><g><path d="M92.43815,89.9024C91.53862,89.9031,90.67461,89.5701,90.03145,88.9747C89.371006,88.3618,88.999204247,87.52289999999999,89,86.6474L89,75.25497C88.99999314006,73.4573,90.53931,72,92.43815,72C94.33698,72,95.87629,73.4573,95.87629,75.25497L95.87629,83.3924L104.4717,83.21340000000001C106.3717,83.1668,107.9514,84.5881,107.99889999999999,86.3869C108.0464,88.1857,106.5437,89.68,104.64359999999999,89.7233L92.61006,90L92.43815,89.9024Z" fill="#FFFFFF" fill-opacity="1" style="mix-blend-mode:passthrough"/></g><g style="opacity:0.800000011920929;" filter="url(#master_svg1_75_424)"><path d="M32.95669618530273,17.0000197701L16.851006185302733,17.0000197701C13.063576185302734,16.99145411,9.990987775302735,19.90662,10.000016212502734,23.50001C10.000016212502734,27.0899,13.067306185302733,30,16.851006185302733,30L19.999996185302734,30L19.999996185302734,86.0151Q19.999996185302734,99,32.984996185302734,99L89.01499618530273,99Q101.99999618530273,99,101.99999618530273,86.0151L101.99999618530273,30L105.14899618530274,30C108.92899618530274,29.991500000000002,111.99099618530273,27.0863,111.99999618530273,23.50001C111.99999618530273,19.91016,108.93269618530273,17.0000197804,105.14899618530274,17.0000197701L89.04329618530274,17.0000197701L89.01499618530273,17.00000437136L32.984996185302734,17.00000437136L32.95669618530273,17.0000197701Z" fill-rule="evenodd" fill="#4988F5" fill-opacity="1" style="mix-blend-mode:passthrough"/></g><g><path d="M33.79241,42L73.2076,42Q77,42,77,45.5Q77,49,73.2076,49L33.79241,49Q30,49,30,45.5Q30,41.99999850783,33.79241,42Z" fill="#FFFFFF" fill-opacity="1" style="mix-blend-mode:passthrough"/></g><g><path d="M33.86589,61L60.134100000000004,61Q64,61,64,65Q64,69,60.134100000000004,69L33.86589,69Q30,69,30,65Q30,61,33.86589,61Z" fill="#FFFFFF" fill-opacity="1" style="mix-blend-mode:passthrough"/></g></g></svg>