<svg xmlns="http://www.w3.org/2000/svg" xmlns:xlink="http://www.w3.org/1999/xlink" fill="none" version="1.1" width="128" height="128" viewBox="0 0 128 128"><defs><clipPath id="master_svg0_75_05"><rect x="0" y="0" width="128" height="128" rx="0"/></clipPath></defs><g clip-path="url(#master_svg0_75_05)"><g><path d="M84.00002,64L102,64C105.866,64,109,67.13401,109,71L109,106.66669999999999C109,109.6122,101.8366,112,93,112L84,112C80.13401,112,77.00000149441,108.866,77.00000333786,105L77.0000195503,71C77.0000213938,67.134,80.13403,64,84.00002,64" fill="#49F5E4" fill-opacity="1" style="mix-blend-mode:passthrough"/></g><g style="opacity:0.800000011920929;"><path d="M29.33336793823242,111.99999904632568C23.44229793823242,111.99999904632568,18.666667938232422,107.22439904632569,18.666667938232422,101.33329904632568L18.666667938232422,26.666699046325682C18.666667938232422,20.775629046325683,23.44229793823242,15.999999999999684,29.33336793823242,15.999999046325684L77.33336793823241,15.999999046325684C89.11536793823242,15.999999999999684,98.66666793823242,25.551259046325683,98.66666793823242,37.333299046325685L98.66666793823242,106.66669904632569C98.66666793823242,109.61219904632569,101.05446793823242,111.99999904632568,103.99996793823242,111.99999904632568L29.33336793823242,111.99999904632568Z" fill="#4988F5" fill-opacity="1" style="mix-blend-mode:passthrough"/></g><g><path d="M69.98137990112305,47.351996450195315C76.04477990112305,53.41508645019531,76.25057990112305,63.18018645019531,70.44797990112305,69.49328645019531L69.98137990112305,69.98128645019531L60.73867990112305,81.39998645019531C59.671379901123046,82.7172864501953,57.661879901123044,82.7172864501953,56.594679901123044,81.39998645019531L47.351999901123044,69.98128645019531L46.93599990112305,69.54928645019531C40.95151990112305,63.16398645019531,41.207479901123044,53.15538645019531,47.510509901123044,47.08424645019531C53.81357990112305,41.01315645019531,63.82477990112305,41.132436450195314,69.98137990112305,47.351996450195315ZM58.66667990112305,53.33328645019532C55.72117990112305,53.33328645019532,53.333379901123045,55.72118645019531,53.333379901123045,58.666686450195314C53.333379901123045,61.61218645019531,55.72117990112305,63.99998645019531,58.66667990112305,63.99998645019531C61.61217990112304,63.99998645019531,63.99997990112305,61.61218645019531,63.99997990112305,58.666686450195314C63.99997990112305,55.72118645019531,61.61217990112304,53.33328645019532,58.66667990112305,53.33328645019532Z" fill="#FFFFFF" fill-opacity="0.949999988079071" style="mix-blend-mode:passthrough"/></g></g></svg>