<svg xmlns="http://www.w3.org/2000/svg" xmlns:xlink="http://www.w3.org/1999/xlink" fill="none" version="1.1" width="128" height="128" viewBox="0 0 128 128"><defs><clipPath id="master_svg0_75_22"><rect x="0" y="0" width="128" height="128" rx="0"/></clipPath></defs><g clip-path="url(#master_svg0_75_22)"><g><path d="M64.15095,30L104.84899999999999,30C109.9057,30,114,34.085210000000004,114,39.13076L114,103.8692C114,108.9148,109.9058,113,104.84899999999999,113C103.47409999999999,113,102.0992,112.6951,100.8617,112.0854L84.5,104.1741L68.1383,112.0702C63.58571,114.2652,58.11652,112.375,55.916624,107.8325C55.320819,106.5978,55,105.2259,55,103.854L55,39.13076C55,34.085210000000004,59.09425,30,64.15095,30Z" fill="#BFE0FF" fill-opacity="1" style="mix-blend-mode:passthrough"/></g><g><path d="M22.20174,14L84.7829,14C89.8761,14,94,18.10288,94,23.17024L94,104.8298C94,109.8971,89.8761,114,84.7829,114C83.398,114,82.0131,113.6938,80.7667,113.0814L53.5,99.9461L26.2333,113.0814C21.64779,115.286,16.13906,113.3876,13.923252,108.8255C13.323139,107.5854,13,106.2076,13,104.8298L13,23.17024C13,18.10288,17.12386,14,22.20174,14Z" fill="#2670FE" fill-opacity="1" style="mix-blend-mode:passthrough"/></g><g><path d="M54.4928,75.7033L49.2464,78.46940000000001C47.0133,79.6526,44.2448,78.7921,43.06705,76.5331C42.59288,75.6418,42.439930000000004,74.6123,42.60818,73.6134L43.617689999999996,67.7432L39.38082,63.5941C37.575941,61.8269,37.530052,58.9072,39.30434,57.0939C40.00793,56.371610000000004,40.92567,55.89523,41.91988,55.75693L47.77807,54.89637L50.3936,49.56401C51.5102,47.289698,54.263400000000004,46.352309,56.527100000000004,47.474099C57.4296,47.919742,58.163799999999995,48.65736,58.607299999999995,49.56401L61.222899999999996,54.89637L67.08109999999999,55.75693C69.5895,56.125730000000004,71.31790000000001,58.4615,70.9508,60.966300000000004C70.8132,61.965199999999996,70.339,62.8872,69.62010000000001,63.5941L65.38329999999999,67.7432L66.3928,73.6134C66.821,76.1182,65.1385,78.5001,62.6606,78.93039999999999C61.666399999999996,79.0994,60.6416,78.9457,59.7545,78.46940000000001L54.4928,75.7033Z" fill="#FFFFFF" fill-opacity="1" style="mix-blend-mode:passthrough"/></g><g><path d="M64.15095,30L104.84899999999999,30C109.9057,30,114,34.085210000000004,114,39.13076L114,103.8692C114,108.9148,109.9058,113,104.84899999999999,113C103.47409999999999,113,102.0992,112.6951,100.8617,112.0854L84.5,104.1741L68.1383,112.0702C63.58571,114.2652,58.11652,112.375,55.916624,107.8325C55.320819,106.5978,55,105.2259,55,103.854L55,39.13076C55,34.085210000000004,59.09425,30,64.15095,30Z" fill="#49F5E4" fill-opacity="1" style="mix-blend-mode:passthrough"/></g><g style="opacity:0.800000011920929;"><path d="M22.20174,14L84.7829,14C89.8761,14,94,18.10288,94,23.17024L94,104.8298C94,109.8971,89.8761,114,84.7829,114C83.398,114,82.0131,113.6938,80.7667,113.0814L53.5,99.9461L26.2333,113.0814C21.64779,115.286,16.13906,113.3876,13.923252,108.8255C13.323139,107.5854,13,106.2076,13,104.8298L13,23.17024C13,18.10288,17.12386,14,22.20174,14Z" fill="#4988F5" fill-opacity="1" style="mix-blend-mode:passthrough"/></g><g><path d="M54.4928,75.7033L49.2464,78.46940000000001C47.0133,79.6526,44.2448,78.7921,43.06705,76.5331C42.59288,75.6418,42.439930000000004,74.6123,42.60818,73.6134L43.617689999999996,67.7432L39.38082,63.5941C37.575941,61.8269,37.530052,58.9072,39.30434,57.0939C40.00793,56.371610000000004,40.92567,55.89523,41.91988,55.75693L47.77807,54.89637L50.3936,49.56401C51.5102,47.289698,54.263400000000004,46.352309,56.527100000000004,47.474099C57.4296,47.919742,58.163799999999995,48.65736,58.607299999999995,49.56401L61.222899999999996,54.89637L67.08109999999999,55.75693C69.5895,56.125730000000004,71.31790000000001,58.4615,70.9508,60.966300000000004C70.8132,61.965199999999996,70.339,62.8872,69.62010000000001,63.5941L65.38329999999999,67.7432L66.3928,73.6134C66.821,76.1182,65.1385,78.5001,62.6606,78.93039999999999C61.666399999999996,79.0994,60.6416,78.9457,59.7545,78.46940000000001L54.4928,75.7033Z" fill="#FFFFFF" fill-opacity="1" style="mix-blend-mode:passthrough"/></g></g></svg>