<svg xmlns="http://www.w3.org/2000/svg" xmlns:xlink="http://www.w3.org/1999/xlink" fill="none" version="1.1" width="128" height="128" viewBox="0 0 128 128"><defs><clipPath id="master_svg0_75_15"><rect x="0" y="0" width="128" height="128" rx="0"/></clipPath></defs><g clip-path="url(#master_svg0_75_15)"><g><path d="M44.510999999999996,55.358437C45.7935,54.880517,47.2065,54.880517,48.489000000000004,55.358437L68.3207,62.74875C70.53739999999999,63.57481,72.00450000000001,65.6838,72,68.03790000000001L72,83.1446C71.9983,92.74889999999999,66.5407,101.5281,57.9021,105.8227L48.4016,110.5539C47.2044,111.14869999999999,45.7956,111.14869999999999,44.5984,110.5539L35.097899999999996,105.82990000000001C26.45803,101.5359,21.0000069482,92.75319999999999,21,83.1446L21,68.0307C21,65.6759,22.46443,63.57473,24.67929,62.74875L44.510999999999996,55.358437ZM49.3341,82.2244C52.379999999999995,80.4726,53.098,76.41120000000001,50.8357,73.7313C48.5733,71.0514,44.4267,71.0514,42.1643,73.7313C39.902,76.41120000000001,40.620000000000005,80.4726,43.6659,82.2244L43.6659,91.4333C43.6659,92.9899,44.9347,94.2518,46.5,94.2518C48.0653,94.2518,49.3341,92.9899,49.3341,91.4333L49.3341,82.2316L49.3341,82.2244Z" fill="#49F5E4" fill-opacity="1" style="mix-blend-mode:passthrough"/></g><g style="opacity:0.800000011920929;"><path d="M64,64C77.2548,64,88,53.2548,88,40C88,26.7452,77.2548,16,64,16C50.7452,16,40,26.7452,40,40C40,53.2548,50.7452,64,64,64ZM107.868,100.4C107.868,86.04,96.74,74.4,83.01599999999999,74.4L48.848,74.4C35.128,74.4,24,86.04,24,100.4L24,105.6C24,111.344,28.451999999999998,116,33.94,116L97.928,116C103.416,116,107.868,111.344,107.868,105.6L107.868,100.4ZM118.548,48.824C116.6449,46.7909,113.4191,46.7909,111.516,48.824L100.972,59.856L97.46,56.176L96.992,55.744C95.0331,54.137,92.1633,54.326,90.432,56.176C88.4899,58.2435,88.4899,61.4646,90.432,63.532L97.46,70.884L97.928,71.316C99.876,72.904,102.696,72.756,104.488,70.884L118.544,56.176L118.96,55.688C120.4925,53.5984,120.3176,50.7132,118.544,48.824L118.548,48.824Z" fill="#4988F5" fill-opacity="1" style="mix-blend-mode:passthrough"/></g><g style="opacity:0.800000011920929;"><path d="M90.4320009790039,56.17600093017578C88.48992197900391,58.24344093017578,88.48992197900391,61.46454093017578,90.4320009790039,63.53204093017578L97.46000097900391,70.88404093017579L97.92800097900391,71.31604093017577C99.8760409790039,72.90404093017578,102.69604097900391,72.75604093017579,104.48804097900391,70.88404093017579L118.54404097900391,56.17600093017578L118.9600409790039,55.68800093017578C120.4924409790039,53.59839093017578,120.3176409790039,50.71324093017578,118.54404097900391,48.82400093017578L118.5480409790039,48.82400093017578C116.6448409790039,46.79085493017578,113.41914097900391,46.79085493017578,111.5160409790039,48.82400093017578L100.9720409790039,59.85604093017578L97.46000097900391,56.17600093017578L96.9920009790039,55.74400093017578C95.03308097900391,54.137010930175784,92.1632509790039,54.32600093017578,90.4320009790039,56.17600093017578Z" fill="#FFFFFF" fill-opacity="1" style="mix-blend-mode:passthrough"/></g></g></svg>