<svg xmlns="http://www.w3.org/2000/svg" xmlns:xlink="http://www.w3.org/1999/xlink" fill="none" version="1.1" width="128" height="128" viewBox="0 0 128 128"><defs><clipPath id="master_svg0_74_050"><rect x="0" y="0" width="128" height="128" rx="0"/></clipPath></defs><g clip-path="url(#master_svg0_74_050)"><g><path d="M90.9863,77.00004926757813C96.1138,77.00004926757813,100.27,72.84374926757812,100.27,67.71654926757813L100.27,37.54524926757813C100.27,32.417999267578125,96.1138,28.261749267578125,90.9863,28.261749267578125L45.033500000000004,28.261749267578125C39.9065,28.261749267578125,35.75,32.417999267578125,35.75,37.54524926757813L35.75,46.68024926757813" fill="#C5D4E8" fill-opacity="1" style="mix-blend-mode:passthrough"/></g><g><path d="M90.9863,80.75004926757813L90.9863,73.25004926757813C94.0375,73.25004926757813,96.52,70.76774926757813,96.52,67.71654926757813L96.52,37.54524926757813C96.52,34.493999267578126,94.0375,32.011749267578125,90.9863,32.011749267578125L45.033500000000004,32.011749267578125C41.98225,32.011749267578125,39.5,34.493999267578126,39.5,37.54524926757813L39.5,46.68024926757813L32,46.68024926757813L32,37.54524926757813C32,30.358499267578125,37.84675,24.511749267578125,45.033500000000004,24.511749267578125L90.9865,24.511749267578125C98.1732,24.511749267578125,104.0202,30.358499267578125,104.0202,37.54524926757813L104.0202,67.71654926757813C104.02,74.90324926757813,98.173,80.75004926757813,90.9863,80.75004926757813Z" fill="#D3E0F1" fill-opacity="1" style="mix-blend-mode:passthrough"/></g><g><path d="M38.315,90.25L34,90.25C30.54825,90.25,27.75,87.45179999999999,27.75,84L27.75,51.5C27.75,48.04825,30.54825,45.25,34,45.25L83.5,45.25C86.95179999999999,45.25,89.75,48.04825,89.75,51.5L89.75,84C89.75,87.45179999999999,86.95179999999999,90.25,83.5,90.25L59.2,90.25L48.7578,100.6925L38.315,90.25Z" fill="#4988F5" fill-opacity="1" style="mix-blend-mode:passthrough"/></g><g><path d="M48.7578,104.4425C47.7629,104.4439,46.8086,104.04849999999999,46.106300000000005,103.344L36.7617,94L34,94C28.486,94,24,89.51400000000001,24,84L24,51.5C24,45.986,28.486,41.5,34,41.5L83.5,41.5C89.014,41.5,93.5,45.986,93.5,51.5L93.5,84C93.5,89.51400000000001,89.014,94,83.5,94L60.7533,94L51.4095,103.344C50.707,104.0484,49.7526,104.44380000000001,48.7578,104.4425ZM34,49C32.6215,49,31.5,50.1215,31.5,51.5L31.5,84C31.5,85.3785,32.6215,86.5,34,86.5L38.315,86.5C39.3095,86.5,40.2632,86.89500000000001,40.966499999999996,87.5985L48.7578,95.38929999999999L56.5483,87.5985C57.2516,86.8951,58.2054,86.5,59.2,86.5L83.5,86.5C84.8785,86.5,86,85.3785,86,84L86,51.5C86,50.1215,84.8785,49,83.5,49L34,49Z" fill="#4988F5" fill-opacity="1" style="mix-blend-mode:passthrough"/></g><g><path d="M74,65.75L41.25,65.75C39.179,65.75,37.5,64.071,37.5,62C37.5,59.929,39.179,58.25,41.25,58.25L74,58.25C76.071,58.25,77.75,59.929,77.75,62C77.75,64.071,76.071,65.75,74,65.75ZM60.25,79.75L41.25,79.75C39.179,79.75,37.5,78.071,37.5,76C37.5,73.929,39.179,72.25,41.25,72.25L60.25,72.25C62.321,72.25,64,73.929,64,76C64,78.071,62.321,79.75,60.25,79.75Z" fill="#FFFFFF" fill-opacity="1" style="mix-blend-mode:passthrough"/></g></g></svg>