<svg xmlns="http://www.w3.org/2000/svg" xmlns:xlink="http://www.w3.org/1999/xlink" fill="none" version="1.1" width="128" height="128" viewBox="0 0 128 128"><defs><clipPath id="master_svg0_74_31"><rect x="0" y="0" width="128" height="128" rx="0"/></clipPath></defs><g clip-path="url(#master_svg0_74_31)"><g><path d="M64,64.5C52.972,64.5,44,55.528,44,44.5C44,33.472,52.972,24.5,64,24.5C75.02799999999999,24.5,84,33.472,84,44.5C84,55.528,75.02799999999999,64.5,64,64.5ZM64,32C57.1075,32,51.5,37.6075,51.5,44.5C51.5,51.3925,57.1075,57,64,57C70.8925,57,76.5,51.3925,76.5,44.5C76.5,37.6075,70.8925,32,64,32Z" fill="#797979" fill-opacity="1" style="mix-blend-mode:passthrough"/></g><g><path d="M87.25,104.5L40.75,104.5C31.514,104.5,24,96.986,24,87.75C24,78.514,31.514,71,40.75,71L87.25,71C96.486,71,104,78.514,104,87.75C104,96.986,96.486,104.5,87.25,104.5ZM40.75,78.5C35.6495,78.5,31.5,82.6497,31.5,87.75C31.5,92.8503,35.6495,97,40.75,97L87.25,97C92.3503,97,96.5,92.8503,96.5,87.75C96.5,82.6497,92.3503,78.5,87.25,78.5L40.75,78.5Z" fill="#797979" fill-opacity="1" style="mix-blend-mode:passthrough"/></g><g><path d="M89.607,91.40574645996094L69.625,91.40574645996094C67.554,91.40574645996094,65.875,89.72674645996094,65.875,87.65574645996094C65.875,85.58474645996094,67.554,83.90574645996094,69.625,83.90574645996094L89.607,83.90574645996094C91.678,83.90574645996094,93.357,85.58474645996094,93.357,87.65574645996094C93.357,89.72674645996094,91.678,91.40574645996094,89.607,91.40574645996094Z" fill="#9B9B9B" fill-opacity="1" style="mix-blend-mode:passthrough"/></g></g></svg>