<svg xmlns="http://www.w3.org/2000/svg" xmlns:xlink="http://www.w3.org/1999/xlink" fill="none" version="1.1" width="128" height="128" viewBox="0 0 128 128"><defs><clipPath id="master_svg0_74_174"><rect x="0" y="0" width="128" height="128" rx="0"/></clipPath></defs><g clip-path="url(#master_svg0_74_174)"><g><path d="M84,44.500003814697266Q84,44.991003814697265,83.9759,45.481403814697266Q83.95179999999999,45.971703814697264,83.9037,46.46030381469727Q83.85560000000001,46.94890381469726,83.7835,47.43460381469727Q83.7115,47.92030381469726,83.6157,48.40180381469727Q83.5199,48.883303814697264,83.4006,49.359603814697266Q83.2813,49.83590381469726,83.1388,50.30570381469727Q82.99629999999999,50.77550381469727,82.8309,51.237803814697266Q82.66550000000001,51.700103814697265,82.4776,52.153703814697266Q82.28970000000001,52.60730381469726,82.0798,53.05110381469727Q81.8699,53.49490381469727,81.63839999999999,53.92790381469727Q81.407,54.36090381469727,81.1546,54.78200381469726Q80.9022,55.20320381469726,80.6294,55.61140381469727Q80.3566,56.01960381469726,80.0642,56.41400381469727Q79.77170000000001,56.80830381469727,79.4602,57.187903814697265Q79.14869999999999,57.567403814697265,78.819,57.93120381469726Q78.4893,58.29500381469727,78.1421,58.642103814697265Q77.795,58.989303814697266,77.43119999999999,59.31900381469727Q77.06739999999999,59.648703814697264,76.6879,59.960203814697266Q76.3083,60.27170381469727,75.914,60.56410381469727Q75.5196,60.856603814697266,75.1114,61.12940381469726Q74.7032,61.402203814697266,74.2821,61.65460381469727Q73.8609,61.90700381469726,73.4279,62.13840381469726Q72.9949,62.36990381469727,72.5511,62.579803814697264Q72.1073,62.78970381469727,71.6537,62.97760381469727Q71.20009999999999,63.16550381469727,70.7378,63.330903814697265Q70.2755,63.496303814697264,69.8057,63.63880381469727Q69.3359,63.78130381469727,68.8596,63.90060381469726Q68.38329999999999,64.01990381469727,67.90180000000001,64.11570381469727Q67.4203,64.21150381469727,66.9346,64.28350381469727Q66.449,64.35560381469728,65.9603,64.40370381469727Q65.4717,64.45180381469726,64.98140000000001,64.47590381469726Q64.491,64.50000381469727,64,64.50000381469727Q63.509,64.50000381469727,63.018699999999995,64.47590381469726Q62.5283,64.45180381469726,62.039699999999996,64.40370381469727Q61.551100000000005,64.35560381469728,61.0654,64.28350381469727Q60.5797,64.21150381469727,60.0982,64.11570381469727Q59.6167,64.01990381469727,59.1404,63.90060381469726Q58.6641,63.78130381469727,58.1943,63.63880381469727Q57.7245,63.496303814697264,57.2622,63.330903814697265Q56.7999,63.16550381469727,56.3463,62.97760381469727Q55.8927,62.78970381469727,55.4489,62.579803814697264Q55.0051,62.36990381469727,54.5721,62.13840381469726Q54.1391,61.90700381469726,53.71795,61.65460381469727Q53.29682,61.402203814697266,52.8886,61.12940381469726Q52.48037,60.856603814697266,52.08601,60.56410381469727Q51.69166,60.27170381469727,51.31214,59.960203814697266Q50.93261,59.648703814697264,50.56882,59.31900381469727Q50.20503,58.989303814697266,49.85787,58.642103814697265Q49.5107,58.29500381469727,49.18098,57.93120381469726Q48.851259999999996,57.567403814697265,48.539789999999996,57.187903814697265Q48.22832,56.80830381469727,47.93585,56.41400381469727Q47.64338,56.01960381469726,47.37061,55.61140381469727Q47.09784,55.20320381469726,46.84543,54.78200381469726Q46.59302,54.36090381469727,46.361580000000004,53.92790381469727Q46.13013,53.49490381469727,45.92021,53.05110381469727Q45.7103,52.60730381469726,45.52241,52.153703814697266Q45.33452,51.700103814697265,45.16912,51.237803814697266Q45.00372,50.77550381469727,44.861193,50.30570381469727Q44.718672,49.83590381469726,44.599375,49.359603814697266Q44.480078,48.883303814697264,44.384294,48.40180381469727Q44.28851,47.92030381469726,44.21647,47.43460381469727Q44.144429,46.94890381469726,44.0963055,46.46030381469727Q44.0481818,45.971703814697264,44.0240909,45.481403814697266Q44,44.991003814697265,44,44.500003814697266Q44,44.009003814697266,44.0240909,43.518603814697265Q44.0481818,43.02830381469727,44.0963055,42.53970381469726Q44.144429,42.05100381469727,44.21647,41.56540381469726Q44.28851,41.07970381469727,44.384294,40.598203814697264Q44.480078,40.11670381469727,44.599375,39.640403814697265Q44.718672,39.16410381469726,44.861193,38.694303814697264Q45.00372,38.224503814697265,45.16912,37.762203814697266Q45.33452,37.29990381469727,45.52241,36.846303814697265Q45.7103,36.39270381469726,45.92021,35.94890381469727Q46.13013,35.505103814697264,46.361580000000004,35.072103814697265Q46.59302,34.639103814697265,46.84543,34.217943814697264Q47.09784,33.79682381469726,47.37061,33.388593814697266Q47.64338,32.98036381469726,47.93585,32.58601381469727Q48.22832,32.191663814697264,48.539789999999996,31.812133814697265Q48.851259999999996,31.432613814697266,49.18098,31.068823814697264Q49.5107,30.705033814697266,49.85787,30.357863814697264Q50.20503,30.010693814697266,50.56882,29.680983814697264Q50.93261,29.351263814697266,51.31214,29.039793814697266Q51.69166,28.728323814697266,52.08601,28.435853814697264Q52.48037,28.143383814697266,52.8886,27.870613814697265Q53.29682,27.597843814697267,53.71795,27.345433814697266Q54.1391,27.093023814697265,54.5721,26.861573814697266Q55.0051,26.630133814697267,55.4489,26.420213814697266Q55.8927,26.210303814697266,56.3463,26.022413814697266Q56.7999,25.834523814697267,57.2622,25.669123814697265Q57.7245,25.503713814697267,58.1943,25.361196814697266Q58.6641,25.218674814697266,59.1404,25.099378814697264Q59.6167,24.980081814697265,60.0982,24.884297814697266Q60.5797,24.788513814697264,61.0654,24.716473814697267Q61.551100000000005,24.644432814697264,62.039699999999996,24.596309314697265Q62.5283,24.548185514697266,63.018699999999995,24.524094714697267Q63.509,24.500003814697266,64,24.500003814697266Q64.491,24.500003814697266,64.98140000000001,24.524094714697267Q65.4717,24.548185514697266,65.9603,24.596309314697265Q66.449,24.644432814697264,66.9346,24.716473814697267Q67.4203,24.788513814697264,67.90180000000001,24.884297814697266Q68.38329999999999,24.980081814697265,68.8596,25.099378814697264Q69.3359,25.218674814697266,69.8057,25.361196814697266Q70.2755,25.503713814697267,70.7378,25.669123814697265Q71.20009999999999,25.834523814697267,71.6537,26.022413814697266Q72.1073,26.210303814697266,72.5511,26.420213814697266Q72.9949,26.630133814697267,73.4279,26.861573814697266Q73.8609,27.093023814697265,74.2821,27.345433814697266Q74.7032,27.597843814697267,75.1114,27.870613814697265Q75.5196,28.143383814697266,75.914,28.435853814697264Q76.3083,28.728323814697266,76.6879,29.039793814697266Q77.06739999999999,29.351263814697266,77.43119999999999,29.680983814697264Q77.795,30.010693814697266,78.1421,30.357863814697264Q78.4893,30.705033814697266,78.819,31.068823814697264Q79.14869999999999,31.432613814697266,79.4602,31.812133814697265Q79.77170000000001,32.191663814697264,80.0642,32.58601381469727Q80.3566,32.98036381469726,80.6294,33.388593814697266Q80.9022,33.79682381469726,81.1546,34.217943814697264Q81.407,34.639103814697265,81.63839999999999,35.072103814697265Q81.8699,35.505103814697264,82.0798,35.94890381469727Q82.28970000000001,36.39270381469726,82.4776,36.846303814697265Q82.66550000000001,37.29990381469727,82.8309,37.762203814697266Q82.99629999999999,38.224503814697265,83.1388,38.694303814697264Q83.2813,39.16410381469726,83.4006,39.640403814697265Q83.5199,40.11670381469727,83.6157,40.598203814697264Q83.7115,41.07970381469727,83.7835,41.56540381469726Q83.85560000000001,42.05100381469727,83.9037,42.53970381469726Q83.95179999999999,43.02830381469727,83.9759,43.518603814697265Q84,44.009003814697266,84,44.500003814697266Z" fill="#4988F5" fill-opacity="1" style="mix-blend-mode:passthrough"/></g><g><path d="M64,64.5C52.972,64.5,44,55.528,44,44.5C44,33.472,52.972,24.5,64,24.5C75.02799999999999,24.5,84,33.472,84,44.5C84,55.528,75.02799999999999,64.5,64,64.5ZM64,32C57.1075,32,51.5,37.6075,51.5,44.5C51.5,51.3925,57.1075,57,64,57C70.8925,57,76.5,51.3925,76.5,44.5C76.5,37.6075,70.8925,32,64,32Z" fill="#4988F5" fill-opacity="1" style="mix-blend-mode:passthrough"/></g><g><path d="M40.75,71L87.25,71C96.5007,71,104,78.49925,104,87.75C104,97.0007,96.5007,104.5,87.25,104.5L40.75,104.5C31.49925,104.5,24,97.0007,24,87.75C24,78.49925,31.49925,71,40.75,71Z" fill="#4988F5" fill-opacity="1" style="mix-blend-mode:passthrough"/></g><g><path d="M87.25,104.5L40.75,104.5C31.514,104.5,24,96.986,24,87.75C24,78.514,31.514,71,40.75,71L87.25,71C96.486,71,104,78.514,104,87.75C104,96.986,96.486,104.5,87.25,104.5ZM40.75,78.5C35.6495,78.5,31.5,82.6497,31.5,87.75C31.5,92.8503,35.6495,97,40.75,97L87.25,97C92.3503,97,96.5,92.8503,96.5,87.75C96.5,82.6497,92.3503,78.5,87.25,78.5L40.75,78.5Z" fill="#4988F5" fill-opacity="1" style="mix-blend-mode:passthrough"/></g><g><path d="M89.607,91.40574645996094L69.625,91.40574645996094C67.554,91.40574645996094,65.875,89.72674645996094,65.875,87.65574645996094C65.875,85.58474645996094,67.554,83.90574645996094,69.625,83.90574645996094L89.607,83.90574645996094C91.678,83.90574645996094,93.357,85.58474645996094,93.357,87.65574645996094C93.357,89.72674645996094,91.678,91.40574645996094,89.607,91.40574645996094Z" fill="#DFECFD" fill-opacity="1" style="mix-blend-mode:passthrough"/></g></g></svg>