<svg xmlns="http://www.w3.org/2000/svg" xmlns:xlink="http://www.w3.org/1999/xlink" fill="none" version="1.1" width="128" height="128" viewBox="0 0 128 128"><defs><clipPath id="master_svg0_74_161"><rect x="0" y="0" width="128" height="128" rx="0"/></clipPath></defs><g clip-path="url(#master_svg0_74_161)"><g><path d="M88.7188,24.5C94.5007,24.5,99.1875,29.187,99.1875,34.9688L99.1875,49.9095L78.25,49.9095L78.25,34.9688C78.25,29.187,82.937,24.5,88.7188,24.5Z" fill="#DFECFD" fill-opacity="1" style="mix-blend-mode:passthrough"/></g><g><path d="M96.55000762939453,55.75L85.70000762939453,55.75C81.59200762939453,55.75,78.25000762939453,52.408,78.25000762939453,48.3L78.25000762939453,37.375C78.25000762939453,30.275750000000002,84.02575762939453,24.5,91.12500762939453,24.5C98.22430762939453,24.5,104.00000762939453,30.275750000000002,104.00000762939453,37.375L104.00000762939453,48.3C104.00000762939453,52.408,100.65800762939453,55.75,96.55000762939453,55.75ZM85.74999762939453,48.25L96.50000762939453,48.25L96.50000762939453,37.375C96.50000762939453,34.41125,94.08870762939453,32,91.12500762939453,32C88.16124762939452,32,85.74999762939453,34.41125,85.74999762939453,37.375L85.74999762939453,48.25Z" fill="#4988F5" fill-opacity="1" style="mix-blend-mode:passthrough"/></g><g><path d="M82.01701491394043,37.24999941162109Q82.01701491394043,53.10520941162109,81.98001491394044,91.7000094116211Q81.98001491394044,96.70400941162109,82.00001491394043,100.7500094116211L54.00001491394043,90.1282094116211L27.73724941394043,100.7500094116211C27.72924991394043,93.24600941162109,27.73724941394043,96.7030094116211,27.73724941394043,91.7000094116211L27.73724941394043,37.33824941162109Q27.15874891394043,28.272249211621094,36.68050491394043,28.232498211621095Q46.20221491394043,28.192749011621093,91.17021491394043,28.249998111621093" fill="#4988F5" fill-opacity="1" style="mix-blend-mode:passthrough"/></g><g><path d="M81.99974531860352,104.49999850158692C81.55124531860352,104.49999850158692,81.10074531860351,104.41969850158691,80.67004531860351,104.25599850158692L54.044045318603516,94.15549850158692L29.143495318603517,104.22619850158691C26.679895318603517,105.22289850158691,23.990032198603515,103.41129850158691,23.987499238603515,100.75369850158691C23.982500078603515,96.20819850158692,23.983499528603517,95.67699850158691,23.985248568603517,94.85999850158692C23.986248018603515,94.32769850158691,23.987499238603515,93.67369850158691,23.987499238603515,91.69969850158691L23.987499238603515,37.426998501586915C23.946748718603516,36.40629850158692,23.956998818603516,31.721998501586913,27.266745318603515,28.179748501586914C28.831995318603518,26.504498501586916,31.732995318603514,24.503248201586914,36.66524531860352,24.482498201586914C46.088545318603515,24.443498601586914,90.72574531860351,24.499498401586916,91.17574531860352,24.499998101586915L91.16604531860352,31.999998501586916C90.71624531860351,31.999248501586912,46.099245318603515,31.942748501586912,36.69674531860352,31.982498501586914C34.86024531860352,31.989998501586914,33.56825531860352,32.420998501586915,32.74724531860352,33.29999850158691C31.439495318603516,34.699498501586916,31.478745318603515,37.07649850158691,31.480245318603515,37.099498501586915C31.485245318603518,37.17899850158692,31.487745318603515,37.25869850158691,31.487745318603515,37.33849850158691L31.487745318603515,91.69999850158692C31.487745318603515,93.68299850158691,31.486495318603517,94.33999850158692,31.485495318603515,94.87449850158691L31.484995318603517,95.18949850158691L52.594545318603515,86.65199850158692C53.470145318603514,86.29759850158692,54.44734531860352,86.2868985015869,55.33054531860351,86.62229850158691L78.23354531860352,95.31049850158692C78.23154531860351,94.20199850158691,78.23024531860352,92.98099850158691,78.23024531860352,91.70029850158691C78.23074531860351,91.31049850158692,78.26724531860351,52.922498501586915,78.26724531860351,37.250198501586915L85.76724531860351,37.250198501586915C85.76724531860351,52.92599850158692,85.73074531860351,91.31799850158691,85.73024531860352,91.70379850158692C85.73024531860352,96.63629850158691,85.75004531860353,100.69129850158691,85.75024531860352,100.73149850158691C85.75994531860351,102.80989850158691,84.07794531860353,104.49999850158692,81.99974531860352,104.49999850158692Z" fill="#4988F5" fill-opacity="1" style="mix-blend-mode:passthrough"/></g><g><path d="M51.970995955810544,73.44574784545898C51.02350595581055,73.44574784545898,50.075245955810544,73.08874784545898,49.34549595581055,72.37304784545898C47.867000955810546,70.92274784545899,47.84400195581055,68.54854784545898,49.29400595581055,67.07004784545899L64.35648595581054,51.71224784545898C65.80678595581054,50.23350184545898,68.18128595581055,50.210498845458986,69.65948595581054,51.660747845458985C71.13828595581055,53.11099784545898,71.16128595581054,55.485247845458986,69.71098595581054,56.96374784545898L54.64850595581055,72.32124784545898C53.94403595581055,73.04164784545898,52.97857595581055,73.44704784545898,51.970995955810544,73.44574784545898Z" fill="#FFFFFF" fill-opacity="1" style="mix-blend-mode:passthrough"/></g><g><path d="M51.97220396118164,73.44275834960938C51.01395396118164,73.44395834960937,50.09182396118164,73.07695834960937,49.396503961181644,72.41745834960938L42.64000396118164,66.02849834960938C41.13500196118164,64.60574834960937,41.06875196118164,62.23199834960938,42.491753961181644,60.727248349609376C43.91450396118164,59.22199634960938,46.28825396118164,59.15599434960937,47.79300396118164,60.57899834960938L54.54950396118164,66.96773834960938C56.05450396118164,68.39073834960938,56.12080396118164,70.76425834960938,54.69770396118164,72.26895834960938C53.99000396118164,73.01935834960938,53.00370396118164,73.44415834960938,51.97220396118164,73.44275834960938Z" fill="#FFFFFF" fill-opacity="1" style="mix-blend-mode:passthrough"/></g></g></svg>