<svg xmlns="http://www.w3.org/2000/svg" xmlns:xlink="http://www.w3.org/1999/xlink" fill="none" version="1.1" width="128" height="128" viewBox="0 0 128 128"><defs><clipPath id="master_svg0_74_41"><rect x="0" y="0" width="128" height="128" rx="0"/></clipPath></defs><g clip-path="url(#master_svg0_74_41)"><g><path d="M94.85710381469727,19.309712590942382C94.85710381469727,17.481142590942383,93.32110381469727,15.999999045942383,91.42860381469727,15.999999045942383C89.56770381469727,15.966886490942382,88.03250381469726,17.448862590942383,88.00000381469727,19.309712590942382L88.00000381469727,22.619422590942385L40.000003814697266,22.619422590942385L40.000003814697266,19.309712590942382C40.000003814697266,17.481142590942383,38.464003814697264,15.999997138942383,36.57140381469726,15.999997138942383C34.710603814697265,15.966885590942383,33.17540381469726,17.448862590942383,33.14290381469726,19.309712590942382L33.14290381469726,22.619422590942385L26.285703814697264,22.619422590942385C20.603433814697265,22.619422590942385,16.000003814697266,27.06745259094238,16.000003814697266,32.55315259094238L16.000003814697266,42.48225259094238L112.00000381469727,42.48225259094238L112.00000381469727,32.55315259094238C112.00000381469727,27.06745259094238,107.39660381469727,22.61943259094238,101.71430381469726,22.61943259094238L94.85710381469727,22.61943259094238L94.85710381469727,19.309712590942382Z" fill="#87F7FF" fill-opacity="1" style="mix-blend-mode:passthrough"/></g><g><path d="M112,47.44228744506836L112,102.07088744506837C112,107.55658744506836,107.3966,111.99998744506836,101.7143,111.99998744506836L26.2857,111.99998744506836C20.60343,111.99998744506836,16,107.55198744506836,16,102.07088744506837L16,47.44685745506836L111.072,47.44685745506836L112,47.44228744506836ZM37.9429,67.95888744506836C37.9429,65.39888744506837,40.018299999999996,63.32338744506836,42.5783,63.32338744506836L85.4217,63.32338744506836C87.9818,63.32338744506836,90.0571,65.39878744506836,90.0571,67.95888744506836C90.0571,70.51888744506836,87.9818,72.59428744506836,85.4217,72.59428744506836L64,72.59428744506836L42.5783,72.59428744506836C40.018299999999996,72.59428744506836,37.9429,70.51888744506836,37.9429,67.95888744506836ZM42.5783,84.50738744506836C40.0182,84.50738744506836,37.9429,86.58278744506836,37.9429,89.14288744506837C37.9429,91.70288744506836,40.0182,93.77828744506836,42.5783,93.77828744506836L66.2217,93.77828744506836C68.7239,93.69968744506835,70.7116,91.64858744506836,70.7116,89.14518744506836C70.7116,86.64168744506836,68.7239,84.59058744506837,66.2217,84.51198744506836L42.5783,84.51198744506836L42.5783,84.50738744506836Z" fill="#4988FD" fill-opacity="1" style="mix-blend-mode:passthrough"/></g></g></svg>