<svg xmlns="http://www.w3.org/2000/svg" xmlns:xlink="http://www.w3.org/1999/xlink" width="181.5399932861328" height="23" viewBox="0 0 160.71383666992188 20.350006103515625" fill="none">
    <g opacity="1" transform="translate(0 0)  rotate(0)">
        <path id="并集" fill-rule="evenodd" fill="url(#linear_0)" opacity="1"
              d="M22.07,5.78zM22.07,14.57zM18.82,0c0.12,0 0.24,0 0.36,0.01c0.57,0.02 1.15,0.08 1.72,0.19c0.66,0.15 1.3,0.34 1.93,0.6c0.61,0.26 1.2,0.57 1.75,0.94c0.02,0.01 0.05,0.03 0.07,0.04c0.67,0.42 1.12,1.16 1.12,2.01c0,1.31 -1.07,2.36 -2.4,2.36c-0.48,0 -0.93,-0.13 -1.3,-0.37c-0.34,-0.25 -0.71,-0.45 -1.1,-0.62c-0.58,-0.24 -1.18,-0.38 -1.81,-0.42c-0.11,-0.01 -0.23,-0.01 -0.34,-0.01c-0.76,0 -1.47,0.14 -2.15,0.43c-0.04,0.02 -0.08,0.03 -0.12,0.05c-0.61,0.27 -1.16,0.65 -1.63,1.12c-0.51,0.5 -0.91,1.07 -1.19,1.73c-0.28,0.67 -0.42,1.37 -0.42,2.11c0,0.75 0.14,1.45 0.42,2.12c0.28,0.65 0.68,1.23 1.19,1.73c0.51,0.51 1.09,0.89 1.75,1.17c0.68,0.28 1.39,0.42 2.15,0.42c0.12,0 0.24,0 0.36,-0.01c0.62,-0.03 1.21,-0.17 1.79,-0.41c0.39,-0.17 0.76,-0.37 1.1,-0.62c0.37,-0.24 0.82,-0.37 1.3,-0.37c1.33,0 2.4,1.05 2.4,2.36c0,0.85 -0.45,1.58 -1.12,2.01c-0.02,0.01 -0.05,0.02 -0.07,0.03c-0.55,0.37 -1.14,0.68 -1.75,0.95c-0.63,0.26 -1.27,0.45 -1.93,0.59c-0.57,0.12 -1.15,0.18 -1.72,0.2c-0.12,0.01 -0.24,0.01 -0.36,0.01c-0.7,0 -1.39,-0.07 -2.08,-0.21c-0.67,-0.14 -1.31,-0.33 -1.94,-0.59c-0.61,-0.27 -1.19,-0.58 -1.75,-0.95c-0.55,-0.36 -1.05,-0.77 -1.52,-1.24c-0.47,-0.45 -0.89,-0.96 -1.26,-1.5c-0.37,-0.55 -0.69,-1.12 -0.95,-1.72c-0.04,-0.08 -0.07,-0.16 -0.1,-0.24c-0.21,-0.54 -0.38,-1.11 -0.51,-1.67c-0.14,-0.69 -0.2,-1.37 -0.2,-2.06c0,-0.69 0.06,-1.37 0.2,-2.05c0.15,-0.65 0.34,-1.29 0.61,-1.91c0.01,-0.04 0.03,-0.07 0.05,-0.11c0.25,-0.56 0.55,-1.1 0.9,-1.62c0.02,-0.03 0.05,-0.07 0.07,-0.1c0.35,-0.5 0.75,-0.97 1.19,-1.4c0.05,-0.06 0.11,-0.11 0.17,-0.18c0.42,-0.39 0.87,-0.74 1.35,-1.06c0.07,-0.05 0.14,-0.09 0.21,-0.14c0.49,-0.31 1.01,-0.57 1.54,-0.8c0.08,-0.03 0.16,-0.07 0.24,-0.09c0.55,-0.22 1.12,-0.38 1.7,-0.51c0.69,-0.13 1.38,-0.2 2.08,-0.2zM2.5,20c-0.4,0 -2.38,-0.45 -2.38,-4.14l-0.12,-13.86c0,-1 0.6,-1 1,-1h1c0.4,0 3,-0.08 3,3v15c0,1 -0.6,1 -1,1z"></path>
        <path id="文本 1" fill-rule="evenodd" style="fill:currentcolor" opacity="1"
              d="M40.1538,5.30691h2.92v12.38999h-2.92zM53.0338,17.3769c-1.36,0.55 -2.8,0.55 -2.8,0.55c-1.5,0 -2.76,-0.61 -2.76,-0.61c-1.27,-0.62 -2.01,-1.74 -2.01,-1.74c-0.75,-1.12 -0.75,-2.59 -0.75,-2.59c0,-1.54 0.71,-2.69 0.71,-2.69c0.71,-1.14999 1.94,-1.75999 1.94,-1.75999c1.23,-0.61 2.75,-0.61 2.75,-0.61c1.38,0 2.8,0.49 2.8,0.49v2.17999c-1.08,-0.46 -2.22,-0.46 -2.22,-0.46c-1.39,0 -2.31,0.66 -2.31,0.66c-0.92,0.67 -0.92,2.19 -0.92,2.19c0,0.87 0.47,1.47 0.47,1.47c0.48,0.6 1.24,0.91 1.24,0.91c0.76,0.31 1.61,0.31 1.61,0.31c0.66,0 1.25,-0.19 1.25,-0.19c0.59,-0.18 1,-0.52 1,-0.52zM63.1338,17.1769c-0.67,0.41 -1.56,0.6 -1.56,0.6c-0.9,0.2 -1.73,0.2 -1.73,0.2c-2.83,0 -4.29,-1.35 -4.29,-1.35c-1.46,-1.34 -1.46,-3.76 -1.46,-3.76c0,-2.41 1.3,-3.68999 1.3,-3.68999c1.3,-1.29 3.55,-1.29 3.55,-1.29c2.23,0 3.53,1.29 3.53,1.29c1.3,1.27999 1.3,3.68999 1.3,3.68999c0,0.26 -0.04,0.76 -0.04,0.76h-6.88c0.39,2.28 2.99,2.28 2.99,2.28c1.82,0 3.29,-1.08 3.29,-1.08zM58.9438,9.90691c-0.74,0 -1.27,0.43999 -1.27,0.43999c-0.52,0.45 -0.73,1.29 -0.73,1.29h4.16c-0.23,-0.88 -0.8,-1.3 -0.8,-1.3c-0.56,-0.42999 -1.36,-0.42999 -1.36,-0.42999zM69.9638,5.30691h8.21v2.39h-5.29v2.68999h4.57v2.23h-4.57v5.08h-2.92zM82.6538,8.13691v9.55999h-2.83v-9.55999zM79.8238,4.08691h2.83v2.83h-2.83zM87.4838,8.13691v1.03c0.46,-0.5 1.1,-0.77 1.1,-0.77c0.65,-0.28 1.29,-0.28 1.29,-0.28c0.44,0 0.83,0.13 0.83,0.13v2.16999c-0.5,-0.12 -0.94,-0.12 -0.94,-0.12c-0.67,0 -1.27,0.22 -1.27,0.22c-0.61,0.22 -1.01,0.7 -1.01,0.7v6.48h-2.83v-9.55999zM100.554,17.1769c-0.6702,0.41 -1.5602,0.6 -1.5602,0.6c-0.9,0.2 -1.73,0.2 -1.73,0.2c-2.83,0 -4.29,-1.35 -4.29,-1.35c-1.46,-1.34 -1.46,-3.76 -1.46,-3.76c0,-2.41 1.3,-3.68999 1.3,-3.68999c1.3,-1.29 3.55,-1.29 3.55,-1.29c2.23,0 3.53,1.29 3.53,1.29c1.3002,1.27999 1.3002,3.68999 1.3002,3.68999c0,0.26 -0.04,0.76 -0.04,0.76h-6.8802c0.39,2.28 2.99,2.28 2.99,2.28c1.82,0 3.2902,-1.08 3.2902,-1.08zM96.3638,9.90691c-0.74,0 -1.27,0.43999 -1.27,0.43999c-0.52,0.45 -0.73,1.29 -0.73,1.29h4.16c-0.23,-0.88 -0.8,-1.3 -0.8,-1.3c-0.57,-0.42999 -1.36,-0.42999 -1.36,-0.42999zM114.714,14.1869h-3.97l-0.94,3.51h-3.09l3.59,-12.38999h4.87l3.59,12.38999h-3.12zM112.714,6.88691l-1.4,5.17999h2.83l-1.4,-5.17999zM124.034,17.9269c-1.31,0 -2.3,-0.63 -2.3,-0.63c-0.99,-0.63 -1.52,-1.76 -1.52,-1.76c-0.53,-1.14 -0.53,-2.59 -0.53,-2.59c0,-1.46 0.54,-2.61 0.54,-2.61c0.54,-1.13999 1.52,-1.76999 1.52,-1.76999c0.98,-0.64 2.29,-0.64 2.29,-0.64c0.6,0 1.21,0.21 1.21,0.21c0.61,0.21 1.14,0.62 1.14,0.62v-4.67h2.83v11.38999c0,1.42 0.36,2.22 0.36,2.22h-2.66c-0.12,-0.25 -0.21,-0.64 -0.21,-0.64c-1.11,0.87 -2.67,0.87 -2.67,0.87zM123.584,15.5069c0.54,0.4 1.14,0.4 1.14,0.4c0.48,0 1.05,-0.23 1.05,-0.23c0.58,-0.23 0.95,-0.96 0.95,-0.96v-3.55c-0.37,-0.75 -0.95,-0.98 -0.95,-0.98c-0.57,-0.22999 -1.05,-0.22999 -1.05,-0.22999c-0.6,0 -1.14,0.38999 -1.14,0.38999c-0.54,0.39 -0.87,1.08 -0.87,1.08c-0.33,0.69 -0.33,1.52 -0.33,1.52c0,0.82 0.33,1.49 0.33,1.49c0.33,0.67 0.87,1.07 0.87,1.07zM133.814,8.11691v1.01c0.64,-0.51 1.42,-0.79 1.42,-0.79c0.78,-0.29 1.57,-0.29 1.57,-0.29c0.8,0 1.38,0.3 1.38,0.3c0.59,0.29 0.92,0.8 0.92,0.8c0.66,-0.53 1.44,-0.81 1.44,-0.81c0.77,-0.29 1.57,-0.29 1.57,-0.29c1.35,0 2.07,0.8 2.07,0.8c0.73,0.8 0.73,2.06999 0.73,2.06999v6.78h-2.83v-6.3c0,-0.52 -0.35,-0.84 -0.35,-0.84c-0.34,-0.33 -0.91,-0.33 -0.91,-0.33c-0.25,0 -0.58,0.11 -0.58,0.11c-0.34,0.1 -0.66,0.28 -0.66,0.28c0.02,0.1 0.02,0.3 0.02,0.3v6.78h-2.83v-6.3c0,-0.52 -0.35,-0.84 -0.35,-0.84c-0.34,-0.33 -0.91,-0.33 -0.91,-0.33c-0.33,0 -0.83,0.19 -0.83,0.19c-0.5,0.2 -0.87,0.52 -0.87,0.52v6.76h-2.83v-9.57999zM149.744,8.13691v9.55999h-2.83v-9.55999zM146.914,4.08691h2.83v2.83h-2.83zM154.574,8.10691v1.15c0.65,-0.57 1.49,-0.89 1.49,-0.89c0.84,-0.32 1.67,-0.32 1.67,-0.32c1.37,0 2.17,0.8 2.17,0.8c0.81,0.8 0.81,2.06999 0.81,2.06999v6.74h-2.84v-6.26c0,-0.52 -0.42,-0.84 -0.42,-0.84c-0.42,-0.33 -1.01,-0.33 -1.01,-0.33c-0.37,0 -0.93,0.25 -0.93,0.25c-0.55,0.24 -0.94,0.6 -0.94,0.6v6.58h-2.83v-9.54999z"></path>
    </g>
    <defs>
        <linearGradient id="linear_0" x1="100%" y1="20.118%" x2="0.4507175790422794%" y2="100%"
                        gradientUnits="objectBoundingBox">
            <stop offset="0" stop-color="#77B3F7" stop-opacity="1"/>
            <stop offset="1" stop-color="#0075FA" stop-opacity="1"/>
        </linearGradient>
    </defs>
</svg>
