<svg xmlns="http://www.w3.org/2000/svg" xmlns:xlink="http://www.w3.org/1999/xlink" fill="none" version="1.1"
     width="161.73699951171875" height="134.222412109375" viewBox="0 0 161.73699951171875 134.222412109375">
    <defs>
        <clipPath id="master_svg0_38_03">
            <rect x="0" y="0" width="161.73699951171875" height="134.222412109375" rx="0"/>
        </clipPath>
        <filter id="master_svg1_38_19" filterUnits="objectBoundingBox" color-interpolation-filters="sRGB" x="-44"
                y="-33" width="183.73700714111328" height="153.17245483398438">
            <feFlood flood-opacity="0" result="BackgroundImageFix"/>
            <feColorMatrix in="SourceAlpha" type="matrix" values="0 0 0 0 0 0 0 0 0 0 0 0 0 0 0 0 0 0 127 0"/>
            <feOffset dy="11" dx="0"/>
            <feGaussianBlur stdDeviation="11"/>
            <feColorMatrix type="matrix"
                           values="0 0 0 0 0.3960784375667572 0 0 0 0 0.47843137383461 0 0 0 0 0.5764706134796143 0 0 0 0.27000001072883606 0"/>
            <feBlend mode="normal" in2="BackgroundImageFix" result="effect1_dropShadow"/>
            <feBlend mode="normal" in="SourceGraphic" in2="effect1_dropShadow" result="shape"/>
        </filter>
        <linearGradient x1="0.4996841251850128" y1="-0.02316455729305744" x2="0.4996841251850128"
                        y2="1.0107594728469849" id="master_svg2_38_005">
            <stop offset="0%" stop-color="#FDFEFF" stop-opacity="1"/>
            <stop offset="99.6399998664856%" stop-color="#ECF0F5" stop-opacity="1"/>
        </linearGradient>
        <linearGradient x1="0.9603288173675537" y1="0" x2="0.03222369775176048" y2="0.5" id="master_svg3_38_006">
            <stop offset="0%" stop-color="#B0BACC" stop-opacity="1"/>
            <stop offset="100%" stop-color="#969EAE" stop-opacity="1"/>
        </linearGradient>
    </defs>
    <g clip-path="url(#master_svg0_38_03)">
        <g style="opacity:0.699999988079071;">
            <g>
                <g>
                    <path d="M80.42597694396973,105.69999990463256C108.42597694396973,105.69999990463256,131.12597694396973,82.99999990463257,131.12597694396973,54.899999904632566C131.12597694396973,26.799999904632568,108.32597694396972,4.099999904632568,80.42597694396973,4.099999904632568C52.42597694396973,4.099999904632568,29.725976943969727,26.799999904632568,29.725976943969727,54.899999904632566C29.725976943969727,82.99999990463257,52.42597694396973,105.69999990463256,80.42597694396973,105.69999990463256Z"
                          fill="#EAEEF9" fill-opacity="1" style="mix-blend-mode:passthrough"/>
                </g>
            </g>
            <g>
                <g>
                    <path d="M133.8259704589844,5.6C135.37198045898438,5.6,136.62598045898437,4.34,136.62598045898437,2.8C136.62598045898437,1.25,135.37198045898438,0,133.8259704589844,0C132.27898045898436,0,131.02597045898438,1.25,131.02597045898438,2.8C131.02597045898438,4.34,132.27898045898436,5.6,133.8259704589844,5.6Z"
                          fill="#E7EBF6" fill-opacity="1" style="mix-blend-mode:passthrough"/>
                </g>
            </g>
            <g>
                <g>
                    <path d="M32.4259765625,21.499999618530275C33.9719865625,21.499999618530275,35.2259865625,20.239999618530273,35.2259865625,18.699999618530274C35.2259865625,17.149999618530273,33.9719865625,15.899999618530273,32.4259765625,15.899999618530273C30.8789865625,15.899999618530273,29.6259765625,17.149999618530273,29.6259765625,18.699999618530274C29.6259765625,20.239999618530273,30.8789865625,21.499999618530275,32.4259765625,21.499999618530275Z"
                          fill="#E7EBF6" fill-opacity="1" style="mix-blend-mode:passthrough"/>
                </g>
            </g>
            <g>
                <g>
                    <path d="M20.5259765625,70.2999984741211Q20.5259765625,70.4276484741211,20.519676562500003,70.5551484741211Q20.5134765625,70.6826484741211,20.5009765625,70.80968847412109Q20.4883765625,70.9367284741211,20.4696765625,71.06299847412109Q20.4509765625,71.18926847412109,20.4260765625,71.3144684741211Q20.401176562499998,71.43966847412109,20.3701765625,71.56349847412109Q20.3390765625,71.6873184741211,20.302076562499998,71.8094784741211Q20.2649765625,71.9316284741211,20.2219765625,72.0518284741211Q20.1789765625,72.17201847412109,20.1301765625,72.28994847412109Q20.0812965625,72.4078884741211,20.0267165625,72.52328847412109Q19.972136562499998,72.6386784741211,19.911966562499998,72.75125847412109Q19.8517865625,72.8638384741211,19.7861665625,72.97332847412109Q19.7205365625,73.0828184741211,19.6496165625,73.1889584741211Q19.5786965625,73.29509847412109,19.5026565625,73.39762847412109Q19.4266165625,73.5001684741211,19.3456265625,73.5988384741211Q19.264646562499998,73.6975184741211,19.1789165625,73.7921084741211Q19.093196562499998,73.88668847412109,19.0029265625,73.97694847412109Q18.9126665625,74.06721847412109,18.8180865625,74.15294847412109Q18.7234965625,74.2386684741211,18.6248165625,74.3196484741211Q18.5261465625,74.40062847412109,18.423606562499998,74.47667847412109Q18.3210765625,74.5527184741211,18.2149365625,74.6236384741211Q18.1087965625,74.6945584741211,17.9993065625,74.7601884741211Q17.889816562500002,74.82580847412109,17.7772365625,74.88598847412109Q17.6646565625,74.94615847412109,17.5492665625,75.00073847412109Q17.4338665625,75.0553184741211,17.3159265625,75.10419847412109Q17.197996562500002,75.15299847412109,17.0778065625,75.1959984741211Q16.9576065625,75.23899847412109,16.8354565625,75.2760984741211Q16.7132965625,75.31309847412109,16.5894765625,75.3441984741211Q16.465646562499998,75.37519847412109,16.3404465625,75.4000984741211Q16.2152465625,75.4249984741211,16.0889765625,75.44369847412109Q15.9627065625,75.46239847412109,15.8356665625,75.4749984741211Q15.708626562500001,75.4874984741211,15.5811265625,75.49369847412109Q15.4536265625,75.4999984741211,15.3259765625,75.4999984741211Q15.1983265625,75.4999984741211,15.070826562499999,75.49369847412109Q14.943326562500001,75.4874984741211,14.8162865625,75.4749984741211Q14.6892465625,75.46239847412109,14.562976562500001,75.44369847412109Q14.4367065625,75.4249984741211,14.3115065625,75.4000984741211Q14.1863065625,75.37519847412109,14.0624765625,75.3441984741211Q13.9386565625,75.31309847412109,13.8164965625,75.2760984741211Q13.6943365625,75.23899847412109,13.574146562500001,75.1959984741211Q13.4539565625,75.15299847412109,13.336026562499999,75.10419847412109Q13.2180865625,75.0553184741211,13.1026865625,75.00073847412109Q12.9872965625,74.94615847412109,12.8747165625,74.88598847412109Q12.7621365625,74.82580847412109,12.6526465625,74.7601884741211Q12.5431465625,74.6945584741211,12.4370065625,74.6236384741211Q12.3308765625,74.5527184741211,12.228336562500001,74.47667847412109Q12.1258065625,74.4006384741211,12.0271265625,74.3196484741211Q11.9284565625,74.2386684741211,11.833866562499999,74.1529384741211Q11.7392865625,74.06721847412109,11.6490165625,73.97694847412109Q11.5587565625,73.88668847412109,11.4730265625,73.7921084741211Q11.387306562500001,73.6975184741211,11.3063265625,73.5988384741211Q11.2253365625,73.5001684741211,11.1492965625,73.39762847412109Q11.0732545625,73.29509847412109,11.0023345625,73.1889584741211Q10.9314145625,73.0828184741211,10.8657875625,72.97332847412109Q10.8001605625,72.8638384741211,10.7399855625,72.75125847412109Q10.6798105625,72.6386784741211,10.6252325625,72.52328847412109Q10.5706535625,72.4078884741211,10.5218025625,72.28994847412109Q10.4729525625,72.17201847412109,10.4299475625,72.0518284741211Q10.3869425625,71.9316284741211,10.3498865625,71.8094784741211Q10.3128315625,71.6873184741211,10.2818135625,71.56349847412109Q10.2507965625,71.43966847412109,10.2258930625,71.3144684741211Q10.2009897625,71.18926847412109,10.1822585625,71.06299847412109Q10.1635284625,70.9367284741211,10.1510162625,70.80968847412109Q10.1385040625,70.6826484741211,10.1322402925,70.5551484741211Q10.1259765625,70.4276484741211,10.1259765625,70.2999984741211Q10.1259765625,70.1723484741211,10.1322402925,70.0448484741211Q10.1385040625,69.9173484741211,10.1510162625,69.79030847412109Q10.1635284625,69.6632684741211,10.1822585625,69.53699847412109Q10.2009897625,69.4107284741211,10.2258930625,69.2855284741211Q10.2507965625,69.16032847412109,10.2818135625,69.03649847412109Q10.3128315625,68.9126784741211,10.3498865625,68.7905184741211Q10.3869425625,68.66835847412109,10.4299475625,68.5481684741211Q10.4729525625,68.42797847412109,10.5218025625,68.31004847412109Q10.5706535625,68.1921084741211,10.6252325625,68.07670847412109Q10.6798105625,67.9613184741211,10.7399855625,67.84873847412109Q10.8001605625,67.7361584741211,10.8657875625,67.62666847412109Q10.9314145625,67.51716847412109,11.0023345625,67.4110284741211Q11.0732545625,67.30489847412109,11.1492965625,67.2023584741211Q11.2253365625,67.0998284741211,11.3063265625,67.0011484741211Q11.387306562500001,66.9024784741211,11.4730265625,66.8078884741211Q11.5587565625,66.71330847412109,11.6490165625,66.62303847412109Q11.7392865625,66.53277847412109,11.833866562499999,66.44704847412109Q11.9284565625,66.3613284741211,12.0271265625,66.2803484741211Q12.1258065625,66.1993584741211,12.228336562500001,66.12331847412109Q12.3308765625,66.0472794741211,12.4370065625,65.97635647412109Q12.5431465625,65.9054334741211,12.6526465625,65.83981347412109Q12.7621365625,65.7741854741211,12.8747165625,65.7140044741211Q12.9872965625,65.65383147412109,13.1026865625,65.59925047412109Q13.2180865625,65.54467747412109,13.336026562499999,65.49582647412109Q13.4539565625,65.44697547412109,13.574146562500001,65.4039684741211Q13.6943365625,65.3609614741211,13.8164965625,65.32390547412109Q13.9386565625,65.2868504741211,14.0624765625,65.2558364741211Q14.1863065625,65.22481547412109,14.3115065625,65.1999130741211Q14.4367065625,65.1750106741211,14.562976562500001,65.15628047412109Q14.6892465625,65.13755037412109,14.8162865625,65.12503817412109Q14.943326562500001,65.1125259741211,15.070826562499999,65.1062622041211Q15.1983265625,65.0999984741211,15.3259765625,65.0999984741211Q15.4536265625,65.0999984741211,15.5811265625,65.1062622041211Q15.708626562500001,65.1125259741211,15.8356665625,65.12503817412109Q15.9627065625,65.13755037412109,16.0889765625,65.15628047412109Q16.2152465625,65.1750106741211,16.3404465625,65.1999130741211Q16.465646562499998,65.22481547412109,16.5894765625,65.2558364741211Q16.7132965625,65.2868504741211,16.8354565625,65.32390547412109Q16.9576065625,65.3609614741211,17.0778065625,65.4039684741211Q17.197996562500002,65.44697547412109,17.3159265625,65.49582647412109Q17.4338665625,65.54467747412109,17.5492665625,65.59925047412109Q17.6646565625,65.65383147412109,17.7772365625,65.7140044741211Q17.889816562500002,65.7741854741211,17.9993065625,65.83981347412109Q18.1087965625,65.9054334741211,18.2149365625,65.97635647412109Q18.3210765625,66.0472794741211,18.423606562499998,66.12331847412109Q18.5261465625,66.1993584741211,18.6248165625,66.2803484741211Q18.7234965625,66.3613284741211,18.8180865625,66.44704847412109Q18.9126665625,66.53277847412109,19.0029265625,66.62303847412109Q19.093196562499998,66.71330847412109,19.1789265625,66.8078884741211Q19.264646562499998,66.9024784741211,19.3456265625,67.0011484741211Q19.426606562499998,67.0998284741211,19.5026565625,67.2023584741211Q19.5786965625,67.30489847412109,19.6496165625,67.4110284741211Q19.7205365625,67.51716847412109,19.7861665625,67.62666847412109Q19.8517865625,67.7361584741211,19.911966562499998,67.84873847412109Q19.972136562499998,67.9613184741211,20.0267165625,68.07670847412109Q20.0812965625,68.1921084741211,20.1301765625,68.31004847412109Q20.1789765625,68.42797847412109,20.2219765625,68.5481684741211Q20.2649765625,68.66835847412109,20.302076562499998,68.7905184741211Q20.3390765625,68.9126784741211,20.3701765625,69.03649847412109Q20.401176562499998,69.16032847412109,20.4260765625,69.2855284741211Q20.4509765625,69.4107284741211,20.4696765625,69.53699847412109Q20.4883765625,69.6632684741211,20.5009765625,69.79030847412109Q20.5134765625,69.9173484741211,20.519676562500003,70.0448484741211Q20.5259765625,70.1723484741211,20.5259765625,70.2999984741211Z"
                          fill="#E7EBF6" fill-opacity="1" style="mix-blend-mode:passthrough"/>
                </g>
            </g>
            <g filter="url(#master_svg1_38_19)">
                <g>
                    <path d="M128.7369771118164,28.209999237060547L128.7369771118164,87.04999923706055C128.7369771118164,88.77999923706054,127.29797711181641,90.21999923706055,125.57197711181641,90.21999923706055L36.164977111816405,90.21999923706055C34.43797711181641,90.28999923706054,32.999977111816406,88.84999923706054,32.999977111816406,87.11999923706054L32.999977111816406,28.209999237060547C32.999977111816406,26.419999237060548,34.43797711181641,25.049999237060547,36.164977111816405,25.049999237060547L125.57197711181641,25.049999237060547C127.36997711181641,25.049999237060547,128.7369771118164,26.489999237060548,128.7369771118164,28.209999237060547Z"
                          fill="url(#master_svg2_38_005)" fill-opacity="1" style="mix-blend-mode:passthrough"/>
                </g>
            </g>
            <g>
                <g>
                    <path d="M128.7369771118164,28.209999237060547L128.7369771118164,32.74999923706055L32.999977111816406,32.74999923706055L32.999977111816406,28.209999237060547C32.999977111816406,26.419999237060548,34.43797711181641,25.049999237060547,36.164977111816405,25.049999237060547L125.57197711181641,25.049999237060547C127.36997711181641,25.049999237060547,128.7369771118164,26.489999237060548,128.7369771118164,28.209999237060547Z"
                          fill="url(#master_svg3_38_006)" fill-opacity="1" style="mix-blend-mode:passthrough"/>
                </g>
            </g>
            <g>
                <g>
                    <path d="M67.66898034667969,55.55000122070312C69.13898034667969,55.55000122070312,70.3309803466797,54.360001220703126,70.3309803466797,52.89000122070313C70.3309803466797,51.42000122070313,69.13898034667969,50.220001220703125,67.66898034667969,50.220001220703125C66.19997034667969,50.220001220703125,65.00798034667969,51.42000122070313,65.00798034667969,52.89000122070313C65.00798034667969,54.360001220703126,66.19997034667969,55.55000122070312,67.66898034667969,55.55000122070312Z"
                          fill="#989FB0" fill-opacity="1" style="mix-blend-mode:passthrough"/>
                </g>
            </g>
            <g>
                <g>
                    <path d="M94.13897393798828,55.55000122070312C95.60897393798828,55.55000122070312,96.79997393798828,54.360001220703126,96.79997393798828,52.89000122070313C96.79997393798828,51.42000122070313,95.60897393798828,50.220001220703125,94.13897393798828,50.220001220703125C92.66897393798828,50.220001220703125,91.47797393798828,51.42000122070313,91.47797393798828,52.89000122070313C91.47797393798828,54.360001220703126,92.66897393798828,55.55000122070312,94.13897393798828,55.55000122070312Z"
                          fill="#989FB0" fill-opacity="1" style="mix-blend-mode:passthrough"/>
                </g>
            </g>
            <g>
                <g>
                    <path d="M85.21997546386719,73.02999877929688L76.87597546386719,73.02999877929688C75.58197546386718,73.02999877929688,74.50297546386719,71.94999877929688,74.50297546386719,70.64999877929688C74.50297546386719,69.35999877929687,75.58197546386718,68.27999877929688,76.87597546386719,68.27999877929688L85.14797546386718,68.27999877929688C86.44297546386719,68.27999877929688,87.5219754638672,69.35999877929687,87.5219754638672,70.64999877929688C87.59397546386718,71.94999877929688,86.51497546386719,73.02999877929688,85.21997546386719,73.02999877929688Z"
                          fill="#989FB0" fill-opacity="1" style="mix-blend-mode:passthrough"/>
                </g>
            </g>
            <g>
                <g>
                    <path d="M37.24397802734375,30.22999969482422C37.83897802734375,30.22999969482422,38.32197802734375,29.74999969482422,38.32197802734375,29.149999694824217C38.32197802734375,28.54999969482422,37.83897802734375,28.06999969482422,37.24397802734375,28.06999969482422C36.64797602734375,28.06999969482422,36.16497802734375,28.54999969482422,36.16497802734375,29.149999694824217C36.16497802734375,29.74999969482422,36.64797602734375,30.22999969482422,37.24397802734375,30.22999969482422Z"
                          fill="#F9FAFB" fill-opacity="1" style="mix-blend-mode:passthrough"/>
                </g>
            </g>
            <g>
                <g>
                    <path d="M40.62397528076172,30.22999969482422C41.219975280761716,30.22999969482422,41.70297528076172,29.74999969482422,41.70297528076172,29.149999694824217C41.70297528076172,28.54999969482422,41.219975280761716,28.06999969482422,40.62397528076172,28.06999969482422C40.02797728076172,28.06999969482422,39.54497528076172,28.54999969482422,39.54497528076172,29.149999694824217C39.54497528076172,29.74999969482422,40.02797728076172,30.22999969482422,40.62397528076172,30.22999969482422Z"
                          fill="#F9FAFB" fill-opacity="1" style="mix-blend-mode:passthrough"/>
                </g>
            </g>
            <g>
                <g>
                    <path d="M44.07697821044922,30.22999969482422C44.672978210449216,30.22999969482422,45.15597821044922,29.74999969482422,45.15597821044922,29.149999694824217C45.15597821044922,28.54999969482422,44.672978210449216,28.06999969482422,44.07697821044922,28.06999969482422C43.48098021044922,28.06999969482422,42.99797821044922,28.54999969482422,42.99797821044922,29.149999694824217C42.99797821044922,29.74999969482422,43.48098021044922,30.22999969482422,44.07697821044922,30.22999969482422Z"
                          fill="#F9FAFB" fill-opacity="1" style="mix-blend-mode:passthrough"/>
                </g>
            </g>
            <g>
                <g>
                    <path d="M124.85297576904297,17.42999999523163C124.13297276904296,17.42999999523163,123.55797576904297,16.849999995231627,123.55797576904297,16.12999999523163L123.55797576904297,1.6699999952316285C123.55797576904297,0.9499999952316284,124.13297276904296,0.3799999952316284,124.85297576904297,0.3799999952316284C125.57197576904296,0.3799999952316284,126.14697576904297,0.9499999952316284,126.14697576904297,1.6699999952316285L126.14697576904297,16.12999999523163C126.14697576904297,16.849999995231627,125.57197576904296,17.42999999523163,124.85297576904297,17.42999999523163Z"
                          fill="#989FB0" fill-opacity="1" style="mix-blend-mode:passthrough"/>
                </g>
            </g>
            <g>
                <g>
                    <path d="M135.35397338867188,28.499999084472655C135.35397338867188,27.779999084472657,135.9299773886719,27.209999084472656,136.64897338867186,27.209999084472656L151.10697338867186,27.209999084472656C151.82597338867188,27.209999084472656,152.40097338867187,27.779999084472657,152.40097338867187,28.499999084472655C152.40097338867187,29.219999084472654,151.82597338867188,29.799999084472656,151.10697338867186,29.799999084472656L136.64897338867186,29.799999084472656C135.9299773886719,29.799999084472656,135.35397338867188,29.219999084472654,135.35397338867188,28.499999084472655Z"
                          fill="#989FB0" fill-opacity="1" style="mix-blend-mode:passthrough"/>
                </g>
            </g>
            <g>
                <g>
                    <path d="M134.20297237011718,19.15C133.6999813701172,18.65,133.6999813701172,17.79,134.20297237011718,17.28L144.48892937011718,7.07C144.9929293701172,6.56,145.8559293701172,6.56,146.35892937011718,7.07C146.8629293701172,7.57,146.8629293701172,8.43,146.35892937011718,8.94L136.1449693701172,19.15C135.56997937011718,19.66,134.7069853701172,19.66,134.20297237011718,19.15Z"
                          fill="#989FB0" fill-opacity="1" style="mix-bl end-mode:passthrough"/>
                </g>
            </g>
        </g>
    </g>
</svg>
