<svg xmlns="http://www.w3.org/2000/svg" xmlns:xlink="http://www.w3.org/1999/xlink" width="29"
     height="23" viewBox="0 0 25.770004272460938 20.350006103515625" fill="none">
    <path id="并集" fill-rule="evenodd" fill="url(#linear_0)" opacity="1"
          d="M22.07,5.78zM22.07,14.57zM18.82,0c0.12,0 0.24,0 0.36,0.01c0.57,0.02 1.15,0.08 1.72,0.19c0.66,0.15 1.3,0.34 1.93,0.6c0.61,0.26 1.2,0.57 1.75,0.94c0.02,0.01 0.05,0.03 0.07,0.04c0.67,0.42 1.12,1.16 1.12,2.01c0,1.31 -1.07,2.36 -2.4,2.36c-0.48,0 -0.93,-0.13 -1.3,-0.37c-0.34,-0.25 -0.71,-0.45 -1.1,-0.62c-0.58,-0.24 -1.18,-0.38 -1.81,-0.42c-0.11,-0.01 -0.23,-0.01 -0.34,-0.01c-0.76,0 -1.47,0.14 -2.15,0.43c-0.04,0.02 -0.08,0.03 -0.12,0.05c-0.61,0.27 -1.16,0.65 -1.63,1.12c-0.51,0.5 -0.91,1.07 -1.19,1.73c-0.28,0.67 -0.42,1.37 -0.42,2.11c0,0.75 0.14,1.45 0.42,2.12c0.28,0.65 0.68,1.23 1.19,1.73c0.51,0.51 1.09,0.89 1.75,1.17c0.68,0.28 1.39,0.42 2.15,0.42c0.12,0 0.24,0 0.36,-0.01c0.62,-0.03 1.21,-0.17 1.79,-0.41c0.39,-0.17 0.76,-0.37 1.1,-0.62c0.37,-0.24 0.82,-0.37 1.3,-0.37c1.33,0 2.4,1.05 2.4,2.36c0,0.85 -0.45,1.58 -1.12,2.01c-0.02,0.01 -0.05,0.02 -0.07,0.03c-0.55,0.37 -1.14,0.68 -1.75,0.95c-0.63,0.26 -1.27,0.45 -1.93,0.59c-0.57,0.12 -1.15,0.18 -1.72,0.2c-0.12,0.01 -0.24,0.01 -0.36,0.01c-0.7,0 -1.39,-0.07 -2.08,-0.21c-0.67,-0.14 -1.31,-0.33 -1.94,-0.59c-0.61,-0.27 -1.19,-0.58 -1.75,-0.95c-0.55,-0.36 -1.05,-0.77 -1.52,-1.24c-0.47,-0.45 -0.89,-0.96 -1.26,-1.5c-0.37,-0.55 -0.69,-1.12 -0.95,-1.72c-0.04,-0.08 -0.07,-0.16 -0.1,-0.24c-0.21,-0.54 -0.38,-1.11 -0.51,-1.67c-0.14,-0.69 -0.2,-1.37 -0.2,-2.06c0,-0.69 0.06,-1.37 0.2,-2.05c0.15,-0.65 0.34,-1.29 0.61,-1.91c0.01,-0.04 0.03,-0.07 0.05,-0.11c0.25,-0.56 0.55,-1.1 0.9,-1.62c0.02,-0.03 0.05,-0.07 0.07,-0.1c0.35,-0.5 0.75,-0.97 1.19,-1.4c0.05,-0.06 0.11,-0.11 0.17,-0.18c0.42,-0.39 0.87,-0.74 1.35,-1.06c0.07,-0.05 0.14,-0.09 0.21,-0.14c0.49,-0.31 1.01,-0.57 1.54,-0.8c0.08,-0.03 0.16,-0.07 0.24,-0.09c0.55,-0.22 1.12,-0.38 1.7,-0.51c0.69,-0.13 1.38,-0.2 2.08,-0.2zM2.5,20c-0.4,0 -2.38,-0.45 -2.38,-4.14l-0.12,-13.86c0,-1 0.6,-1 1,-1h1c0.4,0 3,-0.08 3,3v15c0,1 -0.6,1 -1,1z"></path>
    <defs>
        <linearGradient id="linear_0" x1="100%" y1="20.118%" x2="0.4507175790422794%" y2="100%"
                        gradientUnits="objectBoundingBox">
            <stop offset="0" stop-color="#77B3F7" stop-opacity="1"/>
            <stop offset="1" stop-color="#0075FA" stop-opacity="1"/>
        </linearGradient>
    </defs>
</svg>
