<svg xmlns="http://www.w3.org/2000/svg" xmlns:xlink="http://www.w3.org/1999/xlink" fill="none" version="1.1" width="170.14898681640625" height="119.6298828125" viewBox="0 0 170.14898681640625 119.6298828125"><defs><clipPath id="master_svg0_38_49"><rect x="0" y="0" width="170.14898681640625" height="119.6298828125" rx="0"/></clipPath><linearGradient x1="0.5000523924827576" y1="0.03470761328935623" x2="0.5000523924827576" y2="0.5959192514419556" id="master_svg1_38_110"><stop offset="0%" stop-color="#B0BACC" stop-opacity="1"/><stop offset="100%" stop-color="#969EAE" stop-opacity="1"/></linearGradient><linearGradient x1="0.03564760461449623" y1="0.2875029444694519" x2="0.5955621600151062" y2="0.5481148362159729" id="master_svg2_38_112"><stop offset="0%" stop-color="#E3E7EE" stop-opacity="1"/><stop offset="100%" stop-color="#D1D6DF" stop-opacity="1"/></linearGradient><linearGradient x1="0.5000710487365723" y1="0.03474793583154678" x2="0.5000710487365723" y2="0.5959840416908264" id="master_svg3_38_114"><stop offset="0%" stop-color="#BDC4D1" stop-opacity="0.5299999713897705"/><stop offset="100%" stop-color="#5D7CB8" stop-opacity="0"/></linearGradient><linearGradient x1="0.499978631734848" y1="0" x2="0.499978631734848" y2="1" id="master_svg4_38_115"><stop offset="0%" stop-color="#B6BFD7" stop-opacity="1"/><stop offset="100%" stop-color="#838DA7" stop-opacity="0"/></linearGradient><linearGradient x1="0.481796532869339" y1="0.11343783140182495" x2="0.5076183080673218" y2="0.6220174431800842" id="master_svg5_38_116"><stop offset="0%" stop-color="#B0BACC" stop-opacity="1"/><stop offset="100%" stop-color="#969EAE" stop-opacity="1"/></linearGradient><linearGradient x1="0.5001062750816345" y1="0.03550295904278755" x2="0.5001062750816345" y2="0.5946745276451111" id="master_svg6_38_117"><stop offset="0%" stop-color="#B0BACC" stop-opacity="1"/><stop offset="100%" stop-color="#969EAE" stop-opacity="1"/></linearGradient><linearGradient x1="0.03481077402830124" y1="0.4018290936946869" x2="0.5958765745162964" y2="0.5214396119117737" id="master_svg7_38_118"><stop offset="0%" stop-color="#B0BACC" stop-opacity="1"/><stop offset="100%" stop-color="#969EAE" stop-opacity="1"/></linearGradient><linearGradient x1="0.5226361751556396" y1="0.15753424167633057" x2="0.5021777153015137" y2="0.5707762837409973" id="master_svg8_38_119"><stop offset="0%" stop-color="#B0BACC" stop-opacity="1"/><stop offset="100%" stop-color="#969EAE" stop-opacity="1"/></linearGradient><linearGradient x1="0.4999542832374573" y1="0.8423857092857361" x2="0.5735160112380981" y2="0.17896339297294617" id="master_svg9_38_120"><stop offset="0%" stop-color="#B0BACC" stop-opacity="1"/><stop offset="100%" stop-color="#969EAE" stop-opacity="1"/></linearGradient><linearGradient x1="0.5000724792480469" y1="0.03479280695319176" x2="0.5000724792480469" y2="0.5957779288291931" id="master_svga_38_124"><stop offset="0%" stop-color="#D6DCE6" stop-opacity="1"/><stop offset="100%" stop-color="#C4CBDA" stop-opacity="1"/></linearGradient><linearGradient x1="0.500083863735199" y1="0.03466465696692467" x2="0.500083863735199" y2="0.5960813760757446" id="master_svgb_38_125"><stop offset="0%" stop-color="#D6DCE6" stop-opacity="1"/><stop offset="100%" stop-color="#C4CBDA" stop-opacity="1"/></linearGradient><linearGradient x1="0.5001933574676514" y1="0.03479280695319176" x2="0.5001933574676514" y2="0.5957779288291931" id="master_svgc_38_126"><stop offset="0%" stop-color="#D6DCE6" stop-opacity="1"/><stop offset="100%" stop-color="#C4CBDA" stop-opacity="1"/></linearGradient><linearGradient x1="0.5000724792480469" y1="0.03479280695319176" x2="0.5000724792480469" y2="0.5957779288291931" id="master_svgd_38_127"><stop offset="0%" stop-color="#EAEEF5" stop-opacity="1"/><stop offset="100%" stop-color="#D4DAE4" stop-opacity="1"/></linearGradient><linearGradient x1="0.5001051425933838" y1="0.03466465696692467" x2="0.5001051425933838" y2="0.5960813760757446" id="master_svge_38_128"><stop offset="0%" stop-color="#EAEEF5" stop-opacity="1"/><stop offset="100%" stop-color="#D4DAE4" stop-opacity="1"/></linearGradient><linearGradient x1="0.5001933574676514" y1="0.03479280695319176" x2="0.5001933574676514" y2="0.5957779288291931" id="master_svgf_38_129"><stop offset="0%" stop-color="#EAEEF5" stop-opacity="1"/><stop offset="100%" stop-color="#D4DAE4" stop-opacity="1"/></linearGradient></defs><g style="opacity:0.800000011920929;" clip-path="url(#master_svg0_38_49)"><g><g><g><path d="M121.34899829101562,23.89C121.34899829101562,36.44,111.36899829101563,46.81,98.95499829101563,47.54C98.46799829101562,47.54,97.98099829101562,47.54,97.49399829101563,47.54C93.35699829101563,47.54,89.21899829101562,46.33,85.81099829101562,44.4C78.50899829101563,40.3,73.64199829101562,32.57,73.64199829101562,23.65C73.64199829101562,17.61,75.83199829101562,12.06,79.72599829101563,7.96C84.10799829101562,3.13,90.43599829101562,0,97.49399829101563,0C106.73899829101563,0,114.77899829101563,5.31,118.66899829101563,13.03C120.36899829101563,16.41,121.34899829101562,20.03,121.34899829101562,23.89Z" fill="url(#master_svg1_38_110)" fill-opacity="1" style="mix-blend-mode:passthrough"/></g></g><g style="opacity:0.10000000149011612;"><g><path d="M121.13899920654296,23.89001880645752C121.13899920654296,36.440018806457516,111.15899920654297,46.81001880645752,98.74599920654296,47.54001880645752C94.12099920654296,46.81001880645752,89.73999920654296,45.60001880645752,85.60199920654297,44.64001880645752C78.29999920654296,40.54001880645752,73.43199920654297,32.82001880645752,73.43199920654297,23.89001880645752C73.43199920654297,17.84999880645752,75.62299920654297,12.29999880645752,79.51699920654296,8.19999980645752C87.54899920654297,7.959999806457519,96.79799920654297,8.67999980645752,106.28899920654297,10.36999880645752C110.66899920654296,11.09999880645752,114.80899920654298,12.05999880645752,118.70899920654297,13.02999880645752C120.16899920654296,16.40999880645752,121.13899920654296,20.03001880645752,121.13899920654296,23.89001880645752Z" fill="#000000" fill-opacity="1" style="mix-blend-mode:passthrough"/></g></g><g><g><path d="M150.23870602416991,39.86001753387451C152.07870602416992,29.620017533874513,129.42900602416992,17.069997533874513,99.65200602416992,11.809997533874512C69.87500602416992,6.559997533874512,44.246996024169924,10.599997533874511,42.410000024169925,20.83001753387451C40.572996024169925,31.070017533874513,63.22300602416992,43.62001753387451,92.99900602416992,48.880017533874515C122.77900602416992,54.130017533874515,148.39870602416994,50.09001753387451,150.23870602416991,39.86001753387451Z" fill="url(#master_svg2_38_112)" fill-opacity="1" style="mix-blend-mode:passthrough"/></g></g><g><g><path d="M92.06097956542969,17.65999747528076C92.1959795654297,15.929997475280762,89.48097956542969,14.309999475280762,85.99699956542969,14.039999975280761C82.51199956542969,13.779999475280762,79.57700356542969,14.959999475280762,79.44200134542969,16.689997475280762C79.30700656542969,18.40999747528076,82.02199956542968,20.029997475280762,85.50599956542969,20.29999747528076C88.99099956542969,20.56999747528076,91.92497956542968,19.38999747528076,92.06097956542969,17.65999747528076Z" fill="#FFFFFF" fill-opacity="1" style="mix-blend-mode:passthrough"/></g></g><g><g><path d="M61.4349982800293,22.09000130859375C64.78496828002929,21.110001308593752,67.09796828002929,18.96000130859375,66.60096828002929,17.30000130859375C66.1029682800293,15.64000030859375,62.9839982800293,15.09000030859375,59.633998280029296,16.08000030859375C56.2829982800293,17.07000130859375,53.971000280029294,19.21000130859375,54.467998480029294,20.87000130859375C54.965000280029294,22.53000130859375,58.0839982800293,23.08000130859375,61.4349982800293,22.09000130859375Z" fill="#FFFFFF" fill-opacity="1" style="mix-blend-mode:passthrough"/></g></g><g><g><path d="M116.67898989257813,24.009998080444337C116.97898989257813,22.299998080444336,114.43898989257812,20.430000080444337,110.99899989257813,19.820002080444336C107.55899989257813,19.210001080444336,104.51900489257812,20.100000080444335,104.21900179257813,21.809998080444338C103.90900389257813,23.509998080444337,106.44899989257813,25.389998080444336,109.88899989257813,25.999998080444335C113.32899989257812,26.599998080444337,116.36898989257813,25.709998080444336,116.67898989257813,24.009998080444337Z" fill="#FFFFFF" fill-opacity="1" style="mix-blend-mode:passthrough"/></g></g><g><g><path d="M135.1489927734375,36.62000363708496C135.9589927734375,35.080003637084964,134.0889927734375,32.55000363708496,130.97900277343751,30.96000363708496C127.8690027734375,29.36999863708496,124.7089997734375,29.32999963708496,123.9090037734375,30.87000363708496C123.0989987734375,32.41000363708496,124.9690027734375,34.95000363708496,128.0790127734375,36.540003637084965C131.1889927734375,38.13000363708496,134.3489927734375,38.16000363708496,135.1489927734375,36.62000363708496Z" fill="#FFFFFF" fill-opacity="1" style="mix-blend-mode:passthrough"/></g></g><g><g><path d="M93.28999911499024,32.53000291552734L70.41099911499023,32.290000915527344L37.827999114990234,92.89000091552734L129.27899911499023,102.51000091552734L119.08899911499023,40.73000091552734L93.28999911499024,32.53000291552734Z" fill="url(#master_svg3_38_114)" fill-opacity="1" style="mix-blend-mode:passthrough"/></g></g><g style="opacity:0.5;"><g><path d="M141.23900065612793,118.63000091552735L24.16200065612793,118.63000091552735C27.32600065612793,115.80000091552735,31.95000065612793,112.96000091552735,37.30500065612793,110.84000091552734C40.22600065612793,109.77000091552735,43.63300065612793,108.35000091552735,47.041000656127935,107.65000091552734C57.26300065612793,104.81000091552734,69.67700065612793,103.04000091552734,82.82000065612793,103.04000091552734C98.64100065612793,103.04000091552734,113.24900065612793,105.52000091552735,124.43900065612793,109.42000091552734C128.33900065612795,110.84000091552734,131.73900065612793,112.25000091552735,134.65900065612794,114.03000091552734C137.33900065612795,115.44000091552735,139.52900065612795,116.86000091552734,141.23900065612793,118.63000091552735Z" fill="url(#master_svg4_38_115)" fill-opacity="1" style="mix-blend-mode:passthrough"/></g></g><g style="opacity:0.30000001192092896;"><g><path d="M48.66200085449219,109.3599984741211C48.81500085449218,110.7999984741211,46.30600085449219,112.5199984741211,43.40200085449219,112.8299984741211C40.49800085449219,113.1399984741211,37.95000085449219,112.19999847412109,37.55400085449219,110.78999847412109C40.38200085449219,109.75999847412109,43.668000854492185,108.4399944741211,47.00500085449219,107.5999984741211C48.024000854492186,107.97000147412109,48.585000854492186,108.6399984741211,48.66200085449219,109.3599984741211Z" fill="url(#master_svg5_38_116)" fill-opacity="1" style="mix-blend-mode:passthrough"/></g></g><g style="opacity:0.30000001192092896;"><g><path d="M69.19000051879883,108.35000122070312C73.08800051879882,108.35000122070312,76.24800051879883,107.59000122070313,76.24800051879883,106.66000122070312C76.24800051879883,105.72000122070312,73.08800051879882,104.97000122070312,69.19000051879883,104.97000122070312C65.29100051879882,104.97000122070312,62.13100051879883,105.72000122070312,62.13100051879883,106.66000122070312C62.13100051879883,107.59000122070313,65.29100051879882,108.35000122070312,69.19000051879883,108.35000122070312Z" fill="url(#master_svg6_38_117)" fill-opacity="1" style="mix-blend-mode:passthrough"/></g></g><g style="opacity:0.30000001192092896;"><g><path d="M107.23898272705078,108.20999235107422C107.31898272705078,107.00999235107422,104.22898272705078,105.82999435107422,100.33900272705078,105.57999425107423C96.44900272705078,105.31999935107422,93.23100282705079,106.08999635107422,93.15100097705078,107.27999235107421C93.07099912705078,108.47999235107422,96.15900272705078,109.65999235107422,100.04900272705078,109.90999235107422C103.93898272705079,110.16999235107421,107.15898272705078,109.39999235107422,107.23898272705078,108.20999235107422Z" fill="url(#master_svg7_38_118)" fill-opacity="1" style="mix-blend-mode:passthrough"/></g></g><g style="opacity:0.30000001192092896;"><g><path d="M134.03896147460938,113.6499966430664C133.06900147460937,113.52999664306641,131.90900147460937,113.5699966430664,130.47900147460936,113.1599966430664C126.63900147460937,112.4799966430664,123.63899947460938,110.91999664306641,123.77899932460937,109.7199936430664C123.79899597460937,109.4799956430664,123.79899597460937,109.4799956430664,124.06900047460938,109.2699966430664C127.82900147460937,110.66999664306641,131.24901147460938,112.02999664306641,134.03896147460938,113.6499966430664Z" fill="url(#master_svg8_38_119)" fill-opacity="1" style="mix-blend-mode:passthrough"/></g></g><g><g><path d="M118.94900211181641,41.36001040039062C119.7690021118164,36.760000400390624,109.49900211181641,31.110000400390625,95.99600211181641,28.730000400390626C82.49700211181641,26.350000400390623,70.88600111181641,28.140001400390624,70.0620041118164,32.73000040039062C69.2369991118164,37.320000400390626,79.5120021118164,42.980010400390626,93.01100211181641,45.36001040039062C106.50900211181641,47.740010400390624,118.1190021118164,45.950010400390624,118.94900211181641,41.36001040039062Z" fill="url(#master_svg9_38_120)" fill-opacity="1" style="mix-blend-mode:passthrough"/></g></g><g><g><path d="M31.54200222595215,63.599998474121094Q23.13400222595215,65.72999847412109,25.68200122595215,67.4399984741211C28.229002225952147,69.05999847412109,34.259002225952145,71.8799984741211,39.94902222595215,69.9999984741211C45.63902222595215,68.11999847412109,39.94902222595215,65.47999847412109,40.03402222595215,65.47999847412109Q40.11902222595215,65.47999847412109,31.54200222595215,63.599998474121094Z" fill="#CED7E2" fill-opacity="1" style="mix-blend-mode:passthrough"/></g></g><g><g><path d="M21.264999389648438,62.90999938964843C24.322999389648437,63.84999938964844,33.74899938964844,62.31999938964844,39.77899938964843,58.38999938964844C44.53499938964843,64.27999938964844,46.317999389648435,65.81999938964844,48.01699938964843,65.98999938964843C45.38399938964844,68.62999938964843,36.63699938964844,72.89999938964844,31.710999389648435,67.34999938964845Q25.935999389648437,71.02999938964844,21.264999389648438,62.90999938964843Z" fill="#E9EEF8" fill-opacity="1" style="mix-blend-mode:passthrough"/></g></g><g><g><path d="M122.2490005493164,70.59999923706054C125.47900054931641,70.76999923706055,134.2290005493164,66.83999923706055,138.9790005493164,61.54999923706055C145.0990005493164,66.06999923706054,147.1290005493164,67.09999923706054,148.91900054931642,66.83999923706055C146.9590005493164,70.08999923706054,141.01900054931642,77.16999923706055,132.60900054931642,77.68999923706055Q126.4990005493164,74.09999923706054,122.2490005493164,70.59999923706054Z" fill="#E9EEF8" fill-opacity="1" style="mix-blend-mode:passthrough"/></g></g><g><g><path d="M94.28199902343749,70.71000137329102C93.6429990234375,67.54000137329102,87.6599990234375,60.04000137329102,81.3489990234375,56.76000137329102C84.2079990234375,49.710001373291014,84.6929990234375,47.48000137329102,84.0009990234375,45.810001373291016C87.6299990234375,46.90000137329102,95.9739990234375,50.890001373291014,98.56499902343751,58.91000137329102Q96.6149990234375,65.72000137329101,94.28199902343749,70.71000137329102Z" fill="#FFFFFF" fill-opacity="1" style="mix-blend-mode:passthrough"/></g></g><g><g><path d="M162.759,119.62999725341797L170.149,119.62999725341797L170.149,117.62999725341797L0,117.62999725341797L0,119.62999725341797L162.759,119.62999725341797Z" fill-rule="evenodd" fill="#D5DAE8" fill-opacity="1" style="mix-blend-mode:passthrough"/></g></g><g><g><path d="M66.0260018005371,104.07000183105468L66.0260018005371,99.25000183105469L63.10500180053711,99.25000183105469L63.10500180053711,83.08000183105469L56.53300180053711,83.08000183105469L45.33700180053711,98.52000183105469L45.33700180053711,104.07000183105468L57.50700180053711,104.07000183105468L57.50700180053711,108.66000183105469L63.10500180053711,108.66000183105469L63.10500180053711,104.07000183105468L66.0260018005371,104.07000183105468ZM50.69198180053711,99.25000183105469L57.750001800537106,89.35002183105469L57.750001800537106,99.25000183105469L50.69198180053711,99.25000183105469Z" fill-rule="evenodd" fill="url(#master_svga_38_124)" fill-opacity="1" style="mix-blend-mode:passthrough"/></g></g><g><g><path d="M72.59700012207031,95.86999847412109C72.59700012207031,104.06999847412109,77.70900012207031,109.13999847412109,83.55000012207032,109.13999847412109C89.63500012207031,109.13999847412109,94.74600012207031,103.8299984741211,94.50300012207032,95.86999847412109C94.50300012207032,87.6599984741211,89.39200012207031,82.5999984741211,83.55000012207032,82.5999984741211C77.70900012207031,82.5999984741211,72.59700012207031,87.6599984741211,72.59700012207031,95.86999847412109ZM89.14800012207031,95.6300984741211C89.14800012207031,101.42009847412109,86.22800012207031,104.0700984741211,83.55000012207032,104.0700984741211C80.87298012207032,104.0700984741211,78.19498012207032,101.42009847412109,77.95198012207031,95.6300984741211C77.95198012207031,89.8300784741211,80.87298012207032,87.18007847412109,83.55000012207032,87.18007847412109C86.47100012207031,87.18007847412109,89.14800012207031,90.0800784741211,89.14800012207031,95.6300984741211Z" fill-rule="evenodd" fill="url(#master_svgb_38_125)" fill-opacity="1" style="mix-blend-mode:passthrough"/></g></g><g><g><path d="M122.24899700927735,104.07000183105468L122.24899700927735,99.25000183105469L119.08899700927734,99.25000183105469L119.08899700927734,83.08000183105469L112.75899700927735,83.08000183105469L101.56099700927734,98.52000183105469L101.56099700927734,104.07000183105468L113.72899700927735,104.07000183105468L113.72899700927735,108.66000183105469L119.32899700927734,108.66000183105469L119.32899700927734,104.07000183105468L122.24899700927735,104.07000183105468ZM106.66896700927734,99.25000183105469L113.72899700927735,89.35002183105469L113.72899700927735,99.25000183105469L106.66896700927734,99.25000183105469Z" fill-rule="evenodd" fill="url(#master_svgc_38_126)" fill-opacity="1" style="mix-blend-mode:passthrough"/></g></g><g><g><path d="M63.834999908447266,104.07000183105468L63.834999908447266,99.25000183105469L60.670999908447264,99.25000183105469L60.670999908447264,83.08000183105469L54.34299990844727,83.08000183105469L43.145999908447266,98.52000183105469L43.145999908447266,104.07000183105468L55.31599990844727,104.07000183105468L55.31599990844727,108.66000183105469L60.913999908447266,108.66000183105469L60.913999908447266,104.07000183105468L63.834999908447266,104.07000183105468ZM48.50097990844726,99.25000183105469L55.55999990844727,89.35002183105469L55.55999990844727,99.25000183105469L48.50097990844726,99.25000183105469Z" fill-rule="evenodd" fill="url(#master_svgd_38_127)" fill-opacity="1" style="mix-blend-mode:passthrough"/></g></g><g><g><path d="M70.40699768066406,95.86999847412109C70.40699768066406,104.06999847412109,75.51799768066407,109.13999847412109,81.35999768066407,109.13999847412109C87.44499768066406,109.13999847412109,92.55599768066406,103.8299984741211,92.31199768066406,95.86999847412109C92.31199768066406,87.6599984741211,87.20099768066406,82.5999984741211,81.35999768066407,82.5999984741211C75.51799768066407,82.5999984741211,70.40699768066406,87.6599984741211,70.40699768066406,95.86999847412109ZM86.95799768066406,95.6300984741211C86.95799768066406,101.42009847412109,84.03699768066406,104.0700984741211,81.35999768066407,104.0700984741211C78.68197768066406,104.0700984741211,76.00497768066407,101.42009847412109,75.76197768066406,95.6300984741211C75.76197768066406,89.8300784741211,78.68197768066406,87.18007847412109,81.35999768066407,87.18007847412109C84.27999768066407,87.18007847412109,86.95799768066406,90.0800784741211,86.95799768066406,95.6300984741211Z" fill-rule="evenodd" fill="url(#master_svge_38_128)" fill-opacity="1" style="mix-blend-mode:passthrough"/></g></g><g><g><path d="M120.05900219726563,104.07000183105468L120.05900219726563,99.25000183105469L116.89900219726562,99.25000183105469L116.89900219726562,83.08000183105469L110.56900219726563,83.08000183105469L99.37100219726562,98.52000183105469L99.37100219726562,104.07000183105468L111.53900219726563,104.07000183105468L111.53900219726563,108.66000183105469L117.13900219726563,108.66000183105469L117.13900219726563,104.07000183105468L120.05900219726563,104.07000183105468ZM104.47897219726562,99.25000183105469L111.53900219726563,89.35002183105469L111.53900219726563,99.25000183105469L104.47897219726562,99.25000183105469Z" fill-rule="evenodd" fill="url(#master_svgf_38_129)" fill-opacity="1" style="mix-blend-mode:passthrough"/></g></g></g></g></svg>
