<svg xmlns="http://www.w3.org/2000/svg" xmlns:xlink="http://www.w3.org/1999/xlink" fill="none" version="1.1" width="197.464599609375" height="146.923095703125" viewBox="0 0 197.464599609375 146.923095703125"><defs><linearGradient x1="-0.0005614891415461898" y1="0.4998972415924072" x2="0.9996753334999084" y2="0.4998972415924072" id="master_svg0_38_231"><stop offset="0%" stop-color="#B0BACC" stop-opacity="1"/><stop offset="100%" stop-color="#969EAE" stop-opacity="1"/></linearGradient><filter id="master_svg1_38_068" filterUnits="objectBoundingBox" color-interpolation-filters="sRGB" x="-44" y="-33" width="152.69300079345703" height="159.59304809570312"><feFlood flood-opacity="0" result="BackgroundImageFix"/><feColorMatrix in="SourceAlpha" type="matrix" values="0 0 0 0 0 0 0 0 0 0 0 0 0 0 0 0 0 0 127 0"/><feOffset dy="11" dx="0"/><feGaussianBlur stdDeviation="11"/><feColorMatrix type="matrix" values="0 0 0 0 0.3960784375667572 0 0 0 0 0.47843137383461 0 0 0 0 0.5764706134796143 0 0 0 0.27000001072883606 0"/><feBlend mode="normal" in2="BackgroundImageFix" result="effect1_dropShadow"/><feBlend mode="normal" in="SourceGraphic" in2="effect1_dropShadow" result="shape"/></filter><linearGradient x1="0.4996841251850128" y1="-0.02316455729305744" x2="0.4996841251850128" y2="1.0107594728469849" id="master_svg2_38_232"><stop offset="0%" stop-color="#FDFEFF" stop-opacity="1"/><stop offset="99.6399998664856%" stop-color="#ECF0F5" stop-opacity="1"/></linearGradient><filter id="master_svg3_38_078" filterUnits="objectBoundingBox" color-interpolation-filters="sRGB" x="-44" y="-33" width="149.61256408691406" height="155.8573455810547"><feFlood flood-opacity="0" result="BackgroundImageFix"/><feColorMatrix in="SourceAlpha" type="matrix" values="0 0 0 0 0 0 0 0 0 0 0 0 0 0 0 0 0 0 127 0"/><feOffset dy="11" dx="0"/><feGaussianBlur stdDeviation="11"/><feColorMatrix type="matrix" values="0 0 0 0 0.3960784375667572 0 0 0 0 0.47843137383461 0 0 0 0 0.5764706134796143 0 0 0 0.27000001072883606 0"/><feBlend mode="normal" in2="BackgroundImageFix" result="effect1_dropShadow"/><feBlend mode="normal" in="SourceGraphic" in2="effect1_dropShadow" result="shape"/></filter><linearGradient x1="0.4996841251850128" y1="-0.02316455729305744" x2="0.4996841251850128" y2="1.0107594728469849" id="master_svg4_38_232"><stop offset="0%" stop-color="#FDFEFF" stop-opacity="1"/><stop offset="99.6399998664856%" stop-color="#ECF0F5" stop-opacity="1"/></linearGradient></defs><g style="opacity:0.800000011920929;"><g><g><path d="M95.71198768615723,105.6C123.71198768615723,105.6,146.41198768615723,82.9,146.41198768615723,54.8C146.41198768615723,26.7,123.61198768615722,4,95.71198768615723,4C67.71198768615723,4,45.01198768615723,26.7,45.01198768615723,54.8C45.01198768615723,82.9,67.71198768615723,105.6,95.71198768615723,105.6Z" fill="#EAEEF9" fill-opacity="1" style="mix-blend-mode:passthrough"/></g></g><g><g><path d="M142.7119818823242,21.599999618530273C144.97698188232422,21.599999618530273,146.8119918823242,19.769999618530274,146.8119918823242,17.499999618530275C146.8119918823242,15.239999618530273,144.97698188232422,13.399999618530273,142.7119818823242,13.399999618530273C140.44799188232423,13.399999618530273,138.61199188232422,15.239999618530273,138.61199188232422,17.499999618530275C138.61199188232422,19.769999618530274,140.44799188232423,21.599999618530273,142.7119818823242,21.599999618530273Z" fill="#EAEEF9" fill-opacity="1" style="mix-blend-mode:passthrough"/></g></g><g><g><path d="M148.7119873046875,5.6C150.2589873046875,5.6,151.5119973046875,4.35,151.5119973046875,2.8C151.5119973046875,1.26,150.2589873046875,0,148.7119873046875,0C147.1659873046875,0,145.9119873046875,1.26,145.9119873046875,2.8C145.9119873046875,4.35,147.1659873046875,5.6,148.7119873046875,5.6Z" fill="#EAEEF9" fill-opacity="1" style="mix-blend-mode:passthrough"/></g></g><g><g><path d="M47.311987686157224,21.499999618530275C48.85898768615723,21.499999618530275,50.111997686157224,20.249999618530275,50.111997686157224,18.699999618530274C50.111997686157224,17.159999618530275,48.85898768615723,15.899999618530273,47.311987686157224,15.899999618530273C45.765987686157224,15.899999618530273,44.51198768615723,17.159999618530275,44.51198768615723,18.699999618530274C44.51198768615723,20.249999618530275,45.765987686157224,21.499999618530275,47.311987686157224,21.499999618530275Z" fill="#EAEEF9" fill-opacity="1" style="mix-blend-mode:passthrough"/></g></g><g><g><path d="M30.211987686157226,75.4999984741211C33.08398768615723,75.4999984741211,35.411987686157225,73.17999847412109,35.411987686157225,70.2999984741211C35.411987686157225,67.42999847412109,33.08398768615723,65.0999984741211,30.211987686157226,65.0999984741211C27.339987686157226,65.0999984741211,25.011987686157227,67.42999847412109,25.011987686157227,70.2999984741211C25.011987686157227,73.17999847412109,27.339987686157226,75.4999984741211,30.211987686157226,75.4999984741211Z" fill="#EAEEF9" fill-opacity="1" style="mix-blend-mode:passthrough"/></g></g><g><g><path d="M122.04398931884765,40.719963748168944C121.49698931884765,43.08996374816895,120.67698931884766,45.36996374816894,119.67498931884765,47.459963748168946C117.03398931884766,52.37996374816895,113.11698931884766,56.389963748168945,108.19898931884765,58.849963748168946C103.09798931884765,61.48996374816895,97.08698931884766,62.39996374816894,90.98398931884765,61.219963748168944C76.77498931884766,58.209963748168946,67.57597931884766,44.36996374816894,70.58198531884766,30.069963748168945C73.58697931884765,15.770003748168946,87.34098931884765,6.570003748168945,101.64098931884766,9.570000748168946C106.74198931884766,10.670003748168945,111.20498931884765,13.130003748168946,114.93898931884766,16.680003748168946C121.13298931884765,23.049963748168945,123.77398931884765,32.069963748168945,122.04398931884765,40.719963748168944Z" fill="url(#master_svg0_38_231)" fill-opacity="1" style="mix-blend-mode:passthrough"/></g></g><g filter="url(#master_svg1_38_068)"><g><path d="M90.19403242492676,74.63999992370606C90.07303242492677,74.63999992370606,90.07303242492677,74.75999992370606,89.95203242492676,74.75999992370606L78.70203242492676,79.95999992370605C77.73503242492676,80.43999992370605,76.64603242492676,79.95999992370605,76.16203242492676,78.98999992370605C75.67803242492676,78.01999992370605,76.16203242492676,76.93999992370605,77.13003242492675,76.44999992370606L84.87103242492677,72.93999992370605L82.45203242492676,72.09999992370606L86.32303242492677,61.08999992370606L77.85603242492675,56.48999992370605L80.63803242492676,45.48999992370605L69.02503242492676,42.81999992370606L72.89603242492676,33.749999923706056L70.59803242492676,31.329999923706055L37.93899242492676,46.329999923706055C33.70498842492676,48.26999992370605,31.76999242492676,53.34999992370605,33.82598642492676,57.579999923706055L52.21203242492676,97.97999992370606C54.147032424926756,102.21999992370606,59.22803242492676,104.14999992370605,63.461032424926756,102.09999992370605L95.75803242492677,87.33999992370605L97.69303242492676,77.05999992370604L90.19403242492676,74.63999992370606Z" fill="url(#master_svg2_38_232)" fill-opacity="1" style="mix-blend-mode:passthrough"/></g></g><g><g><path d="M76.16198756298829,78.98999969482422C76.64598856298828,79.95999969482422,77.73499456298828,80.43999969482422,78.70198456298829,79.95999969482422L89.95201456298828,74.75999969482422C90.07301456298828,74.75999969482422,90.07301456298828,74.63999969482421,90.19401456298829,74.63999969482421L84.87098456298828,72.81999969482422L77.12999456298829,76.32999969482422C76.16198756298829,76.93999969482422,75.67798656298828,78.01999969482422,76.16198756298829,78.98999969482422Z" fill="#D5DDEA" fill-opacity="1" style="mix-blend-mode:passthrough"/></g></g><g><g><path d="M71.80800974121094,83.10000677978516L60.55798974121094,88.31000677978516C59.59098974121094,88.79000677978516,58.50198774121094,88.31000677978516,58.01798674121094,87.34000677978516C57.533984741210936,86.37000677978516,58.01798674121094,85.28000677978515,58.985989741210936,84.80000677978515L70.23500974121094,79.60000577978515C71.20300974121093,79.11000077978515,72.29100974121094,79.60000577978515,72.77500974121094,80.56000677978516C73.25900974121093,81.53000677978515,72.77500974121094,82.62000677978516,71.80800974121094,83.10000677978516Z" fill="#D5DDEA" fill-opacity="1" style="mix-blend-mode:passthrough"/></g></g><g filter="url(#master_svg3_38_078)"><g><path d="M156.3679821166992,91.67999908447266L164.32198211669922,47.80999908447266C165.1779821166992,43.149999084472654,162.0889821166992,38.749999084472655,157.4799821166992,37.999999084472655L116.53598211669922,30.709999084472656L117.06898211669922,34.109999084472655L108.75498211669922,39.36999908447265L116.82598211669922,48.12999908447266L108.10798211669922,55.499999084472655L112.38898211669922,64.03999908447265L102.85198211669922,70.87999908447266L104.44798211669922,72.90999908447266L108.18998211669921,73.55999908447265C109.21998211669921,73.70999908447266,109.88298211669922,74.72999908447267,109.73498211669921,75.75999908447265C109.53098211669922,76.67999908447266,108.67498211669923,77.39999908447265,107.80798211669922,77.29999908447266L112.60098211669921,83.67999908447266L105.17898211669922,90.91999908447266L146.5049821166992,98.41999908447265C151.1699821166992,99.27999908447265,155.61898211669921,96.28999908447265,156.3679821166992,91.67999908447266Z" fill="url(#master_svg4_38_232)" fill-opacity="1" style="mix-blend-mode:passthrough"/></g></g><g><g><path d="M127.28002341308594,80.98999507324218L115.13198341308593,78.82999507324219C114.10198941308593,78.67999507324218,113.43898741308594,77.65999507324219,113.58798981308594,76.62999507324218C113.73598441308594,75.59999807324219,114.75498341308594,74.94000207324218,115.78498341308594,75.08000187324218L127.93302341308593,77.24999507324219C128.96202341308594,77.38999507324219,129.62502341308593,78.40999507324219,129.47702341308593,79.43999507324219C129.32902341308593,80.46999507324219,128.31002341308593,81.13999507324219,127.28002341308594,80.98999507324218Z" fill="#D5DDEA" fill-opacity="1" style="mix-blend-mode:passthrough"/></g></g><g><g><path d="M146.91094300537108,84.460002734375L134.7629730053711,82.290002734375C133.7339860053711,82.150002734375,133.06998400537108,81.130002734375,133.2189865053711,80.100002734375C133.36698200537109,79.069999734375,134.3859830053711,78.400001734375,135.4159730053711,78.549995434375L147.5639430053711,80.710002734375C148.5939430053711,80.860002734375,149.25694300537108,81.880002734375,149.10794300537108,82.910002734375C148.9599430053711,83.940002734375,147.9969430053711,84.710002734375,146.91094300537108,84.460002734375Z" fill="#D5DDEA" fill-opacity="1" style="mix-blend-mode:passthrough"/></g></g><g><g><path d="M154.97894544677735,54.940001333007814C155.68694544677734,50.99000133300781,153.06194544677734,47.220001333007815,149.11698544677733,46.51000233300781C145.17198544677734,45.800003333007815,141.39897944677733,48.43000133300781,140.69098644677734,52.370001333007814C139.98297844677734,56.32000133300781,142.60797544677735,60.09004133300781,146.55298544677734,60.80004133300781C150.49797544677733,61.51004133300781,154.27094544677735,58.88004133300781,154.97894544677735,54.940001333007814Z" fill="#989FB0" fill-opacity="1" style="mix-blend-mode:passthrough"/></g></g><g><g><path d="M145.56202982177734,53.22999632080078C146.27002982177734,49.28999632080078,143.64602982177735,45.52000032080078,139.69998982177734,44.81000132080078C135.75499982177735,44.09999832080078,131.98299382177734,46.71999632080078,131.27498582177734,50.66999632080078C130.56699382177734,54.61999632080078,133.19098982177735,58.39001632080078,137.13598982177734,59.10001632080078C141.08198982177734,59.80001632080078,144.85402982177735,57.18001632080078,145.56202982177734,53.22999632080078Z" fill="#D5DDEA" fill-opacity="1" style="mix-blend-mode:passthrough"/></g></g><g><g><path d="M109.78998254394531,75.8699966430664C109.93898254394531,74.8399966430664,109.27598254394532,73.81999964306641,108.24598254394532,73.6699986430664L104.50398254394531,73.0199966430664L107.91898254394532,77.5199966430664C108.83798254394532,77.44999664306641,109.74898254394532,76.8399966430664,109.78998254394531,75.8699966430664Z" fill="#D5DDEA" fill-opacity="1" style="mix-blend-mode:passthrough"/></g></g><g><g><path d="M96.79098688720703,20.389999389648438C94.33198688720704,20.389999389648438,92.41898388720703,22.479999389648437,92.60098268720704,24.939999389648438L93.96698688720703,39.69999938964844C94.05798688720704,41.15999938964843,95.33298688720703,42.33999938964844,96.79098688720703,42.33999938964844C98.24798688720703,42.33999938964844,99.52298688720703,41.15999938964843,99.61398688720703,39.69999938964844L100.98098688720702,24.939999389648438C101.16298688720703,22.389999389648438,99.24998688720703,20.389999389648438,96.79098688720703,20.389999389648438Z" fill="#FFFFFF" fill-opacity="1" style="mix-blend-mode:passthrough"/></g></g><g><g><path d="M96.79098577880859,45.06999969482422C94.96898577880859,45.06999969482422,93.5119857788086,46.52999969482422,93.5119857788086,48.34999969482422C93.5119857788086,50.16999969482422,94.96898577880859,51.62999969482422,96.79098577880859,51.62999969482422C98.61198577880859,51.62999969482422,100.06998577880859,50.16999969482422,100.06998577880859,48.34999969482422C100.06998577880859,46.52999969482422,98.61198577880859,45.06999969482422,96.79098577880859,45.06999969482422Z" fill="#FFFFFF" fill-opacity="1" style="mix-blend-mode:passthrough"/></g></g><g><g><path d="M177.58639935546876,41.21727957397461L168.33239735546874,44.34727957397461L167.69158935546875,42.45271957397461L176.94558935546874,39.32271957397461L177.58639935546876,41.21727957397461Z" fill-rule="evenodd" fill="#989FB0" fill-opacity="1" style="mix-blend-mode:passthrough"/></g></g><g><g><path d="M176.19167856445313,25.80199537109375L166.63769856445313,37.21200537109375L165.10427856445312,35.92800537109375L174.65827856445313,24.51800537109375L176.19167856445313,25.80199537109375Z" fill-rule="evenodd" fill="#989FB0" fill-opacity="1" style="mix-blend-mode:passthrough"/></g></g><g><g><path d="M162.66253543457032,25.144211184570313L161.4325454345703,33.58420918457031L159.4534454345703,33.29578918457031L160.6834454345703,24.855789184570312L162.66253543457032,25.144211184570313Z" fill-rule="evenodd" fill="#989FB0" fill-opacity="1" style="mix-blend-mode:passthrough"/></g></g><g><g><path d="M32.42415780639649,43.706967954101565L28.553157806396484,34.75697295410156L30.388817806396485,33.96302795410156L34.259817806396484,42.913027954101565L32.42415780639649,43.706967954101565Z" fill-rule="evenodd" fill="#989FB0" fill-opacity="1" style="mix-blend-mode:passthrough"/></g></g><g><g><path d="M28.5289833984375,48.35527788696289L16.4329833984375,39.76532788696289L17.5909933984375,38.13467788696289L29.686983398437498,46.724677886962894L28.5289833984375,48.35527788696289Z" fill-rule="evenodd" fill="#989FB0" fill-opacity="1" style="mix-blend-mode:passthrough"/></g></g><g><g><path d="M26.511033223876954,54.228382924804684L17.923023223876953,53.73838292480469L18.036951223876954,51.74162292480469L26.624953223876954,52.231624924804684L26.511033223876954,54.228382924804684Z" fill-rule="evenodd" fill="#989FB0" fill-opacity="1" style="mix-blend-mode:passthrough"/></g></g><g><g><path d="M62.505017556762695,63.31001071166992L51.64498755676269,68.12001071166992C50.869987556762695,68.46001071166992,49.835987556762696,67.96001071166992,49.42898755676269,67.04001071166992L45.773988556762696,58.78000071166992C45.367986556762695,57.86000071166992,45.6909885567627,56.760000711669925,46.4669895567627,56.41000071166992L57.2300175567627,51.65000171166992C58.00601755676269,51.31000171166992,59.04001755676269,51.81000171166992,59.4460175567627,52.73000071166992L63.1010175567627,60.99000071166992C63.6050175567627,61.87001071166992,63.28101755676269,62.97001071166992,62.505017556762695,63.31001071166992Z" fill="#D5DDEA" fill-opacity="1" style="mix-blend-mode:passthrough"/></g></g></g></svg>
